<svg width="118" height="46" viewBox="0 0 118 46" fill="none" xmlns="http://www.w3.org/2000/svg">
<g clip-path="url(#clip0_880_112064)">
<path d="M114.763 40.2097C116.117 40.2097 117.196 41.3162 117.196 42.6971C117.196 44.101 116.117 45.1941 114.752 45.1941C113.398 45.1941 112.299 44.101 112.299 42.6971C112.299 41.3162 113.398 40.2097 114.752 40.2097H114.763ZM114.752 40.5969C113.662 40.5969 112.771 41.537 112.771 42.6971C112.771 43.8786 113.662 44.8076 114.763 44.8076C115.866 44.8195 116.745 43.8786 116.745 42.7074C116.745 41.537 115.866 40.5969 114.763 40.5969H114.752ZM114.288 44.1451H113.85V41.3714C114.08 41.3383 114.301 41.3044 114.631 41.3044C115.05 41.3044 115.325 41.3927 115.489 41.5149C115.654 41.6356 115.743 41.8233 115.743 42.0891C115.743 42.4534 115.502 42.675 115.203 42.7642V42.7863C115.447 42.8289 115.613 43.0497 115.666 43.459C115.734 43.8904 115.797 44.056 115.842 44.1451H115.379C115.313 44.056 115.247 43.8021 115.192 43.4377C115.126 43.0836 114.95 42.9511 114.599 42.9511H114.288V44.1451ZM114.288 42.6088H114.608C114.973 42.6088 115.281 42.4771 115.281 42.1332C115.281 41.8896 115.104 41.6474 114.608 41.6474C114.467 41.6474 114.367 41.6585 114.288 41.6695V42.6088Z" fill="black"/>
<path d="M0.72998 45.6868H111.381V0H0.72998V45.6868ZM1.62566 10.0453H48.6409V36.8585H1.62566V10.0453ZM97.9801 44.7286H1.62487V37.7236H97.9801V44.7286ZM110.422 44.7286H98.8679V37.7236H110.422V44.7286ZM110.422 36.8419H49.5853V0.996094H110.422V36.8419ZM4.30955 4.64368H3.63936V1.47955H4.72046C5.00016 1.47955 5.25472 1.47955 5.49435 1.65857C5.73556 1.84787 5.8652 2.11993 5.8652 2.44724C5.8652 2.74774 5.77013 3.05136 5.55563 3.25012C5.30972 3.47647 5.04573 3.4725 4.7401 3.4725H4.30955V4.64368ZM4.68668 2.8952C4.84617 2.8952 4.97816 2.8952 5.09602 2.75641C5.15965 2.67831 5.18794 2.5766 5.18794 2.47406C5.18794 2.35181 5.14237 2.22168 5.05045 2.14362C4.94595 2.05527 4.8061 2.05527 4.68196 2.05527H4.30955V2.8952H4.68668ZM8.46581 4.64368H7.74297L7.56541 3.99384H6.63831L6.4576 4.64368H5.86755L6.78915 1.47955H7.56541L8.46581 4.64368ZM7.41142 3.41177L7.10658 2.29977L6.80016 3.41177H7.41142ZM9.53825 4.64368H8.86964V1.47955H10.0796C10.3342 1.47955 10.5934 1.4827 10.815 1.64044C11.0491 1.81 11.1796 2.11993 11.1796 2.42831C11.1796 2.78873 10.991 3.12155 10.6799 3.24539L11.2133 4.64368H10.4677L10.0277 3.39365H9.53825V4.64368ZM9.53825 2.84946H9.90674C10.045 2.84946 10.1959 2.86288 10.3177 2.78479C10.4261 2.71066 10.4834 2.56317 10.4834 2.42438C10.4834 2.29977 10.4166 2.16647 10.3216 2.10101C10.2084 2.02295 10.0152 2.04187 9.88867 2.04187H9.53825V2.84946ZM12.3651 2.09235V2.73431H13.4517V3.32977H12.3651V4.03088H13.7456V4.64368H11.6957V1.47955H13.7456V2.09235H12.3651ZM16.4075 4.64368H15.8339L14.7324 2.51666H14.7175V4.64368H14.1981V1.47955H14.9218L15.8795 3.33844H15.8873V1.47955H16.4075V4.64368ZM18.9492 2.10574H18.2295V4.64368H17.5585V2.10574H16.8309V1.47955H18.9492V2.10574ZM21.4657 4.64368H20.7421L20.5661 3.99384H19.6374L19.4575 4.64368H18.8659L19.7867 1.47955H20.5661L21.4657 4.64368ZM20.4113 3.41177L20.1057 2.29977L19.8 3.41177H20.4113ZM23.6632 4.01749V4.64368H21.8389V1.47955H22.5091V4.01749H23.6632ZM26.4178 3.54193V2.95041H27.5964V4.64368H27.2923L27.1972 4.27933C26.982 4.56482 26.7486 4.69022 26.4131 4.69022C25.5717 4.69022 25.2236 3.92047 25.2236 3.08923C25.2236 2.23114 25.6055 1.43222 26.4705 1.43222C27.092 1.43222 27.5092 1.84787 27.5964 2.51666L26.9608 2.61365C26.9317 2.29504 26.7769 2.02768 26.4548 2.02768C25.9818 2.02768 25.9111 2.70593 25.9111 3.09869C25.9111 3.50879 26.0156 4.09006 26.4846 4.09006C26.7769 4.09006 26.9772 3.86447 26.9608 3.54193H26.4178ZM30.4476 3.39365C30.4476 3.73907 30.4515 4.09952 30.2135 4.35818C29.9833 4.61215 29.6446 4.69022 29.3319 4.69022C29.0294 4.69022 28.6822 4.63974 28.452 4.41812C28.1668 4.14603 28.155 3.78088 28.155 3.39365V1.47955H28.8817V3.39365C28.8817 3.54193 28.8786 3.75406 28.9462 3.88263C29.0342 4.04904 29.2133 4.09479 29.3759 4.09479C29.5111 4.09479 29.7075 4.04904 29.7916 3.92441C29.8835 3.78088 29.8701 3.56006 29.8701 3.39365V1.47955H30.4476V3.39365ZM31.7173 4.64368H31.0463V1.47955H31.7173V4.64368ZM33.1912 1.47955C33.6068 1.47955 33.962 1.50714 34.2755 1.83365C34.5858 2.15701 34.7201 2.59552 34.7201 3.05136C34.7201 3.47647 34.6023 3.88736 34.3477 4.20596C34.0617 4.55142 33.7113 4.64368 33.3059 4.64368H32.36V1.47955H33.1912ZM33.0301 4.04904H33.2564C33.5345 4.04904 33.7153 3.98911 33.87 3.71228C33.984 3.50879 34.0303 3.26352 34.0303 3.0285C34.0303 2.78006 33.962 2.5119 33.8245 2.31396C33.6681 2.09235 33.4984 2.06079 33.2596 2.06079H33.0301V4.04904ZM37.4857 4.64368H36.7629L36.5869 3.99384H35.6575L35.4791 4.64368H34.8883L35.8107 1.47955H36.5869L37.4857 4.64368ZM36.4337 3.41177L36.1265 2.29977L35.8217 3.41177H36.4337ZM40.0871 4.64368H39.5128L38.4128 2.51666H38.3979V4.64368H37.8778V1.47955H38.6014L39.5599 3.33844H39.5678V1.47955H40.0871V4.64368ZM42.3358 2.70593C42.3303 2.35577 42.221 2.02768 41.8533 2.02768C41.3804 2.02768 41.3348 2.71066 41.3348 3.09396C41.3348 3.52695 41.3804 4.0853 41.8864 4.0853C42.2014 4.0853 42.3475 3.79507 42.3853 3.49066L43.0389 3.53717C42.9667 4.26117 42.5149 4.69022 41.8533 4.69022C41.0001 4.69022 40.5876 3.92441 40.5876 3.06161C40.5876 2.18463 41.0127 1.43222 41.8738 1.43222C42.5942 1.43222 42.9635 1.89282 43.0389 2.65466L42.3358 2.70593ZM44.2245 2.09235V2.73431H45.3103V3.32977H44.2245V4.03088H45.6042V4.64368H43.5536V1.47955H45.6042V2.09235H44.2245ZM15.0325 6.72263C14.9485 6.45447 14.7937 6.34879 14.5383 6.34879C14.3592 6.34879 14.1392 6.39926 14.1392 6.64453C14.1392 6.87485 14.3922 6.93082 14.554 6.96158C14.789 7.01837 15.1032 7.08224 15.3044 7.22974C15.5369 7.40088 15.6807 7.66431 15.6807 7.97739C15.6807 8.28656 15.5456 8.58231 15.324 8.77078C15.0922 8.96954 14.7795 9.02948 14.4935 9.02948C13.9522 9.02948 13.4627 8.77078 13.3323 8.15326L13.9522 7.99554C14.0363 8.32834 14.2523 8.44351 14.5501 8.44351C14.7418 8.44351 14.9972 8.36462 14.9972 8.10199C14.9972 7.83939 14.6719 7.78812 14.4975 7.7471C13.986 7.63116 13.4839 7.46555 13.4839 6.7731C13.4839 6.47812 13.5877 6.21945 13.7919 6.03018C14.0025 5.83694 14.2492 5.77228 14.5124 5.77228C15.0152 5.77228 15.4238 5.96548 15.6006 6.5144L15.0325 6.72263ZM18.418 7.73291C18.418 8.07834 18.4235 8.43875 18.1847 8.69745C17.9545 8.95062 17.6143 9.02948 17.3008 9.02948C16.9999 9.02948 16.6518 8.9798 16.4224 8.75739C16.1388 8.48529 16.1254 8.12015 16.1254 7.73291V5.81723H16.853V7.73291C16.853 7.87961 16.8498 8.09253 16.9174 8.22189C17.0046 8.38828 17.1845 8.43481 17.3472 8.43481C17.4807 8.43481 17.6779 8.38828 17.762 8.26288C17.8523 8.12015 17.8413 7.89932 17.8413 7.73291V5.81723H18.418V7.73291ZM20.0632 7.87961V7.28888H21.2433V8.98294H20.9385L20.8427 8.61859C20.6274 8.90488 20.3948 9.02948 20.0601 9.02948C19.2186 9.02948 18.8706 8.25894 18.8706 7.42847C18.8706 6.5704 19.2524 5.77228 20.1182 5.77228C20.7374 5.77228 21.1569 6.1871 21.2433 6.85748L20.6085 6.9537C20.5787 6.63507 20.4239 6.36694 20.1025 6.36694C19.628 6.36694 19.5573 7.04599 19.5573 7.43796C19.5573 7.84805 19.6618 8.43008 20.1308 8.43008C20.4239 8.43008 20.6242 8.20374 20.6085 7.87961H20.0632ZM22.9019 7.87961V7.28888H24.082V8.98294H23.774L23.6805 8.61859C23.4668 8.90488 23.2335 9.02948 22.8988 9.02948C22.0573 9.02948 21.7077 8.25894 21.7077 7.42847C21.7077 6.5704 22.0903 5.77228 22.9553 5.77228C23.5752 5.77228 23.9948 6.1871 24.082 6.85748L23.4448 6.9537C23.4165 6.63507 23.2633 6.36694 22.9396 6.36694C22.4666 6.36694 22.3944 7.04599 22.3944 7.43796C22.3944 7.84805 22.5004 8.43008 22.9695 8.43008C23.2633 8.43008 23.4629 8.20374 23.4448 7.87961H22.9019ZM25.3509 6.4324V7.07358H26.4383V7.66745H25.3509V8.37015H26.7321V8.98294H24.6807V5.81723H26.7321V6.4324H25.3509ZM28.6374 6.72263C28.5533 6.45447 28.3978 6.34879 28.1424 6.34879C27.9633 6.34879 27.7464 6.39926 27.7464 6.64453C27.7464 6.87485 27.9963 6.93082 28.1597 6.96158C28.3946 7.01837 28.7081 7.08224 28.9092 7.22974C29.1426 7.40088 29.2856 7.66431 29.2856 7.97739C29.2856 8.28656 29.1504 8.58231 28.9297 8.77078C28.6995 8.96954 28.3868 9.02948 28.0976 9.02948C27.5571 9.02948 27.0684 8.77078 26.9372 8.15326L27.5571 7.99554C27.6419 8.32834 27.8596 8.44351 28.1558 8.44351C28.3483 8.44351 28.6036 8.36462 28.6036 8.10199C28.6036 7.83939 28.2776 7.78812 28.1023 7.7471C27.5916 7.63116 27.088 7.46555 27.088 6.7731C27.088 6.47812 27.1933 6.21945 27.3992 6.03018C27.6082 5.83694 27.8556 5.77228 28.1189 5.77228C28.6209 5.77228 29.0302 5.96548 29.2054 6.5144L28.6374 6.72263ZM31.6851 6.4458H30.9654V8.98294H30.296V6.4458H29.5676V5.81723H31.6851V6.4458ZM32.7779 6.4324V7.07358H33.8661V7.66745H32.7779V8.37015H34.1576V8.98294H32.1093V5.81723H34.1576V6.4324H32.7779ZM35.4375 5.81723C35.8507 5.81723 36.2074 5.84482 36.5201 6.17212C36.8297 6.49707 36.9633 6.93399 36.9633 7.39062C36.9633 7.8157 36.8478 8.22742 36.5932 8.54523C36.3072 8.89145 35.9545 8.98294 35.5506 8.98294H34.6039V5.81723H35.4375ZM35.2733 8.38828H35.4987C35.7792 8.38828 35.9599 8.32834 36.1139 8.05075C36.2279 7.84805 36.2734 7.60358 36.2734 7.36853C36.2734 7.11932 36.2074 6.85196 36.0676 6.65323C35.9136 6.4324 35.7423 6.39926 35.5027 6.39926H35.2733V8.38828Z" fill="black"/>
<path d="M104.591 41.1696C104.444 41.1696 104.325 41.2888 104.325 41.4354C104.325 41.5821 104.444 41.702 104.591 41.702C104.735 41.702 104.855 41.5821 104.855 41.4354C104.855 41.2888 104.735 41.1696 104.591 41.1696Z" fill="black"/>
<path d="M104.599 40.2686L104.953 39.9161C104.736 39.6953 104.461 39.6953 104.243 39.9161L104.599 40.2686Z" fill="black"/>
<path d="M105.374 40.1905C105.102 40.1905 104.881 40.4121 104.881 40.6841C104.881 40.9578 105.102 41.1794 105.374 41.1794C105.646 41.1794 105.867 40.9578 105.867 40.6841C105.867 40.4121 105.646 40.1905 105.374 40.1905Z" fill="black"/>
<path d="M103.326 40.6841C103.326 40.4121 103.546 40.1905 103.818 40.1905C104.09 40.1905 104.31 40.4121 104.31 40.6841C104.31 40.9578 104.09 41.1794 103.818 41.1794C103.546 41.1794 103.326 40.9578 103.326 40.6841Z" fill="black"/>
<path d="M103.845 41.7196C103.573 41.7196 103.354 41.942 103.354 42.2141C103.354 42.4862 103.573 42.7078 103.845 42.7078C104.117 42.7078 104.339 42.4862 104.339 42.2141C104.339 41.942 104.117 41.7196 103.845 41.7196Z" fill="black"/>
<path d="M104.841 42.2052C104.841 41.9316 105.061 41.71 105.333 41.71C105.606 41.71 105.826 41.9316 105.826 42.2052C105.826 42.4773 105.606 42.6989 105.333 42.6989C105.061 42.6989 104.841 42.4773 104.841 42.2052Z" fill="black"/>
<path d="M104.235 42.9433L104.591 42.5892L104.944 42.9433C104.726 43.1633 104.451 43.1633 104.235 42.9433Z" fill="black"/>
<path d="M105.727 41.4381L106.079 41.7954C106.3 41.5753 106.3 41.3001 106.079 41.0809L105.727 41.4381Z" fill="black"/>
<path d="M103.082 41.7954L103.433 41.4381L103.082 41.0809C102.862 41.3001 102.862 41.5753 103.082 41.7954Z" fill="black"/>
<path fill-rule="evenodd" clip-rule="evenodd" d="M99.5719 41.435C99.5719 40.1818 101.823 39.1653 104.599 39.1653C107.374 39.1653 109.625 40.1818 109.625 41.435C109.625 42.689 107.374 43.7064 104.599 43.7064C101.823 43.7064 99.5719 42.689 99.5719 41.435ZM108.346 41.2749H109.27C109.151 40.7118 108.412 40.2008 107.327 39.875C107.907 40.2449 108.285 40.7339 108.346 41.2749ZM106.853 41.2749H108.006C107.903 40.5691 107.126 39.9705 106.04 39.685C106.504 40.0706 106.808 40.6361 106.853 41.2749ZM102.674 41.435C102.674 42.5029 103.536 43.3673 104.599 43.3673C105.661 43.3673 106.525 42.5029 106.525 41.435C106.525 40.368 105.661 39.5036 104.599 39.5036C103.536 39.5036 102.674 40.368 102.674 41.435ZM101.191 41.2749H102.344C102.388 40.6361 102.695 40.0706 103.158 39.685C102.071 39.9705 101.294 40.5691 101.191 41.2749ZM100.849 41.2749C100.914 40.7339 101.289 40.2449 101.87 39.875C100.786 40.2008 100.047 40.7118 99.9278 41.2749H100.849ZM100.853 41.6141H99.931C100.062 42.1709 100.796 42.6732 101.87 42.9974C101.296 42.6299 100.922 42.1472 100.853 41.6141ZM102.345 41.6141H101.192C101.307 42.3128 102.079 42.9019 103.158 43.1859C102.699 42.805 102.393 42.2458 102.345 41.6141ZM108.004 41.6141H106.853C106.803 42.2458 106.498 42.805 106.039 43.1859C107.117 42.9019 107.891 42.3128 108.004 41.6141ZM108.346 41.6141C108.276 42.1472 107.903 42.6299 107.327 42.9966C108.401 42.6732 109.136 42.1709 109.266 41.6141H108.346Z" fill="black"/>
<path d="M74.1691 42.9318H74.789V40.8379H75.1701V40.2117H74.789V40.1526C74.789 39.916 74.789 39.7456 74.9894 39.7456C75.086 39.7456 75.1316 39.7456 75.2251 39.7614V39.1407C75.0947 39.1076 74.921 39.1028 74.8707 39.1028C74.6421 39.1028 74.397 39.218 74.2681 39.4704C74.168 39.6661 74.1686 39.9352 74.1691 40.1655L74.1691 40.2117H73.9216V40.8379H74.1691V42.9318Z" fill="black"/>
<path d="M27.7017 39.888H27.0834V39.108H27.7017V39.888Z" fill="black"/>
<path d="M27.7017 42.9323H27.0834V40.1413H27.7017V42.9323Z" fill="black"/>
<path d="M4.9808 40.2401C4.89752 39.9215 4.74117 39.7961 4.48425 39.7961C4.30433 39.7961 4.08355 39.856 4.08355 40.1463C4.08355 40.4207 4.33733 40.4878 4.50075 40.5256L4.55959 40.542C4.78748 40.6049 5.0687 40.6826 5.255 40.8442C5.49071 41.0477 5.63449 41.36 5.63449 41.7346C5.63449 42.1022 5.50014 42.4555 5.27621 42.6795C5.04444 42.9153 4.72781 42.9871 4.43711 42.9871C3.8942 42.9871 3.40079 42.6795 3.2688 41.9437L3.8942 41.756C3.97827 42.1519 4.19748 42.2891 4.4976 42.2891C4.6901 42.2891 4.9478 42.196 4.9478 41.8829C4.9478 41.5947 4.66887 41.5204 4.48603 41.4716C4.47024 41.4674 4.45516 41.4634 4.44104 41.4594C3.92641 41.323 3.42043 41.125 3.42043 40.3008C3.42043 39.9483 3.5265 39.6415 3.73314 39.4167C3.94449 39.1849 4.19276 39.1084 4.45911 39.1084C4.96509 39.1084 5.37757 39.3403 5.55435 39.9933L4.9808 40.2401Z" fill="black"/>
<path fill-rule="evenodd" clip-rule="evenodd" d="M7.99786 41.559C7.99786 42.3547 7.59716 42.9872 6.96547 42.9872C6.30785 42.9872 5.94958 42.3397 5.94958 41.5313C5.94958 40.7182 6.311 40.0857 6.96547 40.0857C7.63566 40.0857 7.99786 40.7332 7.99786 41.559ZM6.61584 41.4493L6.61584 41.4617C6.61578 41.7853 6.61566 42.4494 6.96547 42.4494C7.31509 42.4494 7.33238 41.8997 7.33238 41.5645C7.33238 41.3452 7.32295 41.081 7.26482 40.8712C7.21296 40.6898 7.11239 40.6189 6.9694 40.6189C6.63548 40.6189 6.61584 41.1299 6.61584 41.4493Z" fill="black"/>
<path d="M8.95755 40.5698V40.1407H8.36829V42.9319H8.98662L8.98659 41.4228C8.98615 41.1234 8.98559 40.7339 9.29932 40.7339C9.58673 40.7339 9.58171 41.0787 9.5776 41.361V41.362C9.57712 41.394 9.57666 41.4257 9.57666 41.4555V42.9319H10.1973V41.4555L10.1973 41.423C10.197 41.2759 10.1967 41.077 10.2398 40.9539C10.2853 40.8222 10.4001 40.7393 10.5101 40.7393C10.6413 40.7393 10.7418 40.7898 10.7748 40.9657C10.7926 41.0499 10.7904 41.245 10.7889 41.3758C10.7885 41.4064 10.7882 41.4343 10.7882 41.4555V42.9319H11.4065V41.1913C11.4065 41.1497 11.4072 41.1073 11.4079 41.0645C11.4118 40.8181 11.4159 40.5586 11.2934 40.3719C11.1669 40.1739 10.9603 40.0863 10.7709 40.0863C10.5045 40.0863 10.2555 40.2393 10.1486 40.5698C10.0221 40.2393 9.8438 40.0863 9.56094 40.0863C9.28282 40.0863 9.07697 40.2393 8.96697 40.5698H8.95755Z" fill="black"/>
<path fill-rule="evenodd" clip-rule="evenodd" d="M12.4416 41.6742L12.4369 41.8115C12.4369 42.1404 12.5815 42.4109 12.8517 42.4109C13.0419 42.4109 13.2304 42.2287 13.2304 41.9716L13.8016 42.0252C13.8016 42.1632 13.5541 42.9874 12.8305 42.9874C12.1894 42.9874 11.7722 42.4045 11.7722 41.5749C11.7722 40.7515 12.147 40.0858 12.8132 40.0858C13.111 40.0858 13.4198 40.2617 13.5974 40.5804C13.7741 40.899 13.8197 41.2949 13.8158 41.6742H12.4416ZM13.1959 41.1963C13.1833 40.8943 13.1079 40.6135 12.8384 40.6135C12.5634 40.6135 12.4597 40.8761 12.4369 41.1963H13.1959Z" fill="black"/>
<path d="M16.8525 42.9318H17.3168L18.0341 39.8615H18.0514V42.9318H18.7256V39.1628H17.6672L17.1361 41.4207L16.6293 39.1628H15.571V42.9318H16.1422V39.8615H16.1501L16.8525 42.9318Z" fill="black"/>
<path fill-rule="evenodd" clip-rule="evenodd" d="M20.5776 42.932C20.5517 42.7892 20.5438 42.6418 20.5477 42.4982C20.371 42.8279 20.184 42.9872 19.865 42.9872C19.4863 42.9872 19.1917 42.7222 19.1917 42.1962C19.1917 41.7837 19.3896 41.5029 19.6725 41.3665C19.8779 41.2628 20.1556 41.2317 20.3954 41.2049C20.438 41.2002 20.4799 41.1955 20.5195 41.1906V41.1244L20.5196 41.0858C20.5205 40.9747 20.5214 40.85 20.4644 40.7569C20.4071 40.663 20.305 40.6252 20.2099 40.6252C20.0119 40.6252 19.8406 40.7569 19.8406 41.0313L19.2529 40.9595C19.3174 40.2829 19.8233 40.0857 20.2743 40.0857C20.4943 40.0857 20.7811 40.1527 20.9539 40.3405C21.1552 40.5512 21.1538 40.8264 21.1522 41.1307L21.1519 41.2127V42.5156C21.1519 42.6576 21.159 42.7956 21.1944 42.932H20.5776ZM20.5195 41.5976C20.2822 41.6299 19.8485 41.7017 19.8485 42.1078C19.8485 42.3279 19.949 42.4762 20.1227 42.4762C20.2484 42.4762 20.3631 42.3878 20.4346 42.2451C20.5197 42.0764 20.5196 41.9186 20.5195 41.7313L20.5195 41.5976Z" fill="black"/>
<path d="M22.3816 40.7784H22.8405V40.1357H22.3816V39.2626L21.8419 39.3163L21.7861 40.1357H21.4105V40.7784H21.7601V42.0088C21.7601 42.2832 21.7601 42.6184 21.9346 42.8053C22.0728 42.9536 22.3085 42.9867 22.4853 42.9867C22.6008 42.9867 22.7517 42.9654 22.8743 42.9268V42.3164C22.8027 42.3274 22.7234 42.3392 22.6684 42.3392C22.4028 42.3392 22.3816 42.2564 22.3816 41.8881V40.7784Z" fill="black"/>
<path fill-rule="evenodd" clip-rule="evenodd" d="M23.8179 41.6742L23.8124 41.8115C23.8124 42.1404 23.957 42.4109 24.2264 42.4109C24.4166 42.4109 24.6044 42.2287 24.6044 41.9716L25.1771 42.0252C25.1771 42.1632 24.9296 42.9874 24.2044 42.9874C23.5641 42.9874 23.1477 42.4045 23.1477 41.5749C23.1477 40.7515 23.5217 40.0858 24.1887 40.0858C24.4881 40.0858 24.7961 40.2617 24.9721 40.5804C25.1504 40.899 25.1952 41.2949 25.1905 41.6742H23.8179ZM24.5714 41.1963C24.558 40.8943 24.4841 40.6135 24.2139 40.6135C23.9389 40.6135 23.8352 40.8761 23.8124 41.1963H24.5714Z" fill="black"/>
<path d="M26.1925 40.6636V40.1407H25.6158V42.9318H26.235V41.8664C26.235 41.3711 26.2947 40.8718 26.7661 40.905V40.0974L26.6608 40.0863C26.3897 40.0587 26.2656 40.3663 26.2027 40.6636H26.1925Z" fill="black"/>
<path fill-rule="evenodd" clip-rule="evenodd" d="M29.4802 42.4982C29.4763 42.6418 29.4842 42.7892 29.5093 42.932H30.1253C30.0907 42.7956 30.0828 42.6576 30.0828 42.5156V41.2127L30.0831 41.133C30.0846 40.8278 30.0859 40.5517 29.8849 40.3405C29.7128 40.1527 29.4252 40.0857 29.2052 40.0857C28.7543 40.0857 28.2491 40.2829 28.1854 40.9595L28.7715 41.0313C28.7715 40.7569 28.9444 40.6252 29.1416 40.6252C29.2367 40.6252 29.3396 40.663 29.3954 40.7569C29.4523 40.85 29.4514 40.9747 29.4506 41.0858L29.4504 41.1244V41.1906C29.4107 41.1955 29.3691 41.2002 29.3264 41.205C29.0873 41.2318 28.81 41.2628 28.6034 41.3665C28.3214 41.5029 28.1241 41.7837 28.1241 42.1962C28.1241 42.7222 28.4196 42.9872 28.7975 42.9872C29.1165 42.9872 29.3035 42.8279 29.4802 42.4982ZM28.7802 42.1078C28.7802 41.7017 29.2155 41.6299 29.4504 41.5976V41.7072L29.4504 41.7394C29.4507 41.9231 29.4509 42.0788 29.3655 42.2451C29.2932 42.3878 29.1809 42.4762 29.0528 42.4762C28.8808 42.4762 28.7802 42.3279 28.7802 42.1078Z" fill="black"/>
<path d="M31.1735 39.164H30.5529V42.9332H31.1735V39.164Z" fill="black"/>
<path d="M34.3279 42.9318H34.793L35.5096 39.8615H35.5269V42.9318H36.201V39.1628H35.1434L34.6123 41.4207L34.1048 39.1628H33.0472V42.9318H33.6176V39.8615H33.6247L34.3279 42.9318Z" fill="black"/>
<path fill-rule="evenodd" clip-rule="evenodd" d="M38.0521 42.932C38.0277 42.7892 38.0183 42.6418 38.023 42.4982C37.8462 42.8279 37.6608 42.9872 37.341 42.9872C36.9616 42.9872 36.6677 42.7222 36.6677 42.1962C36.6677 41.7837 36.8649 41.5029 37.1478 41.3665C37.3535 41.2629 37.6308 41.2318 37.8694 41.2051C37.9123 41.2002 37.9541 41.1955 37.994 41.1906V41.1244L37.9942 41.0855C37.995 40.9744 37.9959 40.8499 37.9397 40.7569C37.884 40.663 37.7802 40.6252 37.6868 40.6252C37.488 40.6252 37.3167 40.7569 37.3167 41.0313L36.729 40.9595C36.7926 40.2829 37.2986 40.0857 37.7496 40.0857C37.9696 40.0857 38.2572 40.1527 38.4292 40.3405C38.6293 40.5522 38.628 40.8291 38.6267 41.1352L38.6264 41.2127V42.5156C38.6264 42.6576 38.6335 42.7956 38.6689 42.932H38.0521ZM37.994 41.5976C37.7582 41.6299 37.323 41.7017 37.323 42.1078C37.323 42.3279 37.4235 42.4762 37.598 42.4762C37.7237 42.4762 37.8392 42.3878 37.9099 42.2451C37.9944 42.0777 37.9942 41.921 37.994 41.7357L37.994 41.5976Z" fill="black"/>
<path d="M40.0606 42.8831C40.071 42.8413 40.0816 42.7989 40.0925 42.7559L40.7454 40.1415H40.2826L39.8905 41.8L39.4812 40.1415H38.811L39.5904 42.9318C39.5354 43.1952 39.4561 43.2788 39.2494 43.2788C39.1449 43.2788 39.0452 43.2622 38.9375 43.2393V43.8719C39.0381 43.894 39.1402 43.9042 39.2408 43.9042C39.8068 43.9042 39.9183 43.4555 40.0606 42.8831Z" fill="black"/>
<path d="M44.6339 42.9318H44.0572L42.9478 40.3994H42.9321V42.9318H42.4081V39.1628H43.1388L44.1028 41.3774H44.1122V39.1628H44.6339V42.9318Z" fill="black"/>
<path fill-rule="evenodd" clip-rule="evenodd" d="M46.1077 42.9872C46.741 42.9872 47.1416 42.3547 47.1416 41.559C47.1416 40.7332 46.7787 40.0857 46.1077 40.0857C45.454 40.0857 45.0918 40.7182 45.0918 41.5313C45.0918 42.3397 45.4501 42.9872 46.1077 42.9872ZM45.7573 41.4577V41.4493C45.7573 41.1299 45.7793 40.6189 46.1124 40.6189C46.2562 40.6189 46.3575 40.6898 46.407 40.8712C46.466 41.081 46.4754 41.3452 46.4754 41.5645C46.4754 41.8997 46.4581 42.4494 46.1077 42.4494C45.7572 42.4494 45.7573 41.7797 45.7573 41.4577Z" fill="black"/>
<path d="M48.755 40.7784H48.2953V41.8881C48.2953 42.2564 48.3158 42.3392 48.5813 42.3392C48.6371 42.3392 48.7157 42.3274 48.7887 42.3164V42.9268C48.6662 42.9654 48.5137 42.9867 48.3998 42.9867C48.2223 42.9867 47.9858 42.9536 47.8483 42.8053C47.6762 42.6184 47.6762 42.2832 47.6762 42.0088V40.7784H47.3242V40.1357H47.7006L47.7563 39.3163L48.2953 39.2626V40.1357H48.755V40.7784Z" fill="black"/>
<path fill-rule="evenodd" clip-rule="evenodd" d="M52.5 39.3271C52.3021 39.1638 52.0648 39.1638 51.8377 39.1638H50.5437V42.9321H51.8377C52.0868 42.9321 52.3712 42.9321 52.5802 42.7286C52.7821 42.5354 52.9353 42.2451 52.9353 41.9147C52.9353 41.4265 52.691 41.0692 52.3311 40.9762V40.9659C52.6368 40.8658 52.8544 40.5811 52.8544 40.1528C52.8544 39.7948 52.7318 39.5203 52.5 39.3271ZM51.6774 40.6576H51.2186V39.8342H51.6279C51.6453 39.8342 51.6641 39.8338 51.6838 39.8334C51.7938 39.8312 51.9332 39.8283 52.0145 39.8878C52.108 39.9604 52.1591 40.0921 52.1591 40.2301C52.1591 40.3547 52.1166 40.4935 52.0357 40.57C51.9445 40.6594 51.8198 40.6585 51.7084 40.6577L51.6774 40.6576ZM51.6861 42.2349H51.2186V41.3279H51.7159C51.8251 41.3279 51.9603 41.3279 52.0569 41.3989C52.1551 41.4707 52.2204 41.619 52.2204 41.7617C52.2204 41.9147 52.1669 42.0701 52.0695 42.1529C51.9736 42.2369 51.8367 42.2359 51.7198 42.2351L51.6861 42.2349Z" fill="black"/>
<path fill-rule="evenodd" clip-rule="evenodd" d="M53.8764 41.6742L53.8733 41.8115C53.8733 42.1404 54.0171 42.4109 54.2858 42.4109C54.4743 42.4109 54.6653 42.2287 54.6653 41.9716L55.2388 42.0252C55.2388 42.1632 54.9905 42.9874 54.2638 42.9874C53.6242 42.9874 53.207 42.4045 53.207 41.5749C53.207 40.7515 53.581 40.0858 54.2488 40.0858C54.5474 40.0858 54.8562 40.2617 55.0322 40.5804C55.2082 40.899 55.2545 41.2949 55.2514 41.6742H53.8764ZM54.6323 41.1963C54.6181 40.8943 54.5435 40.6135 54.2724 40.6135C53.9974 40.6135 53.8945 40.8761 53.8733 41.1963H54.6323Z" fill="black"/>
<path d="M57.9682 39.7961C58.2251 39.7961 58.3815 39.9215 58.4663 40.2401L59.0399 39.9933C58.8615 39.3403 58.4491 39.1084 57.9438 39.1084C57.6767 39.1084 57.4292 39.1849 57.2187 39.4167C57.0112 39.6415 56.9052 39.9483 56.9052 40.3008C56.9052 41.125 57.4112 41.323 57.9266 41.4594C57.9407 41.4634 57.9558 41.4675 57.9716 41.4717C58.153 41.5205 58.4302 41.595 58.4302 41.8829C58.4302 42.196 58.1741 42.2891 57.9816 42.2891C57.6822 42.2891 57.463 42.1519 57.379 41.756L56.7535 41.9437C56.8848 42.6795 57.379 42.9871 57.9226 42.9871C58.2133 42.9871 58.5284 42.9153 58.761 42.6795C58.9841 42.4555 59.1177 42.1022 59.1177 41.7346C59.1177 41.36 58.9754 41.0477 58.739 40.8442C58.5545 40.683 58.273 40.6053 58.0452 40.5424L57.9847 40.5256C57.8205 40.4878 57.5659 40.4207 57.5659 40.1463C57.5659 39.856 57.7867 39.7961 57.9682 39.7961Z" fill="black"/>
<path d="M60.7949 42.9318V42.4547H60.7862C60.6856 42.8049 60.4672 42.9871 60.175 42.9871C59.9605 42.9871 59.7735 42.9263 59.6525 42.674C59.5448 42.4549 59.5459 42.2169 59.547 41.9737L59.5472 41.8995V40.1407H60.1671V41.8995C60.1671 42.125 60.1836 42.3387 60.4036 42.3387C60.5419 42.3387 60.6589 42.2346 60.7139 42.0698C60.7511 41.9593 60.7503 41.8233 60.7495 41.6948L60.7493 41.6408V40.1407H61.3684V42.9318H60.7949Z" fill="black"/>
<path d="M61.8781 39.888H62.498V39.108H61.8781V39.888Z" fill="black"/>
<path d="M61.8781 42.9323H62.498V40.1413H61.8781V42.9323Z" fill="black"/>
<path d="M64.2414 40.7784H63.7818V41.8881C63.7818 42.2564 63.803 42.3392 64.0678 42.3392C64.1228 42.3392 64.2029 42.3274 64.276 42.3164V42.9268C64.1534 42.9654 64.001 42.9867 63.8871 42.9867C63.7103 42.9867 63.4738 42.9536 63.3371 42.8053C63.1619 42.6184 63.1619 42.2832 63.1619 42.0088V40.7784H62.8123V40.1357H63.1862L63.242 39.3163L63.7818 39.2626V40.1357H64.2414V40.7784Z" fill="black"/>
<path fill-rule="evenodd" clip-rule="evenodd" d="M65.9255 42.4982C65.9224 42.6418 65.931 42.7892 65.9554 42.932H66.5721C66.5368 42.7956 66.5297 42.6576 66.5297 42.5156V41.2127L66.53 41.1328C66.5315 40.8277 66.5328 40.5517 66.3325 40.3405C66.1573 40.1527 65.8721 40.0857 65.6529 40.0857C65.2027 40.0857 64.6967 40.2829 64.6323 40.9595L65.2192 41.0313C65.2192 40.7569 65.3913 40.6252 65.5892 40.6252C65.6835 40.6252 65.7872 40.663 65.8422 40.7569C65.8986 40.8514 65.898 40.9786 65.8974 41.0909L65.8972 41.1244V41.1906C65.8574 41.1956 65.8156 41.2002 65.7725 41.2051C65.534 41.2318 65.2565 41.263 65.0495 41.3665C64.7682 41.5029 64.5679 41.7837 64.5679 42.1962C64.5679 42.7222 64.8633 42.9872 65.2428 42.9872C65.5641 42.9872 65.7495 42.8279 65.9255 42.4982ZM65.2271 42.1078C65.2271 41.7017 65.66 41.6299 65.8972 41.5976L65.8973 41.7315C65.8974 41.9187 65.8975 42.0765 65.8132 42.2451C65.7417 42.3878 65.627 42.4762 65.4997 42.4762C65.3268 42.4762 65.2271 42.3279 65.2271 42.1078Z" fill="black"/>
<path fill-rule="evenodd" clip-rule="evenodd" d="M67.0027 39.1637H67.6234V40.4926H67.6414C67.7467 40.2182 67.9235 40.0857 68.1639 40.0857C68.7736 40.0857 68.9598 40.8759 68.9598 41.5368C68.9598 42.2679 68.7367 42.9872 68.0916 42.9872C67.7829 42.9872 67.6359 42.8381 67.4804 42.503C67.4201 42.5984 67.3918 42.7184 67.3635 42.8382C67.3561 42.8699 67.3486 42.9016 67.3405 42.9328H67.0027V39.1637ZM67.632 41.7616C67.632 41.9154 67.6359 42.0905 67.7035 42.2285C67.7624 42.3499 67.8512 42.4217 67.9667 42.4217C68.3156 42.4217 68.3156 41.8381 68.3156 41.5368C68.3156 41.223 68.3156 40.6417 67.9746 40.6417C67.676 40.6417 67.632 41.0644 67.632 41.361V41.7616Z" fill="black"/>
<path d="M69.327 39.164H69.9446V42.9332H69.327V39.164Z" fill="black"/>
<path fill-rule="evenodd" clip-rule="evenodd" d="M71.0157 41.6742L71.011 41.8115C71.011 42.1404 71.154 42.4109 71.425 42.4109C71.6136 42.4109 71.8038 42.2287 71.8038 41.9716L72.3757 42.0252C72.3757 42.1632 72.1282 42.9874 71.4038 42.9874C70.7627 42.9874 70.3463 42.4045 70.3463 41.5749C70.3463 40.7515 70.7203 40.0858 71.3866 40.0858C71.6867 40.0858 71.9923 40.2617 72.1714 40.5804C72.3474 40.899 72.3938 41.2949 72.3907 41.6742H71.0157ZM71.77 41.1963C71.7566 40.8943 71.682 40.6135 71.4125 40.6135C71.1375 40.6135 71.033 40.8761 71.011 41.1963H71.77Z" fill="black"/>
<path fill-rule="evenodd" clip-rule="evenodd" d="M77.3558 41.559C77.3558 42.3547 76.9559 42.9872 76.3234 42.9872C75.6658 42.9872 75.3075 42.3397 75.3075 41.5313C75.3075 40.7182 75.6697 40.0857 76.3234 40.0857C76.9944 40.0857 77.3558 40.7332 77.3558 41.559ZM75.9738 41.4493V41.4617C75.9737 41.7853 75.9736 42.4494 76.3234 42.4494C76.6738 42.4494 76.6903 41.8997 76.6903 41.5645C76.6903 41.3452 76.6809 41.081 76.6227 40.8712C76.5724 40.6898 76.4703 40.6189 76.3265 40.6189C75.9926 40.6189 75.9738 41.1299 75.9738 41.4493Z" fill="black"/>
<path d="M78.3454 40.6636V40.1407H77.7687V42.9318H78.3878V41.8664C78.3878 41.3711 78.4467 40.8718 78.9189 40.905V40.0974L78.8128 40.0863C78.5434 40.0587 78.4176 40.3663 78.3548 40.6636H78.3454Z" fill="black"/>
<path d="M82.2094 40.6248C82.2047 40.2068 82.0954 39.8172 81.7246 39.8172C81.2469 39.8172 81.2029 40.6296 81.2029 41.0862C81.2029 41.6028 81.2469 42.2676 81.7576 42.2676C82.0742 42.2676 82.2227 41.9214 82.2597 41.5594L82.9181 41.613C82.8466 42.4758 82.3909 42.9869 81.7246 42.9869C80.8651 42.9869 80.4479 42.0752 80.4479 41.0483C80.4479 40.0042 80.8776 39.1082 81.745 39.1082C82.4718 39.1082 82.8418 39.6571 82.9181 40.5641L82.2094 40.6248Z" fill="black"/>
<path d="M84.584 42.9318H85.2055V41.1573L85.2057 41.0888C85.2067 40.8409 85.2078 40.5898 85.0876 40.3884C84.9604 40.1739 84.749 40.0863 84.5518 40.0863C84.3192 40.0863 84.0765 40.2456 83.9948 40.5256H83.9853V39.1628H83.3662V42.9318H83.9853V41.4263C83.9853 41.2622 83.9853 41.0864 84.0427 40.9381C84.093 40.7993 84.2226 40.7291 84.3365 40.7291C84.588 40.7291 84.5857 41.1259 84.5842 41.3751L84.584 41.4263V42.9318Z" fill="black"/>
<path d="M86.3261 39.888H85.7054V39.108H86.3261V39.888Z" fill="black"/>
<path d="M86.3261 42.9323H85.7054V40.1413H86.3261V42.9323Z" fill="black"/>
<path d="M86.8517 39.164H87.4708V42.9332H86.8517V39.164Z" fill="black"/>
<path fill-rule="evenodd" clip-rule="evenodd" d="M89.2413 42.9316V42.4987H89.2303C89.1124 42.7944 88.9357 42.9868 88.6615 42.9868C88.0596 42.9868 87.8915 42.2171 87.8915 41.5696C87.8915 40.9055 88.0502 40.0861 88.674 40.0861C88.9144 40.0861 89.0747 40.1808 89.2106 40.4371V39.1642H89.8305V42.9316H89.2413ZM89.2106 41.3827C89.2106 41.1145 89.1941 40.6516 88.9113 40.6516C88.5577 40.6516 88.5444 41.2565 88.5444 41.5917C88.5444 41.8937 88.5782 42.4048 88.8862 42.4048C88.9985 42.4048 89.1038 42.3054 89.1556 42.1792C89.2067 42.053 89.2106 41.9055 89.2106 41.7675V41.3827Z" fill="black"/>
<path d="M90.9171 40.6636V40.1407H90.338V42.9318H90.9579V41.8664C90.9579 41.3711 91.0176 40.8718 91.4898 40.905V40.0974L91.3845 40.0863C91.1143 40.0587 90.9886 40.3663 90.9241 40.6636H90.9171Z" fill="black"/>
<path fill-rule="evenodd" clip-rule="evenodd" d="M92.3479 41.6742L92.3432 41.8115C92.3432 42.1404 92.4886 42.4109 92.7581 42.4109C92.9482 42.4109 93.1375 42.2287 93.1375 41.9716L93.7095 42.0252C93.7095 42.1632 93.4597 42.9874 92.7368 42.9874C92.0949 42.9874 91.6793 42.4045 91.6793 41.5749C91.6793 40.7515 92.0533 40.0858 92.7196 40.0858C93.0189 40.0858 93.3269 40.2617 93.5037 40.5804C93.6797 40.899 93.7252 41.2949 93.7221 41.6742H92.3479ZM93.103 41.1963C93.0896 40.8943 93.015 40.6135 92.7455 40.6135C92.4697 40.6135 92.3652 40.8761 92.3432 41.1963H93.103Z" fill="black"/>
<path d="M94.6957 40.1407H94.1096V42.9319H94.7287V41.431C94.7287 41.2567 94.7374 41.0966 94.801 40.9381C94.8513 40.8111 94.9511 40.7291 95.0634 40.7291C95.3485 40.7291 95.3457 41.083 95.3435 41.3614C95.3433 41.3853 95.3431 41.4086 95.3431 41.431V42.9319H95.9638V41.2063C95.9638 40.9539 95.9638 40.6029 95.846 40.3931C95.7218 40.1684 95.5223 40.0863 95.3188 40.0863C95.0069 40.0863 94.8301 40.2559 94.7036 40.6132H94.6957V40.1407Z" fill="black"/>
<path d="M55.707 12.6536C55.645 13.6765 55.2081 14.5022 54.3722 14.5022C53.2062 14.5022 52.932 13.055 52.932 11.9028C52.932 10.9863 53.1041 9.297 54.3832 9.297C54.9614 9.297 55.249 9.6456 55.4218 9.97842C55.6407 10.4092 55.6713 10.9281 55.6895 11.2351L55.6905 11.2529L54.9284 11.327L54.9273 11.3073C54.9036 10.903 54.8625 10.1992 54.3887 10.1992C53.9133 10.1992 53.8143 10.9635 53.8143 11.9864C53.8143 12.835 53.889 13.6008 54.3887 13.6008C54.8295 13.6008 54.9011 12.8989 54.9307 12.6086L54.9331 12.585L55.707 12.6536Z" fill="black"/>
<path d="M58.9097 14.4262H58.0738V12.3575H57.149V14.4262H56.3123V9.37241H57.149V11.4111H58.0738V9.37241H58.9097V14.4262Z" fill="black"/>
<path d="M62.0747 10.2433V9.37262H59.7499V14.4264H62.0747V13.525H60.5866V12.2812H61.74V11.4106H60.5866V10.2433H62.0747Z" fill="black"/>
<path d="M65.2405 12.6536C65.1784 13.6765 64.7424 14.5022 63.904 14.5022C62.7397 14.5022 62.4655 13.055 62.4655 11.9028C62.4655 10.9863 62.6367 9.297 63.9158 9.297C64.4957 9.297 64.7816 9.6456 64.9545 9.97842C65.1741 10.4093 65.2048 10.9281 65.2229 11.2351L65.224 11.2529L64.4611 11.327L64.46 11.307C64.4371 10.9027 64.3973 10.1992 63.9213 10.1992C63.4452 10.1992 63.3493 10.9635 63.3493 11.9864C63.3493 12.835 63.4232 13.6008 63.9213 13.6008C64.3646 13.6008 64.4353 12.8912 64.4639 12.6039L64.4658 12.585L65.2405 12.6536Z" fill="black"/>
<path d="M66.6837 11.4799V9.37262H65.8446V14.4264H66.6837V12.7142L66.9972 12.0999L67.676 14.4264H68.5411L67.5032 11.2292L68.4601 9.37262H67.6116L66.6837 11.4799Z" fill="black"/>
<path d="M72.5195 9.37262V10.3198H71.7401V14.4264H70.9018V10.3198H70.1396V9.37262H72.5195Z" fill="black"/>
<path d="M74.6943 14.4262H75.5318V9.37241H74.6943V11.4111H73.7711V9.37241H72.9336V14.4262H73.7711V12.3575H74.6943V14.4262Z" fill="black"/>
<path d="M77.2082 9.37289H76.3715V14.4267H77.2082V9.37289Z" fill="black"/>
<path d="M79.6845 10.8128L79.6881 10.8267L80.3874 10.471L80.3869 10.4688C80.3064 10.1345 80.1048 9.29749 79.1531 9.29749C78.3179 9.29749 77.9321 10.0546 77.9321 10.8433C77.9321 11.8652 78.5549 12.164 79.0736 12.4129L79.0847 12.4182C79.3731 12.5555 79.6135 12.6998 79.6135 13.0547C79.6135 13.3883 79.4123 13.6005 79.1264 13.6005C78.6702 13.6005 78.5603 13.0794 78.5117 12.8489L78.5104 12.8426L77.7773 13.1154C77.8237 13.3347 77.892 13.6462 78.1042 13.9711C78.4137 14.4341 78.8278 14.5019 79.1036 14.5019C80.0024 14.5019 80.462 13.7527 80.462 12.8883C80.462 11.8726 79.8456 11.5588 79.417 11.3405L79.4068 11.3354L79.3899 11.3269C78.9921 11.1269 78.7477 11.004 78.7477 10.6603C78.7477 10.456 78.8671 10.1989 79.1484 10.1989C79.5231 10.1989 79.6347 10.6236 79.6845 10.8128Z" fill="black"/>
<path fill-rule="evenodd" clip-rule="evenodd" d="M82.6737 9.37277H83.9764C84.3535 9.37277 84.7833 9.37277 85.0198 9.80496C85.1635 10.0621 85.2217 10.3878 85.2217 10.7064C85.2217 11.5074 84.8605 11.6941 84.6828 11.786L84.6764 11.7893L84.6922 11.7969C84.8115 11.8547 84.9281 11.9111 85.059 12.1C85.1981 12.2972 85.3223 12.6 85.3223 13.0251C85.3223 13.4644 85.1792 13.9715 84.9043 14.1916C84.612 14.4258 84.3189 14.4258 83.9764 14.4258H82.6737V9.37277ZM83.4814 11.4107H83.7525C83.9819 11.4107 84.3645 11.4107 84.3645 10.7821C84.3645 10.1906 83.9819 10.1906 83.8145 10.1906H83.4814V11.4107ZM83.4814 13.5543H83.8954C84.2561 13.5543 84.4698 13.3879 84.4698 12.8887C84.4698 12.2293 84.0793 12.2293 83.89 12.2293H83.4814V13.5543Z" fill="black"/>
<path fill-rule="evenodd" clip-rule="evenodd" d="M87.2644 14.5018C88.5254 14.5018 88.6527 12.8274 88.6527 11.9031C88.6527 10.8502 88.4798 9.29733 87.2644 9.29733C86.0191 9.29733 85.8761 10.9338 85.8761 11.9031C85.8761 12.9189 86.0356 14.5018 87.2644 14.5018ZM87.2644 13.6003C86.8401 13.6003 86.76 12.9867 86.76 11.9031C86.76 10.8045 86.8401 10.1988 87.2644 10.1988C87.6997 10.1988 87.768 10.8431 87.768 11.9031C87.768 12.9717 87.6942 13.6003 87.2644 13.6003Z" fill="black"/>
<path d="M89.9557 9.37262L90.4153 10.6913L90.8954 9.37262H91.7015L90.8003 11.6613L91.8146 14.4264H90.8954L90.3344 12.775L89.7098 14.4264H88.906L89.9557 11.8349L89.0223 9.37262H89.9557Z" fill="black"/>
<path d="M55.3342 17.825V16.9536H53.0691V22.0081H53.9066V20.0144H55.0081V19.1445H53.9066V17.825H55.3342Z" fill="black"/>
<path fill-rule="evenodd" clip-rule="evenodd" d="M58.3647 19.4848C58.3647 20.4083 58.239 22.0827 56.9764 22.0827C55.7492 22.0827 55.5881 20.499 55.5881 19.4848C55.5881 18.5155 55.7335 16.879 56.9764 16.879C58.1927 16.879 58.3647 18.4319 58.3647 19.4848ZM56.4728 19.4848C56.4728 20.5676 56.553 21.182 56.9764 21.182C57.407 21.182 57.4824 20.5526 57.4824 19.4848C57.4824 18.424 57.4125 17.7797 56.9764 17.7797C56.553 17.7797 56.4728 18.3854 56.4728 19.4848Z" fill="black"/>
<path fill-rule="evenodd" clip-rule="evenodd" d="M61.3151 17.3862C61.0221 16.9532 60.6505 16.9532 60.2647 16.9532H59.0665V22.0078H59.9041V20.0148H60.3291L60.839 22.0078H61.7567L61.0527 19.8035L61.0592 19.7982C61.2484 19.645 61.5901 19.3682 61.5901 18.484C61.5901 18.0826 61.5163 17.6812 61.3151 17.3862ZM59.9041 19.1962V17.7726H60.2435C60.3865 17.7726 60.7715 17.7726 60.7715 18.4691C60.7715 18.8855 60.6387 19.1962 60.2788 19.1962H59.9041Z" fill="black"/>
<path d="M65.5289 18.4084L65.5259 18.3966C65.4771 18.2078 65.3668 17.7799 64.9891 17.7799C64.7079 17.7799 64.5884 18.0378 64.5884 18.242C64.5884 18.5862 64.8336 18.709 65.2323 18.9087L65.2476 18.9163L65.2575 18.9214C65.6869 19.1404 66.302 19.4541 66.302 20.4692C66.302 21.3336 65.8439 22.0829 64.9428 22.0829C64.6678 22.0829 64.2553 22.015 63.945 21.5521C63.7336 21.2263 63.6645 20.9156 63.6189 20.6971L64.3527 20.4235C64.3983 20.6514 64.5083 21.1822 64.9656 21.1822C65.2531 21.1822 65.4535 20.97 65.4535 20.6356C65.4535 20.2807 65.2146 20.1364 64.9263 20L64.917 19.9955C64.3971 19.7464 63.7745 19.4481 63.7745 18.4242C63.7745 17.6355 64.1563 16.8792 64.9954 16.8792C65.9443 16.8792 66.1472 17.716 66.2285 18.0508L66.2289 18.0527L65.5289 18.4084Z" fill="black"/>
<path fill-rule="evenodd" clip-rule="evenodd" d="M69.145 17.3397C68.8582 16.9532 68.4395 16.9532 68.0364 16.9532H66.9373V22.0078H67.7724V20.1442H68.0718C68.3075 20.1442 68.7773 20.1442 69.0649 19.8477C69.3619 19.5456 69.4656 19.0377 69.4656 18.5369C69.4656 18.1891 69.4082 17.704 69.145 17.3397ZM67.7724 19.2727V17.7726H68.0364C68.2211 17.7726 68.577 17.7726 68.577 18.5148C68.577 19.1891 68.3295 19.2727 68.0364 19.2727H67.7724Z" fill="black"/>
<path d="M72.3078 16.9536V17.825H70.8213V18.9923H71.9731V19.863H70.8213V21.1067H72.3078V22.0081H69.9845V16.9536H72.3078Z" fill="black"/>
<path d="M74.1377 22.0832C74.9761 22.0832 75.4113 21.2575 75.4734 20.2346L74.7003 20.1667L74.6981 20.1883C74.6685 20.4767 74.5961 21.1826 74.1542 21.1826C73.6561 21.1826 73.5823 20.416 73.5823 19.5681C73.5823 18.5453 73.6789 17.7802 74.1542 17.7802C74.6323 17.7802 74.6711 18.4899 74.6932 18.8941L74.694 18.9088L75.4577 18.8331L75.4568 18.8179C75.4386 18.5127 75.4076 17.9922 75.1882 17.5602C75.0161 17.2274 74.7294 16.8788 74.1487 16.8788C72.8704 16.8788 72.6984 18.5673 72.6984 19.4846C72.6984 20.636 72.9734 22.0832 74.1377 22.0832Z" fill="black"/>
<path d="M76.9167 16.9536H76.0792V22.0083H76.9167V16.9536Z" fill="black"/>
<path d="M80.0204 17.825V16.9536H77.7552V22.0081H78.5928V20.0144H79.6943V19.1445H78.5928V17.825H80.0204Z" fill="black"/>
<path d="M81.2498 16.9536H80.4122V22.0083H81.2498V16.9536Z" fill="black"/>
<path d="M83.3902 22.0832C84.2286 22.0832 84.663 21.2575 84.7267 20.2346L83.9536 20.1667L83.9502 20.1977C83.9187 20.4917 83.8447 21.1826 83.4075 21.1826C82.9094 21.1826 82.8348 20.416 82.8348 19.5681C82.8348 18.5453 82.9306 17.7802 83.4075 17.7802C83.8841 17.7802 83.9228 18.4898 83.9449 18.894L83.9457 18.9088L84.7102 18.8331L84.7095 18.8214C84.6913 18.5168 84.6602 17.9939 84.4399 17.5602C84.2671 17.2274 83.9819 16.8788 83.4012 16.8788C82.1229 16.8788 81.9501 18.5673 81.9501 19.4846C81.9501 20.636 82.2266 22.0832 83.3902 22.0832Z" fill="black"/>
<path d="M89.5482 20.2346C89.4854 21.2575 89.0493 22.0832 88.2126 22.0832C87.0458 22.0832 86.7716 20.636 86.7716 19.4846C86.7716 18.5673 86.9453 16.8788 88.2228 16.8788C88.8018 16.8788 89.0894 17.2274 89.263 17.5602C89.4823 17.9935 89.5121 18.5158 89.5294 18.8205L89.5301 18.8331L88.7688 18.9088L88.768 18.8944C88.7451 18.4903 88.705 17.7802 88.2283 17.7802C87.7529 17.7802 87.6547 18.5453 87.6547 19.5681C87.6547 20.416 87.7301 21.1826 88.2283 21.1826C88.672 21.1826 88.7431 20.4709 88.7717 20.1848L88.7735 20.1667L89.5482 20.2346Z" fill="black"/>
<path fill-rule="evenodd" clip-rule="evenodd" d="M91.4039 22.0827C92.6649 22.0827 92.7906 20.4083 92.7906 19.4848C92.7906 18.4319 92.6185 16.879 91.4039 16.879C90.1586 16.879 90.0148 18.5155 90.0148 19.4848C90.0148 20.499 90.175 22.0827 91.4039 22.0827ZM91.4039 21.182C90.9796 21.182 90.8987 20.5676 90.8987 19.4848C90.8987 18.3854 90.9796 17.7797 91.4039 17.7797C91.8383 17.7797 91.9067 18.424 91.9067 19.4848C91.9067 20.5526 91.832 21.182 91.4039 21.182Z" fill="black"/>
<path d="M94.3943 16.9536L95.3733 20.0901V16.9536H96.0293V22.0081H95.2766L94.1138 18.3487V22.0081H93.4594V16.9536H94.3943Z" fill="black"/>
<path d="M98.7831 17.9008V16.9536H96.4041V17.9008H97.1646V22.0081H98.0029V17.9008H98.7831Z" fill="black"/>
<path d="M101.522 16.9536V17.825H100.035V18.9923H101.188V19.863H100.035V21.1067H101.522V22.0081H99.1973V16.9536H101.522Z" fill="black"/>
<path d="M103.931 20.0901L102.952 16.9536H102.017V22.0081H102.67V18.3487L103.835 22.0081H104.586V16.9536H103.931V20.0901Z" fill="black"/>
<path d="M107.342 16.9536V17.9008H106.561V22.0081H105.725V17.9008H104.96V16.9536H107.342Z" fill="black"/>
<path d="M56.6255 27.6703L55.6449 24.5337H54.7115V29.5875H55.3652V25.9289L56.528 29.5875H57.2807V24.5337H56.6255V27.6703Z" fill="black"/>
<path d="M60.3515 24.5337V25.4044H58.9215V26.7238H60.0238V27.5945H58.9215V29.5875H58.0856V24.5337H60.3515Z" fill="black"/>
<path fill-rule="evenodd" clip-rule="evenodd" d="M61.9928 29.6632C63.2547 29.6632 63.3804 27.9889 63.3804 27.0653C63.3804 26.0117 63.2083 24.4588 61.9928 24.4588C60.7491 24.4588 60.6038 26.0952 60.6038 27.0653C60.6038 28.0796 60.7656 29.6632 61.9928 29.6632ZM61.9928 28.7617C61.5694 28.7617 61.4892 28.1482 61.4892 27.0653C61.4892 25.9659 61.5694 25.3602 61.9928 25.3602C62.4289 25.3602 62.4973 26.0046 62.4973 27.0653C62.4973 28.1332 62.4226 28.7617 61.9928 28.7617Z" fill="black"/>
<path fill-rule="evenodd" clip-rule="evenodd" d="M65.2803 24.5338C65.6661 24.5338 66.0385 24.5338 66.3308 24.9659C66.5319 25.2609 66.6058 25.6624 66.6058 26.0638C66.6058 26.9518 66.2618 27.2279 66.0724 27.38L66.0684 27.3832L66.7723 29.5876H65.8547L65.3447 27.5946H64.9205V29.5876H64.0822V24.5338H65.2803ZM64.9205 25.3524V26.7767H65.2945C65.6551 26.7767 65.7871 26.466 65.7871 26.0496C65.7871 25.3524 65.4021 25.3524 65.2583 25.3524H64.9205Z" fill="black"/>
<path d="M69.0985 27.6553L68.5596 24.5337H67.326V29.5875H68.0096V25.3524L68.7198 29.5875H69.3335L70.1136 25.3524V29.5875H70.8993V24.5337H69.7067L69.0985 27.6553Z" fill="black"/>
<path fill-rule="evenodd" clip-rule="evenodd" d="M73.2588 24.5335L74.3493 29.5873H73.4953L73.2989 28.5494H72.2264L72.0371 29.5873H71.2632L72.4111 24.5335H73.2588ZM73.1457 27.6779L72.7615 25.618L72.3891 27.6779H73.1457Z" fill="black"/>
<path d="M76.7371 25.4809V24.5337H74.3573V25.4809H75.1202V29.5875H75.9577V25.4809H76.7371Z" fill="black"/>
<path d="M77.99 24.5343H77.1525V29.5881H77.99V24.5343Z" fill="black"/>
<path fill-rule="evenodd" clip-rule="evenodd" d="M80.0788 29.6632C81.3391 29.6632 81.4671 27.9889 81.4671 27.0653C81.4671 26.0117 81.2935 24.4588 80.0788 24.4588C78.8335 24.4588 78.689 26.0952 78.689 27.0653C78.689 28.0796 78.8508 29.6632 80.0788 29.6632ZM80.0788 28.7617C79.6538 28.7617 79.5721 28.1482 79.5721 27.0653C79.5721 25.9659 79.6538 25.3602 80.0788 25.3602C80.5133 25.3602 80.5825 26.0046 80.5825 27.0653C80.5825 28.1332 80.5078 28.7617 80.0788 28.7617Z" fill="black"/>
<path d="M83.0694 24.5337L84.0491 27.6703V24.5337H84.7036V29.5875H83.9532L82.7881 25.9289V29.5875H82.1344V24.5337H83.0694Z" fill="black"/>
<path d="M53.0697 24.5343H53.9065V29.5881H53.0697V24.5343Z" fill="black"/>
<path d="M37.8268 25.8677C38.4051 26.0292 38.7965 26.1386 38.9218 26.725C39.0876 27.5184 38.9619 29.035 38.9619 29.035C38.9619 30.7267 37.6545 30.8931 35.3328 30.8876C30.9895 30.9483 30.9141 28.0445 30.8324 24.0443C30.7311 18.7405 31.2205 16.3935 35.6714 16.4218C38.7348 16.4447 38.9218 16.5985 39.2746 19.4472L39.2763 19.457C39.4471 20.4189 39.6339 21.471 42.0237 21.2698C43.7341 21.1949 44.0704 19.7729 44.0468 18.2508C44.0216 16.7381 43.9486 15.9029 42.2264 15.2956C41.1044 14.8776 39.0962 14.4037 35.2574 14.3461C34.9618 14.3686 34.6155 14.3736 34.2331 14.3791C31.1162 14.4242 25.6005 14.5041 25.6257 24.3669C25.8323 32.9098 29.459 33.0501 34.6163 33.1716C42.9806 33.3214 43.8362 31.1266 43.8362 31.1266C43.8362 31.1266 43.8315 27.8362 43.8362 27.3031C43.8519 26.2968 44.6981 25.8244 45.2104 25.6863C47.1573 25.1674 46.8053 24.012 45.197 23.9757C44.4602 23.939 42.1966 23.9682 40.651 23.9882C40.3377 23.9923 40.0539 23.9959 39.8182 23.9986H37.1988C35.4279 24.1011 35.8199 25.5255 37.4141 25.7463C37.5603 25.7932 37.6982 25.8317 37.8268 25.8677Z" fill="black"/>
<path fill-rule="evenodd" clip-rule="evenodd" d="M13.0192 28.7472C12.9547 30.5028 13.8402 30.6818 15.5247 30.9775C17.562 31.1258 17.4151 32.7575 16.2798 32.7954C15.7934 32.8098 14.2702 32.8043 12.4706 32.7978C11.3169 32.7937 10.0497 32.7891 8.86921 32.7891C8.54728 32.7891 8.23727 32.7895 7.94209 32.7899C6.87927 32.7913 6.00859 32.7925 5.46564 32.7733C4.26904 32.7284 4.06398 31.1857 5.83805 31.0382C5.95745 30.9893 6.09837 30.9539 6.24903 30.916C6.91722 30.7479 7.77696 30.5317 7.80068 28.8797V18.7532C7.73762 17.529 7.15768 17.3939 6.34626 17.2049C6.02541 17.1302 5.66837 17.0471 5.29278 16.8848C4.09541 16.4944 4.18262 15.2956 5.51356 15.2649C6.56866 15.2096 7.22665 15.2157 7.91355 15.2221C8.13815 15.2241 8.36584 15.2262 8.61151 15.2262C9.1946 15.2262 9.86721 15.2167 10.632 15.2058C11.6397 15.1915 12.8074 15.175 14.1411 15.175C14.4141 15.175 14.6812 15.1746 14.9424 15.1743C21.1784 15.1668 24.0997 15.1633 24.1751 19.6286C24.5752 25.8477 21.6317 25.824 16.1098 25.7795C15.6242 25.7756 15.1186 25.7715 14.5937 25.7715C14.472 25.7715 14.3439 25.7724 14.2117 25.7734C13.8198 25.7761 13.3913 25.7791 12.983 25.7597L13.0192 28.7472ZM13.0192 17.8982V23.7171C13.3059 23.7415 13.5951 23.7415 13.8858 23.7415C14.05 23.7415 14.2096 23.742 14.3644 23.7425C17.422 23.7519 18.6528 23.7557 18.5967 19.8612C18.383 17.7626 17.5384 17.1364 14.7217 17.1758C13.434 17.1758 13.0192 17.3075 13.0192 17.8982Z" fill="black"/>
</g>
<defs>
<clipPath id="clip0_880_112064">
<rect width="116.466" height="45.6868" fill="white" transform="translate(0.72998)"/>
</clipPath>
</defs>
</svg>
