<svg width="117" height="48" viewBox="0 0 117 48" fill="none" xmlns="http://www.w3.org/2000/svg">
<g clip-path="url(#clip0_880_111844)">
<path fill-rule="evenodd" clip-rule="evenodd" d="M19.5939 27.2755C19.5939 27.2755 19.165 26.673 18.6071 25.9277C17.6282 24.4978 15.6773 24.2399 15.6702 26.8654C15.6702 27.4522 15.7268 29.2811 15.7402 29.6099C15.8157 32.2941 16.6931 32.3377 18.526 32.4287C18.7902 32.4419 19.0743 32.456 19.3787 32.4791C21.2007 32.5746 21.4599 34.5912 18.692 34.48C18.6802 34.48 6.60663 34.4871 6.25543 34.4973C3.68704 34.4824 3.93296 32.5067 5.80916 32.4831C9.24651 32.207 9.29837 31.5556 9.41307 28.6675V18.6798C9.26931 15.8761 8.27306 14.8634 6.36307 14.7254C2.65229 14.5487 3.46783 12.2411 6.18157 12.327C6.48092 12.3452 18.9795 12.387 18.9795 12.387C20.1355 12.4127 21.1856 12.4086 22.1361 12.4049C27.7765 12.3831 29.912 12.3748 29.8777 18.6814C29.8314 22.9047 28.5476 24.0112 24.8399 24.0112C25.4968 24.9268 26.911 26.6879 28.4627 28.6028C30.807 31.5636 32.6586 32.0338 33.5049 32.2487C33.6198 32.2779 33.7162 32.3023 33.7928 32.3277C35.2879 32.7071 34.9988 34.4674 33.671 34.491L25.5903 34.48C24.2939 34.3699 21.7084 30.4519 20.3435 28.3835C20.0068 27.8733 19.7444 27.4757 19.5939 27.2755ZM19.6263 22.0815C22.4189 22.0339 22.9742 22.0244 23.0462 18.6175C23.1185 15.2017 22.9417 14.5369 17.1285 14.7191C16.2784 14.7475 15.8297 15.3272 15.8297 16.1245C15.8297 16.1245 15.8297 20.9543 15.8046 22.0955C16.0189 22.0955 16.3421 22.0964 16.7017 22.0974C17.5576 22.0998 18.6195 22.1027 18.9088 22.0955C19.163 22.0894 19.4019 22.0853 19.6263 22.0815Z" fill="black"/>
<path d="M84.1293 44.952V42.9969H83.1779V43.6302H83.5888L83.5885 43.6378C83.5806 43.8748 83.5647 44.3534 83.2203 44.3534C82.8251 44.3534 82.752 43.7935 82.752 43.1342C82.752 42.3818 82.8581 41.8865 83.1991 41.8865C83.5129 41.8865 83.5577 42.3114 83.5867 42.5862L83.5888 42.6057L84.1293 42.4867C84.0775 41.9598 83.9447 41.2335 83.1873 41.2335C82.2107 41.2335 82.1196 42.6404 82.1196 43.1823C82.1196 44.1933 82.4527 45.0072 83.1331 45.0072C83.5636 45.0072 83.7365 44.661 83.7986 44.5348L83.8748 44.952H84.1293Z" fill="black"/>
<path d="M14.608 44.3533H15.0597V44.9519H13.5512V44.3533H14.01V42.1899C13.8835 42.3611 13.7728 42.4912 13.5512 42.6505V41.9313C13.8733 41.701 14.0336 41.4636 14.1483 41.2554H14.608V44.3533Z" fill="black"/>
<path d="M3.45953 41.2879V43.381C3.45953 43.9126 3.45953 44.3534 3.84844 44.3534C4.03387 44.3534 4.1195 44.2375 4.1635 44.1121C4.21378 43.9686 4.21378 43.7801 4.21378 43.381V41.2879H4.71898V43.3471C4.71898 43.997 4.71898 44.5009 4.38663 44.7975C4.26014 44.9071 4.07864 45.0057 3.7958 45.0057C2.86477 45.0057 2.86084 44.1594 2.86084 43.381V41.2879H3.45953Z" fill="black"/>
<path d="M5.73596 42.2437V42.6136C5.81767 42.3865 5.92452 42.1838 6.24115 42.1838C6.31736 42.1838 6.54836 42.1838 6.68742 42.4693C6.76756 42.6389 6.76756 42.9039 6.76756 43.1712V44.952H6.20658V43.1712C6.20658 42.9307 6.19165 42.7706 6.01488 42.7706C5.76424 42.7706 5.76424 43.0356 5.76424 43.3645V44.952H5.20169V42.2437H5.73596Z" fill="black"/>
<path fill-rule="evenodd" clip-rule="evenodd" d="M8.71299 44.9515V41.2881H8.16066V42.4908C8.10802 42.3796 8.02473 42.2069 7.75367 42.2069C7.08585 42.2069 7.08585 43.3962 7.08585 43.6123C7.08585 44.151 7.18955 44.9901 7.72932 44.9901C8.04909 44.9901 8.1363 44.7046 8.19366 44.5067V44.9515H8.71299ZM7.91473 42.7054C8.16066 42.7054 8.16066 43.1391 8.16066 43.3812V43.8576C8.16066 44.0563 8.16066 44.4688 7.9116 44.4688C7.6696 44.4688 7.6696 44.0185 7.6696 43.4909C7.6696 43.0579 7.69711 42.7054 7.91473 42.7054Z" fill="black"/>
<path fill-rule="evenodd" clip-rule="evenodd" d="M9.64433 43.7219L9.64427 43.7304C9.6419 44.0978 9.6394 44.4869 9.91618 44.4869C10.1586 44.4869 10.1864 44.1936 10.2029 44.0192L10.7089 44.0634C10.6681 44.3157 10.5534 45.0074 9.90281 45.0074C9.2837 45.0074 9.06293 44.3536 9.06293 43.6335C9.06293 43.4569 9.07942 43.0294 9.21456 42.7005C9.35912 42.3535 9.62469 42.184 9.89889 42.184C10.2524 42.184 10.4701 42.449 10.5596 42.6785C10.7034 43.046 10.7089 43.3922 10.7089 43.7219H9.64433ZM10.1755 43.2873L10.1755 43.2852C10.1779 43.1354 10.1851 42.6824 9.91146 42.6824C9.66421 42.6824 9.65484 43.0764 9.65014 43.2739L9.64982 43.2873H10.1755Z" fill="black"/>
<path d="M11.5481 42.8968V42.2437H11.0532V44.952H11.6141V43.7801C11.6141 43.5742 11.6141 42.9488 12.0282 42.9488C12.0494 42.9488 12.0745 42.9488 12.1225 42.9591V42.2217C12.095 42.2106 12.0659 42.2043 12.025 42.2043C11.7011 42.2043 11.601 42.6576 11.5495 42.8906L11.5481 42.8968Z" fill="black"/>
<path d="M17.1796 41.2879H15.5556L15.5108 42.0071H16.6642L16.6529 42.0261C16.5105 42.2653 16.27 42.6694 16.0765 43.3644C15.8769 44.0892 15.8667 44.6768 15.8643 44.952H16.5157C16.5361 43.1823 16.9022 42.4204 17.1796 41.9038V41.2879Z" fill="black"/>
<path fill-rule="evenodd" clip-rule="evenodd" d="M19.5836 41.2879C19.8594 41.2879 20.1265 41.2879 20.3339 41.6033C20.4777 41.8155 20.5319 42.1065 20.5319 42.3991C20.5319 43.0371 20.2886 43.2371 20.1522 43.3492L20.1461 43.3542L20.6498 44.952H19.9953L19.63 43.508H19.3267V44.952H18.7272V41.2879H19.5836ZM19.3267 41.8825V42.9149H19.5922C19.8507 42.9149 19.9466 42.6893 19.9466 42.3865C19.9466 41.8825 19.67 41.8825 19.5671 41.8825H19.3267Z" fill="black"/>
<path fill-rule="evenodd" clip-rule="evenodd" d="M21.66 44.4869C21.3819 44.4869 21.385 44.0918 21.3897 43.7219H22.452C22.452 43.3922 22.4489 43.046 22.3035 42.6785C22.2139 42.449 21.9971 42.184 21.6435 42.184C21.3701 42.184 21.103 42.3535 20.9584 42.7005C20.8233 43.0294 20.8083 43.4569 20.8083 43.6335C20.8083 44.3536 21.0291 45.0074 21.6482 45.0074C22.2963 45.0074 22.4095 44.3211 22.4515 44.0663L22.452 44.0634L21.9468 44.0184C21.9311 44.1927 21.9012 44.4869 21.66 44.4869ZM21.6561 42.6824C21.9311 42.6824 21.9232 43.1398 21.9185 43.2873H21.3945C21.3968 43.0945 21.4019 42.6824 21.6561 42.6824Z" fill="black"/>
<path fill-rule="evenodd" clip-rule="evenodd" d="M24.3341 42.2439C24.3168 42.4765 24.3168 42.6287 24.3168 42.9355V45.8686H23.7645V44.6722C23.7087 44.7818 23.5932 44.99 23.3465 44.99C22.9686 44.99 22.7069 44.501 22.7069 43.6445C22.7069 43.2707 22.7273 42.2044 23.3913 42.2044C23.6788 42.2044 23.8022 42.4521 23.8705 42.5956C23.9444 42.4805 23.9742 42.4197 24.0276 42.2439H24.3341ZM23.7645 43.3227C23.7645 42.8929 23.7118 42.7052 23.5256 42.7052C23.326 42.7052 23.2899 42.8969 23.2899 43.5286C23.2899 44.1169 23.297 44.4687 23.5256 44.4687C23.7448 44.4687 23.7645 44.1169 23.7645 43.7218V43.3227Z" fill="black"/>
<path d="M25.3029 43.9859V42.2437H24.7411V44.0072C24.7411 44.5009 24.7411 45.0072 25.2573 45.0072C25.5858 45.0072 25.6777 44.8093 25.7782 44.5782V44.952H26.307V42.2437H25.7445V43.6271C25.7445 44.2099 25.7445 44.4244 25.4946 44.4244C25.3029 44.4244 25.3029 44.2556 25.3029 43.9859Z" fill="black"/>
<path d="M26.7396 41.2671H27.3084V42.0123H26.7396V41.2671Z" fill="black"/>
<path d="M27.3045 44.9518H26.7419V42.2435H27.3045V44.9518Z" fill="black"/>
<path d="M28.2308 42.8968V42.2437H27.7343V44.952H28.2968V43.7801C28.2968 43.5742 28.2968 42.9488 28.7109 42.9488C28.7297 42.9488 28.7557 42.9488 28.8044 42.9591V42.2217C28.7769 42.2106 28.7478 42.2043 28.7062 42.2043C28.3791 42.2043 28.2807 42.6641 28.2311 42.8955L28.2308 42.8968Z" fill="black"/>
<path fill-rule="evenodd" clip-rule="evenodd" d="M29.5075 43.7219C29.5028 44.0918 29.498 44.4869 29.7778 44.4869C30.0197 44.4869 30.0504 44.1927 30.0645 44.0184L30.5697 44.0634L30.5691 44.0672C30.5269 44.3227 30.414 45.0074 29.7652 45.0074C29.1469 45.0074 28.9245 44.3536 28.9245 43.6335C28.9245 43.4569 28.941 43.0294 29.0769 42.7005C29.2199 42.3535 29.487 42.184 29.7612 42.184C30.114 42.184 30.3309 42.449 30.4212 42.6785C30.565 43.046 30.5697 43.3922 30.5697 43.7219H29.5075ZM30.0355 43.2873C30.0402 43.1398 30.0504 42.6824 29.7738 42.6824C29.525 42.6824 29.5156 43.0764 29.5109 43.2739L29.5106 43.2873H30.0355Z" fill="black"/>
<path d="M31.5499 42.6825C31.755 42.6825 31.8131 42.9144 31.8461 43.0531L32.2476 42.8931C32.173 42.4459 31.9027 42.1833 31.5633 42.1833C31.2019 42.1833 30.8459 42.4632 30.8459 43.0461C30.8459 43.6297 31.2396 43.8087 31.4525 43.8962L31.4563 43.898C31.6544 43.9868 31.7754 44.0411 31.7754 44.2527C31.7754 44.4893 31.6073 44.5067 31.5499 44.5067C31.2969 44.5067 31.2466 44.2038 31.2317 44.1013L30.7839 44.1999C30.8067 44.4018 30.8774 45.0075 31.5413 45.0075C32.0983 45.0075 32.3097 44.5224 32.3097 44.1234C32.3097 43.5745 31.993 43.4246 31.7102 43.2921L31.6919 43.2832C31.4787 43.1797 31.3731 43.1285 31.3731 42.9207C31.3731 42.811 31.4195 42.6825 31.5499 42.6825Z" fill="black"/>
<path fill-rule="evenodd" clip-rule="evenodd" d="M34.6018 41.2877L35.3812 44.9518H34.7692L34.6309 44.2002H33.8633L33.7289 44.9518H33.1766L33.9945 41.2877H34.6018ZM34.5193 43.5677L34.2467 42.074L33.9796 43.5677H34.5193Z" fill="black"/>
<path d="M36.3417 42.7602C36.4722 42.7602 36.5429 42.8745 36.5641 43.2665L37.0866 43.2381C37.0756 43.0078 37.0591 42.7381 36.8705 42.4628C36.711 42.2318 36.5114 42.1837 36.3252 42.1837C35.6896 42.1837 35.4932 42.8714 35.4932 43.6001C35.4932 44.1782 35.6079 45.0055 36.2954 45.0055C36.9973 45.0055 37.0621 44.233 37.086 43.9471L37.0866 43.9408L36.5641 43.8967C36.5515 44.1782 36.5114 44.3982 36.3292 44.3982C36.0919 44.3982 36.0597 43.9692 36.0597 43.563C36.0597 42.9416 36.1736 42.7602 36.3417 42.7602Z" fill="black"/>
<path d="M38.3971 43.2665C38.3774 42.8745 38.3059 42.7602 38.1763 42.7602C38.0074 42.7602 37.8919 42.9416 37.8919 43.563C37.8919 43.9692 37.9257 44.3982 38.1629 44.3982C38.3444 44.3982 38.3837 44.1782 38.3971 43.8967L38.9211 43.9408L38.9207 43.9462C38.8968 44.2314 38.8318 45.0055 38.1299 45.0055C37.4417 45.0055 37.3278 44.1782 37.3278 43.6001C37.3278 42.8714 37.5234 42.1837 38.1574 42.1837C38.3444 42.1837 38.544 42.2318 38.7051 42.4628C38.8928 42.7381 38.9093 43.0078 38.9211 43.2381L38.3971 43.2665Z" fill="black"/>
<path fill-rule="evenodd" clip-rule="evenodd" d="M39.9777 45.007C40.5678 45.007 40.8003 44.4628 40.8003 43.5953C40.8003 42.7498 40.5795 42.1836 39.9793 42.1836C39.3767 42.1836 39.1559 42.7498 39.1559 43.5953C39.1559 44.4691 39.3947 45.007 39.9777 45.007ZM39.7381 43.5953C39.7381 42.9304 39.797 42.7112 39.9777 42.7112H39.9793C40.1537 42.7112 40.2181 42.8965 40.2181 43.5953C40.2181 44.3216 40.1451 44.4794 39.9793 44.4794C39.8119 44.4794 39.7381 44.3153 39.7381 43.5953Z" fill="black"/>
<path d="M41.15 42.2437H41.6826V42.6136C41.74 42.4567 41.8421 42.1838 42.1753 42.1838C42.5178 42.1838 42.5752 42.4527 42.609 42.6136C42.6718 42.4307 42.7771 42.1838 43.1047 42.1838C43.6217 42.1838 43.6217 42.6893 43.6217 43.1791V44.952H43.0607V43.2556C43.0607 42.9488 43.0607 42.7706 42.88 42.7706C42.6742 42.7706 42.6671 42.9859 42.6671 43.3755V44.952H42.1061V43.2383C42.1061 42.907 42.0967 42.7769 41.9294 42.7769C41.7259 42.7769 41.7117 42.9969 41.7117 43.3755V44.952H41.15V42.2437Z" fill="black"/>
<path fill-rule="evenodd" clip-rule="evenodd" d="M44.5506 42.6501V42.2439H44.0289V45.8686H44.5828V44.755C44.6433 44.8434 44.7463 44.99 44.967 44.99C45.6129 44.99 45.6529 43.9474 45.6529 43.561C45.6529 43.1067 45.5869 42.6824 45.3897 42.4143C45.2923 42.2818 45.1399 42.2045 45.0047 42.2045C44.7322 42.2045 44.6233 42.4718 44.5525 42.6454L44.5506 42.6501ZM44.8209 44.4687C44.5828 44.4687 44.5828 44.2377 44.5828 43.8473V43.3307C44.5828 43.0894 44.5828 42.7053 44.8366 42.7053C45.055 42.7053 45.0707 43.0846 45.0707 43.561C45.0707 44.1336 45.0503 44.4687 44.8209 44.4687Z" fill="black"/>
<path fill-rule="evenodd" clip-rule="evenodd" d="M45.9856 43.0293C46.0014 42.8778 46.0359 42.5529 46.3211 42.3321C46.4657 42.2217 46.6346 42.1838 46.8027 42.1838C47.0141 42.1838 47.2349 42.2564 47.3897 42.4693C47.5107 42.6341 47.5193 42.9417 47.5193 43.2706V44.3463C47.5193 44.8015 47.5315 44.8557 47.552 44.9473L47.5531 44.952H47.0314C47.0055 44.8432 47.0031 44.7817 47.0031 44.5348C46.93 44.7107 46.7973 45.0072 46.4461 45.0072C46.1734 45.0072 45.9173 44.7975 45.9173 44.2643C45.9173 43.5135 46.3549 43.3148 46.9568 43.2706V43.1665C46.9568 42.9307 46.9568 42.683 46.7572 42.683C46.5678 42.683 46.5317 42.8857 46.5152 43.1026L45.9856 43.0293ZM46.9568 43.6555C46.6346 43.7107 46.4979 43.8148 46.4979 44.1657C46.4979 44.3605 46.5513 44.5064 46.6865 44.5064C46.7572 44.5064 46.8193 44.4623 46.8719 44.3605C46.9481 44.2036 46.9568 44.0348 46.9568 43.7872V43.6555Z" fill="black"/>
<path d="M48.4882 42.6136V42.2437H47.9547V44.952H48.5165V43.3645C48.5165 43.0356 48.5165 42.7706 48.7663 42.7706C48.9431 42.7706 48.9596 42.9307 48.9596 43.1712V44.952H49.5214V43.1712C49.5214 42.9039 49.5214 42.6389 49.4381 42.4693C49.2998 42.1838 49.0704 42.1838 48.9918 42.1838C48.676 42.1838 48.5699 42.3865 48.4882 42.6136Z" fill="black"/>
<path d="M50.17 42.2437L50.4457 43.9031L50.7074 42.2437H51.1913L50.5824 45.0009L50.5818 45.0038C50.4682 45.5127 50.3789 45.9126 49.9303 45.9126C49.8253 45.9126 49.7638 45.8934 49.6957 45.8721L49.6891 45.87V45.2762C49.7426 45.2864 49.785 45.2904 49.8494 45.2904C50.071 45.2904 50.1165 45.2257 50.1857 44.9024L49.6066 42.2437H50.17Z" fill="black"/>
<path d="M51.9293 41.2671H51.3613V42.0123H51.9293V41.2671Z" fill="black"/>
<path d="M51.3636 44.9518H51.9262V42.2435H51.3636V44.9518Z" fill="black"/>
<path d="M52.8892 42.2437V42.6136C52.9709 42.3865 53.0762 42.1838 53.3928 42.1838C53.4714 42.1838 53.7008 42.1838 53.8399 42.4693C53.9224 42.6389 53.9224 42.9039 53.9224 43.1712V44.952H53.3614V43.1712C53.3614 42.9307 53.3441 42.7706 53.1673 42.7706C52.9175 42.7706 52.9175 43.0356 52.9175 43.3645V44.952H52.3557V42.2437H52.8892Z" fill="black"/>
<path fill-rule="evenodd" clip-rule="evenodd" d="M55.9163 42.2678C55.9689 42.2678 56.0059 42.2765 56.0389 42.2883V41.7993L56.0214 41.7943C55.9856 41.7838 55.9497 41.7733 55.8841 41.7733C55.5761 41.7733 55.5297 42.0288 55.5007 42.308C55.404 42.2497 55.2885 42.1834 55.067 42.1834C54.7181 42.1834 54.3135 42.3751 54.3135 43.0178C54.3135 43.476 54.4879 43.6062 54.6113 43.6922L54.6096 43.6934C54.4737 43.7999 54.2632 43.9648 54.2632 44.2939C54.2632 44.5813 54.4429 44.7035 54.5156 44.7529L54.5249 44.7592C54.3991 44.8192 54.198 44.928 54.198 45.264C54.198 45.9083 54.8533 45.9083 55.0261 45.9083C55.3545 45.9083 56.0137 45.8476 56.0137 45.0069C56.0137 44.7766 55.9603 44.5526 55.8047 44.4067C55.6609 44.2702 55.5227 44.26 55.0623 44.2276L55.0535 44.2267C54.843 44.2037 54.7268 44.191 54.7268 44.0463C54.7268 44.0242 54.7268 43.9201 54.858 43.8199L54.8721 43.8247C54.9386 43.8471 55.0099 43.8712 55.1251 43.8712C55.5093 43.8712 55.8542 43.5999 55.8542 43.0581C55.8542 42.9973 55.8542 42.7213 55.7026 42.5147C55.7395 42.2765 55.8503 42.2678 55.9163 42.2678ZM55.111 45.4343C54.8077 45.4343 54.6647 45.3547 54.6647 45.1614C54.6647 44.958 54.7755 44.8815 54.8423 44.8373C54.8679 44.8404 54.9254 44.8459 54.9918 44.8524C55.1123 44.864 55.2622 44.8786 55.3042 44.8862C55.3899 44.8917 55.5274 44.9414 55.5274 45.1512C55.5274 45.3547 55.404 45.4343 55.111 45.4343ZM55.0874 43.4626C54.9083 43.4626 54.8949 43.2111 54.8949 43.0462C54.8949 42.7331 54.9475 42.5912 55.096 42.5912C55.2092 42.5912 55.2712 42.6945 55.2712 43.0297C55.2712 43.3152 55.2359 43.4626 55.0874 43.4626Z" fill="black"/>
<path fill-rule="evenodd" clip-rule="evenodd" d="M58.1227 41.2879C58.4086 41.2879 58.708 41.2879 58.9154 41.5679C59.1024 41.8328 59.1432 42.1838 59.1432 42.4354C59.1432 42.7982 59.0702 43.1681 58.8573 43.3857C58.6514 43.6003 58.3136 43.6003 58.1462 43.6003H57.9333V44.952H57.3354V41.2879H58.1227ZM57.9333 41.8825V42.9701H58.1227C58.3324 42.9701 58.5084 42.9102 58.5084 42.4204C58.5084 41.8825 58.2539 41.8825 58.1227 41.8825H57.9333Z" fill="black"/>
<path fill-rule="evenodd" clip-rule="evenodd" d="M59.6147 42.3321C59.3287 42.5529 59.295 42.8778 59.28 43.0293L59.808 43.1026C59.8245 42.8857 59.8622 42.683 60.0508 42.683C60.2511 42.683 60.2511 42.9307 60.2511 43.1665V43.2706C59.6477 43.3148 59.2109 43.5135 59.2109 44.2643C59.2109 44.7975 59.4678 45.0072 59.7389 45.0072C60.0916 45.0072 60.2228 44.7107 60.2959 44.5348C60.2959 44.7817 60.2998 44.8432 60.3258 44.952H60.8459L60.8446 44.9461C60.8249 44.8552 60.8129 44.7995 60.8129 44.3463V43.2706C60.8129 42.9417 60.8042 42.6341 60.6825 42.4693C60.5293 42.2564 60.3085 42.1838 60.0956 42.1838C59.9274 42.1838 59.7585 42.2217 59.6147 42.3321ZM59.7915 44.1657C59.7915 43.8148 59.9274 43.7107 60.2511 43.6555V43.7872C60.2511 44.0348 60.2425 44.2036 60.1663 44.3605C60.1128 44.4623 60.0508 44.5064 59.9801 44.5064C59.8449 44.5064 59.7915 44.3605 59.7915 44.1657Z" fill="black"/>
<path d="M61.745 42.2437V42.8968C61.7937 42.6657 61.8919 42.2043 62.2211 42.2043C62.262 42.2043 62.2911 42.2106 62.3186 42.2217V42.9591C62.2699 42.9488 62.2455 42.9488 62.2235 42.9488C61.811 42.9488 61.811 43.5742 61.811 43.7801V44.952H61.2485V42.2437H61.745Z" fill="black"/>
<path fill-rule="evenodd" clip-rule="evenodd" d="M63.292 44.4869C63.0123 44.4869 63.0162 44.0918 63.0209 43.7219H64.0832C64.0832 43.3922 64.0792 43.046 63.9347 42.6785C63.8459 42.449 63.629 42.184 63.2739 42.184C63.0005 42.184 62.7334 42.3535 62.5896 42.7005C62.4544 43.0294 62.4387 43.4569 62.4387 43.6335C62.4387 44.3536 62.6595 45.0074 63.2794 45.0074C63.9299 45.0074 64.0423 44.3157 64.0832 44.0634L63.5788 44.0184C63.5622 44.1927 63.5332 44.4869 63.292 44.4869ZM63.288 42.6824C63.5622 42.6824 63.5544 43.1398 63.5497 43.2873H63.0248L63.025 43.2792C63.0289 43.0835 63.037 42.6824 63.288 42.6824Z" fill="black"/>
<path d="M64.9615 42.2437V42.6136C65.0447 42.3865 65.15 42.1838 65.4674 42.1838C65.5437 42.1838 65.7731 42.1838 65.9129 42.4693C65.9939 42.6389 65.9939 42.9039 65.9939 43.1712V44.952H65.4329V43.1712C65.4329 42.9307 65.4172 42.7706 65.2388 42.7706C64.9905 42.7706 64.9905 43.0356 64.9905 43.3645V44.952H64.4288V42.2437H64.9615Z" fill="black"/>
<path d="M67.033 42.2453V41.3865L66.5569 41.4488L66.5121 42.2453H66.2623V42.8376H66.4838V43.9126C66.4838 44.2604 66.4838 44.5348 66.582 44.7265C66.6975 44.945 66.9018 45.0073 67.0865 45.0073C67.2265 45.0073 67.3347 44.9786 67.4147 44.9575L67.4353 44.952V44.3747C67.033 44.4063 67.033 44.3408 67.033 43.8306V42.8376H67.407V42.2453H67.033Z" fill="black"/>
<path fill-rule="evenodd" clip-rule="evenodd" d="M70.2932 43.5953C70.2932 44.4628 70.0599 45.007 69.4706 45.007C68.8876 45.007 68.648 44.4691 68.648 43.5953C68.648 42.7498 68.8696 42.1836 69.473 42.1836C70.0717 42.1836 70.2932 42.7498 70.2932 43.5953ZM69.4706 42.7112C69.2876 42.7112 69.2302 42.9304 69.2302 43.5953C69.2302 44.3153 69.3056 44.4794 69.473 44.4794C69.6387 44.4794 69.711 44.3216 69.711 43.5953C69.711 42.8965 69.6466 42.7112 69.473 42.7112H69.4706Z" fill="black"/>
<path d="M71.1387 42.8968V42.2437H70.6437V44.952H71.2039V43.7801C71.2039 43.5742 71.2039 42.9488 71.618 42.9488C71.6384 42.9488 71.6635 42.9488 71.713 42.9591V42.2217C71.6848 42.2106 71.6557 42.2043 71.6148 42.2043C71.2872 42.2043 71.1874 42.6657 71.1387 42.8968Z" fill="black"/>
<path fill-rule="evenodd" clip-rule="evenodd" d="M73.9105 41.2877L74.6899 44.9518H74.0786L73.9411 44.2002H73.1727L73.0392 44.9518H72.486L73.3047 41.2877H73.9105ZM73.8288 43.5677L73.5561 42.074L73.289 43.5677H73.8288Z" fill="black"/>
<path fill-rule="evenodd" clip-rule="evenodd" d="M76.4267 44.9515V41.2881H75.8728V42.4908C75.8202 42.3796 75.7369 42.2069 75.4674 42.2069C74.7988 42.2069 74.7988 43.3962 74.7988 43.6123C74.7988 44.151 74.9017 44.9901 75.4422 44.9901C75.7628 44.9901 75.8477 44.7046 75.905 44.5067V44.9515H76.4267ZM75.6269 42.7054C75.8728 42.7054 75.8728 43.1391 75.8728 43.3812V43.8576C75.8728 44.0563 75.8728 44.4688 75.6222 44.4688C75.381 44.4688 75.381 44.0185 75.381 43.4909C75.381 43.0579 75.41 42.7054 75.6269 42.7054Z" fill="black"/>
<path d="M77.3942 42.2437V43.9859C77.3942 44.2556 77.3942 44.4244 77.5883 44.4244C77.8366 44.4244 77.8366 44.2099 77.8366 43.6271V42.2437H78.3991V44.952H77.8704V44.5782C77.7674 44.8093 77.6779 45.0072 77.3495 45.0072C76.8333 45.0072 76.8333 44.5009 76.8333 44.0072V42.2437H77.3942Z" fill="black"/>
<path d="M78.835 41.2876H79.396V44.9518H78.835V41.2876Z" fill="black"/>
<path d="M80.4625 41.3865V42.2453H80.8365V42.8376H80.4625V43.8306C80.4625 44.3408 80.4625 44.4063 80.8656 44.3747V44.952L80.8427 44.958C80.7624 44.9791 80.6554 45.0073 80.516 45.0073C80.3329 45.0073 80.127 44.945 80.0123 44.7265C79.9149 44.5348 79.9149 44.2604 79.9149 43.9126V42.8376H79.6918V42.2453H79.9416L79.9864 41.4488L80.4625 41.3865Z" fill="black"/>
<path d="M85.0938 42.2437V43.9859C85.0938 44.2556 85.0938 44.4244 85.287 44.4244C85.5369 44.4244 85.5369 44.2099 85.5369 43.6271V42.2437H86.0986V44.952H85.5707V44.5782C85.4677 44.8093 85.3766 45.0072 85.049 45.0072C84.5328 45.0072 84.5328 44.5009 84.5328 44.0072V42.2437H85.0938Z" fill="black"/>
<path fill-rule="evenodd" clip-rule="evenodd" d="M86.8751 42.3321C86.5883 42.5529 86.5537 42.8778 86.5396 43.0293L87.0676 43.1026C87.0841 42.8857 87.1202 42.683 87.3088 42.683C87.5099 42.683 87.5099 42.9307 87.5099 43.1665V43.2706C86.9073 43.3148 86.4681 43.5135 86.4681 44.2643C86.4681 44.7975 86.7266 45.0072 86.9976 45.0072C87.3504 45.0072 87.4824 44.7107 87.5562 44.5348C87.5562 44.7817 87.5586 44.8432 87.5838 44.952H88.1047L88.1032 44.9448C88.0844 44.8546 88.0724 44.7973 88.0724 44.3463V43.2706C88.0724 42.9417 88.0646 42.6341 87.942 42.4693C87.7896 42.2564 87.5657 42.1838 87.3551 42.1838C87.1862 42.1838 87.0181 42.2217 86.8751 42.3321ZM87.0511 44.1657C87.0511 43.8148 87.1862 43.7107 87.5099 43.6555V43.7872C87.5099 44.0348 87.502 44.2036 87.425 44.3605C87.3708 44.4623 87.3088 44.5064 87.2396 44.5064C87.1053 44.5064 87.0511 44.3605 87.0511 44.1657Z" fill="black"/>
<path d="M89.003 42.2437V42.8968C89.0517 42.6657 89.1515 42.2043 89.4791 42.2043C89.5199 42.2043 89.5498 42.2106 89.5773 42.2217V42.9591C89.5278 42.9488 89.5034 42.9488 89.4822 42.9488C89.0697 42.9488 89.0697 43.5742 89.0697 43.7801V44.952H88.508V42.2437H89.003Z" fill="black"/>
<path fill-rule="evenodd" clip-rule="evenodd" d="M91.3201 44.9515V41.2881H90.7677V42.4908C90.7151 42.3796 90.6318 42.2069 90.3607 42.2069C89.6929 42.2069 89.6929 43.3962 89.6929 43.6123C89.6929 44.151 89.7959 44.9901 90.3372 44.9901C90.6562 44.9901 90.7434 44.7046 90.8 44.5067V44.9515H91.3201ZM90.5218 42.7054C90.7677 42.7054 90.7677 43.1391 90.7677 43.3812V43.8576C90.7677 44.0563 90.7677 44.4688 90.5179 44.4688C90.2767 44.4688 90.2767 44.0185 90.2767 43.4909C90.2767 43.0579 90.3034 42.7054 90.5218 42.7054Z" fill="black"/>
<path d="M91.754 41.2671H92.322V42.0123H91.754V41.2671Z" fill="black"/>
<path d="M92.3189 44.9518H91.7555V42.2435H92.3189V44.9518Z" fill="black"/>
<path fill-rule="evenodd" clip-rule="evenodd" d="M92.7533 43.0238L92.7527 43.0293L93.2823 43.1026C93.2972 42.8857 93.3349 42.683 93.5235 42.683C93.7254 42.683 93.7254 42.9307 93.7254 43.1665V43.2706C93.1204 43.3148 92.6844 43.5135 92.6844 44.2643C92.6844 44.7975 92.9405 45.0072 93.2124 45.0072C93.5667 45.0072 93.6963 44.7107 93.771 44.5348C93.771 44.7817 93.7741 44.8432 93.7985 44.952H94.3186L94.3165 44.9414C94.2987 44.8531 94.2864 44.7916 94.2864 44.3463V43.2706C94.2864 42.9417 94.2785 42.6341 94.1552 42.4693C94.0043 42.2564 93.7828 42.1838 93.5698 42.1838C93.4009 42.1838 93.2328 42.2217 93.0882 42.3321C92.8048 42.5503 92.77 42.8702 92.7533 43.0238ZM93.265 44.1657C93.265 43.8148 93.4009 43.7107 93.7254 43.6555V43.7872C93.7254 44.0348 93.7168 44.2036 93.6398 44.3605C93.5848 44.4623 93.5235 44.5064 93.4551 44.5064C93.3192 44.5064 93.265 44.3605 93.265 44.1657Z" fill="black"/>
<path d="M95.2554 42.2437V42.6136C95.3371 42.3865 95.444 42.1838 95.7606 42.1838C95.8368 42.1838 96.0678 42.1838 96.2061 42.4693C96.2878 42.6389 96.2878 42.9039 96.2878 43.1712V44.952H95.726V43.1712C95.726 42.9307 95.7103 42.7706 95.5335 42.7706C95.2837 42.7706 95.2837 43.0356 95.2837 43.3645V44.952H94.7211V42.2437H95.2554Z" fill="black"/>
<path d="M104.079 43.4567C104.079 43.3092 104.195 43.1893 104.342 43.1893C104.488 43.1893 104.607 43.3092 104.607 43.4567C104.607 43.6026 104.488 43.7217 104.342 43.7217C104.195 43.7217 104.079 43.6026 104.079 43.4567Z" fill="black"/>
<path d="M104.706 41.9358L104.352 42.2899L103.996 41.9358C104.214 41.715 104.488 41.715 104.706 41.9358Z" fill="black"/>
<path d="M104.634 42.705C104.634 42.4329 104.854 42.2105 105.126 42.2105C105.4 42.2105 105.619 42.4329 105.619 42.705C105.619 42.9787 105.4 43.2003 105.126 43.2003C104.854 43.2003 104.634 42.9787 104.634 42.705Z" fill="black"/>
<path d="M103.572 42.2105C103.299 42.2105 103.079 42.4329 103.079 42.705C103.079 42.9787 103.299 43.2003 103.572 43.2003C103.844 43.2003 104.064 42.9787 104.064 42.705C104.064 42.4329 103.844 42.2105 103.572 42.2105Z" fill="black"/>
<path d="M103.108 44.2338C103.108 43.9594 103.328 43.7401 103.599 43.7401C103.871 43.7401 104.091 43.9594 104.091 44.2338C104.091 44.5051 103.871 44.7267 103.599 44.7267C103.328 44.7267 103.108 44.5051 103.108 44.2338Z" fill="black"/>
<path d="M105.085 43.7293C104.814 43.7293 104.594 43.9517 104.594 44.2246C104.594 44.4975 104.814 44.7183 105.085 44.7183C105.357 44.7183 105.579 44.4975 105.579 44.2246C105.579 43.9517 105.357 43.7293 105.085 43.7293Z" fill="black"/>
<path d="M104.342 44.6104L103.987 44.9622C104.206 45.183 104.478 45.183 104.698 44.9622L104.342 44.6104Z" fill="black"/>
<path d="M105.832 43.8148L105.479 43.4583L105.832 43.1026C106.051 43.3187 106.051 43.5955 105.832 43.8148Z" fill="black"/>
<path d="M103.186 43.4583L102.835 43.8148C102.616 43.5955 102.616 43.3187 102.835 43.1026L103.186 43.4583Z" fill="black"/>
<path fill-rule="evenodd" clip-rule="evenodd" d="M104.352 41.1866C101.575 41.1866 99.3266 42.2032 99.3266 43.4548C99.3266 44.7088 101.575 45.7246 104.352 45.7246C107.127 45.7246 109.377 44.7088 109.377 43.4548C109.377 42.2032 107.127 41.1866 104.352 41.1866ZM109.023 43.2955H108.098C108.037 42.7537 107.66 42.2679 107.08 41.8956C108.164 42.2213 108.902 42.7324 109.023 43.2955ZM107.756 43.2955H106.605C106.56 42.6575 106.256 42.092 105.792 41.7047C106.879 41.9918 107.654 42.5896 107.756 43.2955ZM104.352 45.387C103.29 45.387 102.426 44.5227 102.426 43.4548C102.426 42.3885 103.29 41.5233 104.352 41.5233C105.415 41.5233 106.277 42.3885 106.277 43.4548C106.277 44.5227 105.415 45.387 104.352 45.387ZM102.097 43.2955H100.946C101.047 42.5896 101.826 41.9918 102.91 41.7047C102.447 42.092 102.142 42.6575 102.097 43.2955ZM101.624 41.8956C101.043 42.2679 100.667 42.7537 100.604 43.2955H99.6825C99.8019 42.7324 100.54 42.2213 101.624 41.8956ZM99.6857 43.6338H100.605C100.676 44.1685 101.048 44.6496 101.624 45.0179C100.549 44.693 99.8161 44.1914 99.6857 43.6338ZM100.947 43.6338H102.099C102.147 44.2663 102.452 44.8255 102.91 45.2064C101.833 44.9217 101.061 44.3326 100.947 43.6338ZM106.605 43.6338H107.755C107.643 44.3326 106.867 44.9217 105.79 45.2064C106.251 44.8255 106.556 44.2663 106.605 43.6338ZM107.08 45.0156C107.654 44.6496 108.028 44.1685 108.096 43.6338H109.018C108.886 44.1914 108.151 44.693 107.08 45.0156Z" fill="black"/>
<path d="M45.7092 11.9438C45.6337 13.1686 45.1121 14.16 44.1072 14.16C42.7094 14.16 42.3795 12.4234 42.3795 11.044C42.3795 9.94693 42.5861 7.92163 44.1213 7.92163C44.8143 7.92163 45.1584 8.33884 45.3658 8.73869C45.6319 9.26111 45.6686 9.8901 45.6899 10.2548L45.6903 10.2624L44.7734 10.3539L44.7721 10.3303C44.7445 9.84572 44.6965 9.0029 44.1268 9.0029C43.5564 9.0029 43.4393 9.91853 43.4393 11.1441C43.4393 12.1623 43.5297 13.0772 44.1268 13.0772C44.651 13.0772 44.7395 12.2557 44.7777 11.9014L44.7821 11.861L45.7092 11.9438Z" fill="black"/>
<path d="M49.5501 14.0672H48.5452V11.59H47.4358V14.0672H46.4317V8.01105H47.4358V10.4543H48.5452V8.01105H49.5501V14.0672Z" fill="black"/>
<path d="M53.3397 9.0555V8.01129H50.5513V14.0675H53.3397V12.9862H51.5554V11.498H52.9389V10.4546H51.5554V9.0555H53.3397Z" fill="black"/>
<path d="M57.1368 11.9438C57.0614 13.1686 56.5374 14.16 55.5333 14.16C54.1355 14.16 53.8055 12.4234 53.8055 11.044C53.8055 9.94693 54.0114 7.92163 55.5474 7.92163C56.2419 7.92163 56.5861 8.33884 56.7935 8.73869C57.0565 9.25509 57.0939 9.87563 57.116 10.2421L57.1172 10.2624L56.2019 10.3539L56.2002 10.3255C56.171 9.84018 56.1207 9.0029 55.5537 9.0029C54.9825 9.0029 54.8646 9.91853 54.8646 11.1441C54.8646 12.1623 54.9542 13.0772 55.5537 13.0772C56.079 13.0772 56.1674 12.2449 56.2046 11.8945L56.2082 11.861L57.1368 11.9438Z" fill="black"/>
<path d="M58.8616 10.5366V8.01129H57.8567V14.0675H58.8616V12.017L59.2395 11.2803L60.0535 14.0675H61.0929L59.846 10.2377L60.9963 8.01129H59.9772L58.8616 10.5366Z" fill="black"/>
<path d="M65.8598 8.01129V9.14699H64.9233V14.0675H63.9184V9.14699H63.0015V8.01129H65.8598Z" fill="black"/>
<path d="M68.4673 14.0672H69.4722V8.01105H68.4673V10.4543H67.3595V8.01105H66.353V14.0672H67.3595V11.59H68.4673V14.0672Z" fill="black"/>
<path d="M71.4787 8.01117H70.4745V14.0673H71.4787V8.01117Z" fill="black"/>
<path d="M74.4509 9.75096L74.4518 9.75426L75.2916 9.32996L75.2894 9.32102C75.1898 8.91606 74.9454 7.92218 73.8122 7.92218C72.8057 7.92218 72.3445 8.82994 72.3445 9.77319C72.3445 10.9998 73.0931 11.3574 73.716 11.6551L73.7289 11.6613C74.073 11.8245 74.363 11.998 74.363 12.4239C74.363 12.8246 74.1225 13.0777 73.7768 13.0777C73.2261 13.0777 73.0957 12.442 73.0407 12.17L72.1591 12.4973C72.2141 12.7607 72.299 13.1313 72.552 13.5217C72.9236 14.0754 73.4202 14.1598 73.7493 14.1598C74.8297 14.1598 75.3812 13.2599 75.3812 12.2236C75.3812 11.0074 74.6395 10.6301 74.1236 10.3677L74.1147 10.3631L74.0926 10.352C73.6161 10.1134 73.3227 9.96643 73.3227 9.5563C73.3227 9.31024 73.4673 9.00345 73.8043 9.00345C74.2648 9.00345 74.3962 9.53126 74.4509 9.75096Z" fill="black"/>
<path fill-rule="evenodd" clip-rule="evenodd" d="M78.0283 8.01093H79.591C80.0443 8.01093 80.5605 8.01093 80.8441 8.53065C81.0138 8.83824 81.083 9.22864 81.083 9.60876C81.083 10.5757 80.648 10.7964 80.4322 10.9059L80.4285 10.9077L80.4452 10.9157C80.5923 10.9859 80.7323 11.0527 80.8913 11.28C81.0571 11.5173 81.2087 11.8793 81.2087 12.388C81.2087 12.9133 81.0358 13.5222 80.7051 13.7863C80.3554 14.0671 80.0042 14.0671 79.591 14.0671H78.0283V8.01093ZM78.9986 10.4542H79.3223C79.5981 10.4542 80.0592 10.4542 80.0592 9.70105C80.0592 8.99203 79.5981 8.99203 79.3977 8.99203H78.9986V10.4542ZM78.9986 13.0221H79.4943C79.9272 13.0221 80.1826 12.8242 80.1826 12.2232C80.1826 11.4353 79.7143 11.4353 79.4865 11.4353H78.9986V13.0221Z" fill="black"/>
<path fill-rule="evenodd" clip-rule="evenodd" d="M83.5312 14.1595C85.046 14.1595 85.1976 12.1508 85.1976 11.0443C85.1976 9.78162 84.991 7.92194 83.5312 7.92194C82.0384 7.92194 81.8655 9.88257 81.8655 11.0443C81.8655 12.2596 82.0588 14.1595 83.5312 14.1595ZM83.5312 13.0775C83.0213 13.0775 82.9254 12.3432 82.9254 11.0443C82.9254 9.72878 83.0213 9.0032 83.5312 9.0032C84.0544 9.0032 84.1385 9.77373 84.1385 11.0443C84.1385 12.3235 84.0482 13.0775 83.5312 13.0775Z" fill="black"/>
<path d="M86.7587 8.01129L87.3087 9.59258L87.8862 8.01129H88.851L87.7691 10.7551L88.9877 14.0675H87.8862L87.2113 12.0903L86.4625 14.0675H85.4985L86.7587 10.9633L85.6367 8.01129H86.7587Z" fill="black"/>
<path d="M45.2626 18.143V17.0988H42.5433V23.155H43.549V20.7661H44.8697V19.7219H43.549V18.143H45.2626Z" fill="black"/>
<path fill-rule="evenodd" clip-rule="evenodd" d="M48.8959 20.1293C48.8959 21.2382 48.745 23.2438 47.2303 23.2438C45.7571 23.2438 45.5638 21.3471 45.5638 20.1293C45.5638 18.9677 45.7359 17.0062 47.2303 17.0062C48.6893 17.0062 48.8959 18.8691 48.8959 20.1293ZM46.6245 20.1293C46.6245 21.4283 46.7219 22.1633 47.2303 22.1633C47.7464 22.1633 47.8352 21.4117 47.8352 20.1293C47.8352 18.8588 47.7535 18.0867 47.2303 18.0867C46.7219 18.0867 46.6245 18.8131 46.6245 20.1293Z" fill="black"/>
<path fill-rule="evenodd" clip-rule="evenodd" d="M52.4302 17.6154C52.0798 17.0988 51.632 17.0988 51.1716 17.0988H49.7322V23.155H50.7371V20.7661H51.247L51.8606 23.155H52.9605L52.1136 20.5122L52.1197 20.5073C52.3488 20.3241 52.761 19.9947 52.761 18.9301C52.761 18.4514 52.6706 17.9695 52.4302 17.6154ZM50.7371 19.7858V18.0791H51.1433C51.3153 18.0791 51.7781 18.0791 51.7781 18.9151C51.7781 19.4143 51.6186 19.7858 51.1849 19.7858H50.7371Z" fill="black"/>
<path d="M57.4788 18.8409C57.4252 18.6235 57.293 18.0869 56.8316 18.0869C56.4945 18.0869 56.3507 18.3976 56.3507 18.6405C56.3507 19.054 56.6467 19.202 57.126 19.4417L57.1419 19.4497L57.1525 19.4551C57.6691 19.7174 58.4084 20.0929 58.4084 21.3118C58.4084 22.3449 57.8577 23.244 56.7781 23.244C56.4474 23.244 55.9516 23.1628 55.58 22.6091C55.3254 22.2187 55.2413 21.848 55.1863 21.5831L56.0687 21.2565C56.1237 21.5286 56.2549 22.1635 56.8056 22.1635C57.1482 22.1635 57.3902 21.9096 57.3902 21.5105C57.3902 21.0854 57.1018 20.9119 56.7561 20.7471L56.7479 20.7431C56.1233 20.445 55.3733 20.087 55.3733 18.8582C55.3733 17.9142 55.8345 17.0064 56.841 17.0064C57.9793 17.0064 58.2216 18.0092 58.3188 18.4115L58.3196 18.415L57.4788 18.8409Z" fill="black"/>
<path fill-rule="evenodd" clip-rule="evenodd" d="M61.8143 17.5625C61.4702 17.0988 60.9689 17.0988 60.485 17.0988H59.1635V23.155H60.1691V20.9207H60.5282C60.8079 20.9207 61.3744 20.9207 61.7169 20.5658C62.076 20.203 62.1993 19.5949 62.1993 18.9956C62.1993 18.5784 62.1302 17.9971 61.8143 17.5625ZM60.1691 19.8757V18.0791H60.485C60.7073 18.0791 61.1324 18.0791 61.1324 18.968C61.1324 19.7771 60.8369 19.8757 60.485 19.8757H60.1691Z" fill="black"/>
<path d="M65.6052 17.0988V18.143H63.8217V19.5397H65.2053V20.5847H63.8217V22.0737H65.6052V23.155H62.8176V17.0988H65.6052Z" fill="black"/>
<path d="M67.7995 23.2443C68.8036 23.2443 69.3268 22.2553 69.4023 21.0289L68.4728 20.9469L68.4689 20.9836C68.4317 21.3364 68.3444 22.163 67.8191 22.163C67.2204 22.163 67.1309 21.2458 67.1309 20.2292C67.1309 19.0044 67.2487 18.0872 67.8191 18.0872C68.3842 18.0872 68.4353 18.9193 68.4652 19.4054L68.4673 19.439L69.3819 19.3499L69.381 19.3357C69.3597 18.9692 69.3234 18.3438 69.0589 17.8246C68.8515 17.4255 68.5082 17.0059 67.8128 17.0059C66.2768 17.0059 66.0718 19.032 66.0718 20.1291C66.0718 21.51 66.4025 23.2443 67.7995 23.2443Z" fill="black"/>
<path d="M71.1282 17.0991H70.1234V23.1552H71.1282V17.0991Z" fill="black"/>
<path d="M74.85 18.143V17.0988H72.1315V23.155H73.1364V20.7661H74.4579V19.7219H73.1364V18.143H74.85Z" fill="black"/>
<path d="M76.3224 17.0991H75.3167V23.1552H76.3224V17.0991Z" fill="black"/>
<path d="M78.8881 23.2443C79.893 23.2443 80.4155 22.2553 80.4925 21.0289L79.563 20.9469L79.5598 20.9777C79.5235 21.3271 79.4368 22.163 78.9086 22.163C78.3099 22.163 78.2203 21.2458 78.2203 20.2292C78.2203 19.0044 78.3382 18.0872 78.9086 18.0872C79.4802 18.0872 79.5274 18.9389 79.5542 19.4224L79.5552 19.439L80.4713 19.3499C80.4509 18.9853 80.4153 18.3502 80.1468 17.8246C79.9417 17.4255 79.5976 17.0059 78.903 17.0059C77.3663 17.0059 77.1612 19.032 77.1612 20.1291C77.1612 21.51 77.4912 23.2443 78.8881 23.2443Z" fill="black"/>
<path d="M86.27 21.0289C86.1946 22.2553 85.6697 23.2443 84.6664 23.2443C83.2687 23.2443 82.9379 21.51 82.9379 20.1291C82.9379 19.032 83.1446 17.0059 84.6806 17.0059C85.3735 17.0059 85.72 17.4255 85.9267 17.8246C86.1897 18.341 86.2271 18.9624 86.2491 19.3297L86.2504 19.3499L85.335 19.439L85.334 19.4208C85.3064 18.9371 85.2579 18.0872 84.6868 18.0872C84.1157 18.0872 83.9978 19.0044 83.9978 20.2292C83.9978 21.2458 84.0874 22.163 84.6868 22.163C85.2173 22.163 85.3035 21.3176 85.3388 20.9718L85.3413 20.9469L86.27 21.0289Z" fill="black"/>
<path fill-rule="evenodd" clip-rule="evenodd" d="M88.49 23.2438C90.0056 23.2438 90.1572 21.2382 90.1572 20.1293C90.1572 18.8691 89.9506 17.0062 88.49 17.0062C86.9972 17.0062 86.8259 18.9677 86.8259 20.1293C86.8259 21.3471 87.0184 23.2438 88.49 23.2438ZM88.49 22.1633C87.9809 22.1633 87.8858 21.4283 87.8858 20.1293C87.8858 18.8131 87.9809 18.0867 88.49 18.0867C89.0141 18.0867 89.0965 18.8588 89.0965 20.1293C89.0965 21.4117 89.0078 22.1633 88.49 22.1633Z" fill="black"/>
<path d="M92.0743 17.0988L93.2521 20.8568V17.0988H94.0362V23.155H93.135L91.7373 18.7692V23.155H90.9516V17.0988H92.0743Z" fill="black"/>
<path d="M97.3385 18.2321V17.0988H94.4818V18.2321H95.3963V23.155H96.4027V18.2321H97.3385Z" fill="black"/>
<path d="M100.62 17.0988V18.143H98.8367V19.5397H100.221V20.5847H98.8367V22.0737H100.62V23.155H97.8318V17.0988H100.62Z" fill="black"/>
<path d="M103.508 20.8568L102.33 17.0988H101.21V23.155H101.994V18.7692L103.393 23.155H104.293V17.0988H103.508V20.8568Z" fill="black"/>
<path d="M107.596 17.0988V18.2321H106.66V23.155H105.655V18.2321H104.739V17.0988H107.596Z" fill="black"/>
<path d="M42.5436 26.1852H43.5492V32.2414H42.5436V26.1852Z" fill="black"/>
<path d="M45.634 26.1853L46.8102 29.9433V26.1853H47.595V32.2415H46.6931L45.2969 27.8557V32.2415H44.512V26.1853H45.634Z" fill="black"/>
<path d="M51.2749 27.2303V26.1853H48.5565V32.2415H49.5621V29.8526H50.8837V28.8084H49.5621V27.2303H51.2749Z" fill="black"/>
<path fill-rule="evenodd" clip-rule="evenodd" d="M54.9082 29.216C54.9082 30.3249 54.7566 32.3313 53.241 32.3313C51.7687 32.3313 51.577 30.4345 51.577 29.216C51.577 28.0535 51.7482 26.0937 53.241 26.0937C54.7008 26.0937 54.9082 27.9557 54.9082 29.216ZM52.6369 29.216C52.6369 30.515 52.7327 31.2508 53.241 31.2508C53.7588 31.2508 53.8484 30.4984 53.8484 29.216C53.8484 27.9463 53.7643 27.175 53.241 27.175C52.7327 27.175 52.6369 27.9013 52.6369 29.216Z" fill="black"/>
<path fill-rule="evenodd" clip-rule="evenodd" d="M58.4433 26.7021C58.0928 26.1855 57.6442 26.1855 57.183 26.1855H55.7452V32.2417H56.7509V29.8528H57.2592L57.8729 32.2417H58.972L58.1259 29.5996L58.1329 29.594C58.3615 29.4107 58.774 29.0799 58.774 28.0183C58.774 27.538 58.6845 27.0577 58.4433 26.7021ZM56.7509 28.8717V27.1658H57.1555C57.3268 27.1658 57.7888 27.1658 57.7888 28.0018C57.7888 28.501 57.6324 28.8717 57.1972 28.8717H56.7509Z" fill="black"/>
<path d="M61.1121 26.1853L61.7587 29.9252L62.4878 26.1853H63.9193V32.2415H62.9773V27.1656L62.0415 32.2415H61.3038L60.4513 27.1656V32.2415H59.6318V26.1853H61.1121Z" fill="black"/>
<path fill-rule="evenodd" clip-rule="evenodd" d="M68.0552 32.241L66.7463 26.1856H65.728L64.3507 32.241H65.2794L65.508 30.9965H66.795L67.0283 32.241H68.0552ZM66.1484 27.4846L66.608 29.9539H65.6997L66.1484 27.4846Z" fill="black"/>
<path d="M70.9146 26.1853V27.3194H69.9781V32.2415H68.9748V27.3194H68.0587V26.1853H70.9146Z" fill="black"/>
<path d="M71.4095 26.1852H72.4152V32.2414H71.4095V26.1852Z" fill="black"/>
<path fill-rule="evenodd" clip-rule="evenodd" d="M76.5842 29.216C76.5842 30.3249 76.4317 32.3313 74.9185 32.3313C73.4454 32.3313 73.2529 30.4345 73.2529 29.216C73.2529 28.0535 73.4257 26.0937 74.9185 26.0937C76.3775 26.0937 76.5842 27.9557 76.5842 29.216ZM74.3128 29.216C74.3128 30.515 74.4086 31.2508 74.9185 31.2508C75.4363 31.2508 75.5235 30.4984 75.5235 29.216C75.5235 27.9463 75.4418 27.175 74.9185 27.175C74.4086 27.175 74.3128 27.9013 74.3128 29.216Z" fill="black"/>
<path d="M79.6791 29.9433L78.5014 26.1853H77.3802V32.2415H78.1643V27.8557L79.5636 32.2415H80.4624V26.1853H79.6791V29.9433Z" fill="black"/>
<path d="M4.34381 2.52374V3.60896H4.78615C5.21513 3.60896 5.3707 3.37393 5.3707 3.05531C5.3707 2.52374 4.915 2.52374 4.74608 2.52374H4.34381Z" fill="black"/>
<path d="M17.5236 2.52374V3.60896H17.9644C18.3926 3.60896 18.5489 3.37393 18.5489 3.05531C18.5489 2.52374 18.0932 2.52374 17.9235 2.52374H17.5236Z" fill="black"/>
<path d="M32.8059 5.08691H32.9764C33.3692 5.08691 33.9271 5.04591 33.9271 3.78798C33.9271 2.60498 33.3763 2.56476 32.9764 2.56476H32.8059V5.08691Z" fill="black"/>
<path fill-rule="evenodd" clip-rule="evenodd" d="M0.513611 47.7042H111.131V0H0.513611V47.7042ZM1.4085 7.3299H36.93V38.8806H1.4085V7.3299ZM97.7362 46.7484H1.40851V39.7434H97.7362V46.7484ZM110.174 46.7484H98.6233V39.7434H110.174V46.7484ZM110.174 38.864H37.8775V0.994522H110.174V38.864ZM4.7728 1.90227C5.2277 1.90227 5.66847 1.90227 6.01495 2.23036C6.25381 2.45514 6.34258 2.76035 6.34258 3.06635C6.34258 3.7367 5.94034 3.94679 5.71484 4.06457L5.70383 4.07033L6.53901 5.75177H5.45319L4.84901 4.23201H4.34381V5.75177H3.35307V1.90227H4.7728ZM9.83101 1.90227V2.56476H8.07344V3.4528H9.43738V4.11765H8.07344V5.06326H9.83101V5.75177H7.0827V1.90227H9.83101ZM12.2894 3.008L12.2884 3.00545C12.2336 2.86509 12.1028 2.53006 11.6507 2.53006C11.3175 2.53006 11.1769 2.72644 11.1769 2.88181C11.1769 3.1431 11.4664 3.23647 11.9363 3.38799L11.9563 3.39444L11.9786 3.40187C12.4867 3.57093 13.2063 3.81034 13.2063 4.57823C13.2063 5.23598 12.6618 5.80855 11.5972 5.80855C11.2704 5.80855 10.7825 5.7565 10.4148 5.40555C10.1641 5.15475 10.0816 4.91972 10.0282 4.75174L10.8964 4.5451C10.9514 4.71782 11.081 5.12004 11.6239 5.12004C11.9633 5.12004 12.2014 4.95915 12.2014 4.70679C12.2014 4.43469 11.9154 4.32428 11.576 4.22176L11.5721 4.22057C10.9554 4.03152 10.2121 3.8037 10.2121 3.02219C10.2121 2.42122 10.6662 1.8447 11.6561 1.8447C12.7852 1.8447 13.024 2.48511 13.1175 2.73906L12.2894 3.008ZM16.1518 1.90227V2.62233H15.2302V5.75177H14.2363V2.62233H13.3336V1.90227H16.1518ZM17.9518 1.90227C18.4059 1.90227 18.8475 1.90227 19.194 2.23036C19.4313 2.45514 19.5193 2.76035 19.5193 3.06635C19.5193 3.73884 19.116 3.94813 18.8894 4.0657L18.8805 4.07033L19.7157 5.75177H18.6306L18.0257 4.23201H17.5236V5.75177H16.5313V1.90227H17.9518ZM21.2517 5.75177H20.2586V1.90227H21.2517V5.75177ZM25.2579 4.39841C25.1817 5.1792 24.6663 5.80855 23.6732 5.80855C22.2974 5.80855 21.9706 4.70679 21.9706 3.82899C21.9706 3.13023 22.1741 1.8447 23.6889 1.8447C24.3748 1.8447 24.715 2.1097 24.9177 2.36365C25.1817 2.69725 25.217 3.09947 25.2367 3.33292L24.3339 3.39128L24.3327 3.37773C24.3051 3.06773 24.2573 2.53006 23.6951 2.53006C23.131 2.53006 23.0171 3.11368 23.0171 3.88972C23.0171 4.5388 23.1035 5.12004 23.6951 5.12004C24.2158 5.12004 24.3016 4.58767 24.3371 4.36729L24.3402 4.34795L25.2579 4.39841ZM28.1688 1.90227V2.62233H27.2472V5.75177H26.2549V2.62233H25.3514V1.90227H28.1688ZM31.2998 1.90227V2.56476H29.5414V3.4528H30.9053V4.11765H29.5414V5.06326H31.2998V5.75177H28.5499V1.90227H31.2998ZM31.816 1.90227H32.8813C33.5735 1.90227 34.9815 1.90622 34.9815 3.79903C34.9815 4.52066 34.7285 5.16815 34.2398 5.48363C33.8375 5.75177 33.3504 5.75177 33.0023 5.75177H31.816V1.90227Z" fill="black"/>
<path fill-rule="evenodd" clip-rule="evenodd" d="M113.648 46.1983H114.087V45.0059H114.396C114.749 45.0059 114.925 45.1384 114.99 45.4917C115.046 45.8553 115.113 46.1092 115.179 46.1983H115.641C115.597 46.1092 115.53 45.9452 115.464 45.5138C115.41 45.1037 115.245 44.8829 115.001 44.841V44.8174C115.299 44.7299 115.542 44.5067 115.542 44.1447C115.542 43.8797 115.454 43.6888 115.288 43.5697C115.123 43.4475 114.848 43.3584 114.43 43.3584C114.105 43.3584 113.886 43.3913 113.658 43.4254L113.648 43.427V46.1983ZM114.407 44.6636H114.087V43.7243C114.166 43.7125 114.266 43.7022 114.407 43.7022C114.902 43.7022 115.078 43.9443 115.078 44.1872C115.078 44.5311 114.772 44.6636 114.407 44.6636Z" fill="black"/>
<path fill-rule="evenodd" clip-rule="evenodd" d="M116.993 44.7504C116.993 43.3702 115.916 42.2645 114.561 42.2645H114.55C113.198 42.2645 112.097 43.3702 112.097 44.7504C112.097 46.1542 113.198 47.2481 114.55 47.2481C115.916 47.2481 116.993 46.1542 116.993 44.7504ZM112.569 44.7504C112.569 43.591 113.461 42.6501 114.55 42.6501H114.561C115.663 42.6501 116.542 43.591 116.542 44.7614C116.542 45.931 115.663 46.8719 114.561 46.8608C113.461 46.8608 112.569 45.931 112.569 44.7504Z" fill="black"/>
</g>
<defs>
<clipPath id="clip0_880_111844">
<rect width="116.479" height="47.7042" fill="white" transform="translate(0.513611)"/>
</clipPath>
</defs>
</svg>
