<svg width="117" height="40" viewBox="0 0 117 40" fill="none" xmlns="http://www.w3.org/2000/svg">
<g clip-path="url(#clip0_880_111733)">
<path d="M49.047 15.7903C48.9072 15.7935 48.7593 15.7969 48.6045 15.8003C47.2077 15.8966 47.1313 16.2425 47.0524 16.6001C46.9879 16.8923 46.9216 17.1924 46.1312 17.3705C44.2777 17.6157 44.2533 16.7873 44.236 16.1953C44.2334 16.1075 44.231 16.0248 44.2227 15.9517C44.2424 14.9043 44.3092 14.514 44.8937 14.081C45.721 13.428 47.4975 13.3388 49.4295 13.3388H52.5533C53.1842 13.3633 53.9416 13.5116 54.116 14.1922C54.2268 14.82 54.2268 15.3405 53.9652 15.8452C52.2304 19.6995 51.275 21.8754 49.9692 24.9473L49.9429 25.0191C49.7673 25.5007 49.6587 25.7984 49.0602 25.818H46.7597C46.0844 25.818 46.3553 25.2015 46.5289 24.8064L46.5429 24.7745C47.6035 22.5083 48.4929 20.5644 49.3268 18.742L49.3274 18.7406C49.791 17.7274 50.2374 16.7517 50.6866 15.779C50.3223 15.7611 49.7891 15.7733 49.047 15.7903Z" fill="black"/>
<path d="M28.9941 13.9628C29.7429 14.3978 30.061 14.5825 30.0501 16.0501C30.0501 16.113 30.0505 16.1757 30.0508 16.2378C30.0564 17.1383 30.0613 17.9298 28.8802 17.9925L28.8769 17.9926C28.0985 18.0131 27.5668 18.0271 27.2067 17.3419C27.1378 17.056 27.0849 16.8091 27.0388 16.5942C26.825 15.5973 26.759 15.2897 25.9433 14.9822C24.9581 14.7495 22.9098 14.7874 22.3024 15.8876C21.3353 17.2331 21.7878 21.9004 21.9222 22.3428C22.1799 23.2664 22.4847 23.6994 23.0999 23.962C24.1936 24.4368 26.8052 24.3106 28.0293 23.3642C29.4459 22.3744 30.0846 22.984 30.076 23.3429C30.076 24.8658 28.7034 25.3461 28.7042 25.3445C26.6787 26.0882 22.9726 26.0938 21.2434 25.712C19.2604 25.1347 18.941 24.2787 18.7324 23.7197C18.6954 23.6206 18.6618 23.5305 18.6231 23.4533C17.8539 21.5589 18.0346 17.7828 18.9327 15.9349C19.8331 14.2874 20.9534 13.4246 23.5305 13.3544C26.4406 13.3197 27.6537 13.4041 28.9745 13.9514L28.9941 13.9628Z" fill="black"/>
<path d="M34.5793 18.5616H32.3692C31.6306 18.6216 31.215 18.9938 31.2315 19.8693C31.2441 20.557 31.6306 20.9135 32.366 20.9269L34.5793 20.9379C35.3273 20.9379 35.5598 20.1201 35.5708 19.8693C35.5912 19.37 35.3932 18.5703 34.5793 18.5616Z" fill="black"/>
<path d="M36.766 14.5128C36.9567 14.4471 37.1345 14.3854 37.3016 14.3274C38.4323 13.9349 39.0681 13.7142 39.8561 13.6042L40.111 13.5984C40.6849 13.5852 41.3772 13.5693 41.7755 13.5829C41.9766 13.5829 41.9782 13.732 41.9703 13.8732C41.9596 14.1459 41.9622 14.467 41.9657 14.9014C41.9679 15.1666 41.9703 15.474 41.9703 15.8385V23.2205C41.9601 24.1945 42.2155 24.5738 43.1332 24.5872H43.2879C44.1113 24.5975 44.1019 25.7261 43.3799 25.734C43.0556 25.734 42.6359 25.7325 42.1596 25.7308C41.5351 25.7286 40.8129 25.7261 40.0816 25.7261H37.3089C36.5617 25.7497 36.4148 24.648 37.3435 24.5715H37.6287L37.6441 24.569C38.2174 24.4769 38.4964 24.4321 38.5306 23.2205L38.5644 16.7723C38.561 16.6952 38.563 16.6167 38.5649 16.5395C38.5754 16.1159 38.5849 15.7325 37.7057 15.8346C36.1759 16.1587 35.9072 14.8558 36.766 14.5128Z" fill="black"/>
<path d="M13.9775 16.2559C13.9775 16.2559 13.9712 21.0116 13.9705 21.0116C14.0137 21.342 13.8887 21.0999 13.8887 21.0999L8.20277 13.7558C7.98663 13.5017 7.20292 13.5037 6.49948 13.5055C6.33608 13.5059 6.17697 13.5063 6.03036 13.5034C5.89282 13.5033 5.75638 13.5025 5.6184 13.5016C5.05581 13.4982 4.46715 13.4946 3.67488 13.5358C2.74071 13.5579 2.72578 14.5169 3.32997 14.6888C3.54004 14.7494 3.73354 14.7874 3.90848 14.8217C4.54419 14.9464 4.93488 15.0231 4.9854 15.9625V23.0866C4.99876 24.5259 3.83123 24.574 3.82887 24.574C2.63385 24.7522 2.62757 25.787 3.60889 25.8225C3.60889 25.8225 8.49033 25.8185 8.49033 25.8169C9.27523 25.7925 9.70891 24.8019 8.26876 24.6032C7.22538 24.4588 6.97868 24.227 7.01953 22.9903L7.00617 17.7646C6.96925 17.6242 7.03446 17.6518 7.0816 17.7559C7.08081 17.7559 12.8171 25.3619 12.8171 25.3619C13.0936 25.6647 13.3498 25.8422 13.7984 25.8185C13.7984 25.8225 15.3367 25.8225 15.343 25.8225C16.1594 25.8225 16.0604 24.6268 16.0604 24.6268L16.0242 16.2559C16.0441 15.0507 16.761 14.8675 17.1284 14.7736C17.196 14.7564 17.2517 14.7421 17.2892 14.7251C18.3797 14.3197 18.0811 13.5657 17.2412 13.5358C16.9697 13.5261 15.7205 13.5304 14.5807 13.5343C13.676 13.5374 12.8399 13.5403 12.6167 13.5358C11.7768 13.5657 11.5458 14.5563 12.8069 14.7645C12.8719 14.7872 12.944 14.8045 13.0195 14.8226C13.437 14.9226 13.9589 15.0476 13.9775 16.2559Z" fill="black"/>
<path d="M18.6696 35.1L17.7354 32.8231H16.8421V36.4873H17.4667V33.8366L18.5761 36.4873H19.2934V32.8231H18.6696V35.1Z" fill="black"/>
<path fill-rule="evenodd" clip-rule="evenodd" d="M22.0004 35.1313C22.0004 35.9988 21.6892 36.5414 20.9012 36.5414C20.1249 36.5414 19.8059 36.0043 19.8059 35.1313C19.8059 34.2874 20.1006 33.7195 20.9059 33.7195C21.7041 33.7195 22.0004 34.2874 22.0004 35.1313ZM20.9012 34.2464C20.66 34.2464 20.5838 34.4648 20.5838 35.1313C20.5838 35.8513 20.6828 36.0161 20.9059 36.0161C21.1243 36.0161 21.2233 35.8576 21.2233 35.1313C21.2233 34.4349 21.1361 34.2464 20.9059 34.2464H20.9012Z" fill="black"/>
<path fill-rule="evenodd" clip-rule="evenodd" d="M25.1822 36.5418C26.3866 36.5418 26.5076 35.3304 26.5076 34.6592C26.5076 33.8942 26.3434 32.7696 25.1822 32.7696C23.9966 32.7696 23.8599 33.9557 23.8599 34.6592C23.8599 35.3966 24.0139 36.5418 25.1822 36.5418ZM25.1822 35.8904C24.7776 35.8904 24.7021 35.4455 24.7021 34.6592C24.7021 33.8635 24.7776 33.425 25.1822 33.425C25.5978 33.425 25.6646 33.8887 25.6646 34.6592C25.6646 35.4321 25.5939 35.8904 25.1822 35.8904Z" fill="black"/>
<path d="M27.7536 33.7797V34.1488C27.8636 33.9225 28.0042 33.7198 28.4261 33.7198C28.5306 33.7198 28.8378 33.7198 29.0232 34.0053C29.1332 34.1741 29.1332 34.4414 29.1332 34.708V36.488H28.3845V34.708C28.3845 34.4666 28.3601 34.3065 28.1268 34.3065C27.7929 34.3065 27.7929 34.5715 27.7929 34.8996V36.488H27.0425V33.7797H27.7536Z" fill="black"/>
<path fill-rule="evenodd" clip-rule="evenodd" d="M30.3588 35.2633L30.3588 35.2602H31.7738C31.7738 34.9282 31.7691 34.5827 31.5782 34.2152C31.4572 33.9849 31.1673 33.7199 30.6967 33.7199C30.3297 33.7199 29.9746 33.8887 29.7821 34.2373C29.6022 34.5654 29.581 34.9944 29.581 35.1695C29.581 35.8904 29.8764 36.5418 30.7006 36.5418C31.5703 36.5418 31.7212 35.8517 31.7738 35.5993L31.1029 35.5544C31.0793 35.7288 31.0395 36.0229 30.7179 36.0229C30.3457 36.0229 30.3525 35.6292 30.3588 35.2633ZM30.7124 34.2184C31.0793 34.2184 31.0683 34.6742 31.0628 34.8233H30.3627L30.3629 34.8169C30.3676 34.6226 30.3775 34.2184 30.7124 34.2184Z" fill="black"/>
<path d="M35.3196 35.89H35.9199V36.4878H33.9062V35.89H34.5182V33.7259C34.3517 33.897 34.2032 34.0271 33.9062 34.1872V33.4672C34.3391 33.2361 34.5528 32.9987 34.7052 32.7913H35.3196V35.89Z" fill="black"/>
<path d="M38.4963 32.8231H36.3302L36.2712 33.5432H37.8073L37.7863 33.5698C37.5969 33.8099 37.2791 34.2128 37.0247 34.8997C36.7576 35.6269 36.745 36.2144 36.7403 36.4873H37.6093C37.6391 34.7183 38.1247 33.9565 38.4963 33.4391V32.8231Z" fill="black"/>
<path fill-rule="evenodd" clip-rule="evenodd" d="M40.1315 34.5652L40.132 34.5616C40.1542 34.4064 40.1997 34.0879 40.5801 33.8688C40.7695 33.76 40.995 33.7198 41.2181 33.7198C41.5041 33.7198 41.7995 33.7931 42.0022 34.0053C42.168 34.1701 42.1767 34.4777 42.1767 34.8097V35.8847C42.1767 36.3358 42.1932 36.3912 42.2205 36.4823L42.2222 36.488H41.5261C41.4923 36.3784 41.4884 36.3169 41.4884 36.07C41.3878 36.2459 41.215 36.5416 40.7444 36.5416C40.3814 36.5416 40.038 36.3342 40.038 35.8003C40.038 35.0471 40.6218 34.8507 41.4279 34.8097V34.7017C41.4279 34.4667 41.4279 34.219 41.16 34.219C40.907 34.219 40.8591 34.4217 40.8363 34.6386L40.1315 34.5652ZM41.4279 35.1914C40.995 35.2474 40.8135 35.3515 40.8135 35.7033C40.8135 35.8941 40.8873 36.044 41.0657 36.044C41.16 36.044 41.2417 35.9982 41.3124 35.8941C41.4153 35.7404 41.4279 35.5692 41.4279 35.3239V35.1914Z" fill="black"/>
<path d="M43.4895 34.1488V33.7797H42.7777V36.488H43.528V34.8996C43.528 34.5715 43.528 34.3065 43.8619 34.3065C44.0961 34.3065 44.1189 34.4666 44.1189 34.708V36.488H44.8684V34.708C44.8684 34.4414 44.8684 34.1741 44.7584 34.0053C44.5738 33.7198 44.2658 33.7198 44.1629 33.7198C43.7417 33.7198 43.5987 33.9225 43.4895 34.1488Z" fill="black"/>
<path fill-rule="evenodd" clip-rule="evenodd" d="M47.4821 32.8234V36.4875H46.7875V36.0443C46.7105 36.2399 46.5958 36.5254 46.1707 36.5254C45.4479 36.5254 45.3104 35.6862 45.3104 35.1492C45.3104 34.9323 45.3104 33.7406 46.2022 33.7406C46.5597 33.7406 46.6712 33.9142 46.7412 34.0233L46.7435 34.0269V32.8234H47.4821ZM46.7435 34.9157C46.7435 34.6752 46.7435 34.2406 46.4159 34.2406C46.1252 34.2406 46.0875 34.5939 46.0875 35.0277C46.0875 35.5545 46.0875 36.0049 46.4104 36.0049C46.7435 36.0049 46.7435 35.5924 46.7435 35.396V34.9157Z" fill="black"/>
<path d="M50.385 34.9155V32.8231H49.5875V34.9155C49.5875 35.6978 49.593 36.5417 50.8352 36.5417C51.2139 36.5417 51.4535 36.4455 51.6224 36.3343C52.0656 36.037 52.0656 35.533 52.0656 34.8855V32.8231H51.3922V34.9155C51.3922 35.3161 51.3922 35.5046 51.327 35.6482C51.2665 35.7736 51.1518 35.8903 50.9059 35.8903C50.385 35.8903 50.385 35.4494 50.385 34.9155Z" fill="black"/>
<path d="M53.4433 33.7797V34.1488C53.5533 33.9225 53.6947 33.7198 54.1159 33.7198C54.2204 33.7198 54.5268 33.7198 54.713 34.0053C54.8222 34.1741 54.8222 34.4414 54.8222 34.708V36.488H54.0742V34.708C54.0742 34.4666 54.0499 34.3065 53.8165 34.3065C53.4826 34.3065 53.4826 34.5715 53.4826 34.8996V36.488H52.7331V33.7797H53.4433Z" fill="black"/>
<path fill-rule="evenodd" clip-rule="evenodd" d="M57.4366 36.4875V32.8234H56.6981V34.0269L56.6943 34.0211C56.6227 33.9119 56.5103 33.7406 56.1568 33.7406C55.2642 33.7406 55.2642 34.9323 55.2642 35.1492C55.2642 35.6862 55.4017 36.5254 56.1238 36.5254C56.5512 36.5254 56.6659 36.2399 56.7429 36.0443V36.4875H57.4366ZM56.3697 34.2406C56.6981 34.2406 56.6981 34.6752 56.6981 34.9157V35.396C56.6981 35.5924 56.6981 36.0049 56.365 36.0049C56.0428 36.0049 56.0428 35.5545 56.0428 35.0277C56.0428 34.5939 56.0806 34.2406 56.3697 34.2406Z" fill="black"/>
<path fill-rule="evenodd" clip-rule="evenodd" d="M58.7002 35.2602L58.7001 35.2683C58.6954 35.6327 58.6903 36.0229 59.0592 36.0229C59.3816 36.0229 59.4211 35.731 59.4447 35.5564L59.445 35.5544L60.1175 35.5993L60.1165 35.6042C60.0599 35.8604 59.9093 36.5418 59.0451 36.5418C58.2185 36.5418 57.9231 35.8904 57.9231 35.1695C57.9231 34.9944 57.9451 34.5654 58.1258 34.2373C58.316 33.8887 58.6719 33.7199 59.0396 33.7199C59.5094 33.7199 59.7993 33.9849 59.9211 34.2152C60.1113 34.5827 60.1175 34.9282 60.1175 35.2602H58.7002ZM59.4057 34.8233C59.4112 34.6742 59.4214 34.2184 59.0553 34.2184C58.7188 34.2184 58.7104 34.6283 58.7065 34.821L58.7065 34.8233H59.4057Z" fill="black"/>
<path d="M61.2602 34.4351V33.7797H60.597V36.488H61.3474V35.316C61.3474 35.1102 61.3474 34.484 61.9005 34.484C61.9256 34.484 61.9586 34.484 62.0262 34.4943V33.76C61.9869 33.7474 61.9484 33.7403 61.8942 33.7403C61.4608 33.7403 61.3295 34.1951 61.2621 34.4283L61.2602 34.4351Z" fill="black"/>
<path fill-rule="evenodd" clip-rule="evenodd" d="M65.0017 32.826L66.0404 36.4878H65.2249L65.0387 35.7362H64.0157L63.835 36.4878H63.0965L64.1893 32.826H65.0017ZM64.8917 35.1037L64.5248 33.6115L64.1697 35.1037H64.8917Z" fill="black"/>
<path fill-rule="evenodd" clip-rule="evenodd" d="M68.3755 36.4875V32.8234H67.6378V34.0269L67.6336 34.0205C67.562 33.9113 67.4501 33.7406 67.0941 33.7406C66.2031 33.7406 66.2031 34.9323 66.2031 35.1492C66.2031 35.6862 66.3414 36.5254 67.0611 36.5254C67.4901 36.5254 67.604 36.2399 67.6802 36.0443V36.4875H68.3755ZM67.3093 34.2406C67.6378 34.2406 67.6378 34.6752 67.6378 34.9157V35.396C67.6378 35.5924 67.6378 36.0049 67.3038 36.0049C66.9801 36.0049 66.9801 35.5545 66.9801 35.0277C66.9801 34.5939 67.0179 34.2406 67.3093 34.2406Z" fill="black"/>
<path d="M68.9759 33.7797H69.6877V34.1488C69.7639 33.9934 69.9022 33.7198 70.3445 33.7198C70.7999 33.7198 70.8787 33.9879 70.9251 34.146L70.9259 34.1488C71.0069 33.9651 71.1491 33.7198 71.5875 33.7198C72.2742 33.7198 72.2742 34.2253 72.2742 34.7135V36.488H71.5262V34.79C71.5262 34.484 71.5262 34.3065 71.2858 34.3065C71.0124 34.3065 71.0006 34.5219 71.0006 34.9115V36.488H70.251V34.7742C70.251 34.443 70.24 34.3136 70.0169 34.3136C69.749 34.3136 69.7254 34.5297 69.7254 34.9115V36.488H68.9759V33.7797Z" fill="black"/>
<path d="M73.592 32.8028H72.833V33.5512H73.592V32.8028Z" fill="black"/>
<path d="M72.8393 36.4882H73.588V33.78H72.8393V36.4882Z" fill="black"/>
<path d="M75.0273 32.9217V33.7814H75.5247V34.3729H75.0273V35.3666C75.0273 35.8769 75.0273 35.9431 75.5632 35.91V36.4873C75.4524 36.5117 75.3 36.5417 75.0981 36.5417C74.8506 36.5417 74.5779 36.4834 74.4239 36.2633C74.2927 36.0701 74.2927 35.7964 74.2927 35.4494V34.3729H73.9989V33.7814H74.3312L74.3917 32.984L75.0273 32.9217Z" fill="black"/>
<path d="M76.7498 33.7814V32.9217L76.1158 32.984L76.0545 33.7814H75.7198V34.3729H76.0152V35.4494C76.0152 35.7964 76.0152 36.0701 76.1472 36.2633C76.3012 36.4834 76.5738 36.5417 76.8205 36.5417C77.0224 36.5417 77.1756 36.5117 77.2848 36.4873V35.91C76.7498 35.9431 76.7498 35.8769 76.7498 35.3666V34.3729H77.2471V33.7814H76.7498Z" fill="black"/>
<path fill-rule="evenodd" clip-rule="evenodd" d="M78.2908 35.2602C78.2853 35.6269 78.2798 36.0229 78.6522 36.0229C78.9752 36.0229 79.0129 35.7287 79.0349 35.5544L79.7082 35.5993L79.7077 35.6016C79.6523 35.8559 79.5029 36.5418 78.6349 36.5418C77.81 36.5418 77.5146 35.8904 77.5146 35.1695C77.5146 34.9944 77.5366 34.5654 77.7165 34.2373C77.909 33.8887 78.2641 33.7199 78.6295 33.7199C79.1001 33.7199 79.3908 33.9849 79.5102 34.2152C79.7035 34.5827 79.7082 34.9282 79.7082 35.2602H78.2908ZM78.9956 34.8233C79.0042 34.6742 79.0129 34.2184 78.6467 34.2184C78.3177 34.2184 78.3039 34.6085 78.2969 34.8064L78.2963 34.8233H78.9956Z" fill="black"/>
<path fill-rule="evenodd" clip-rule="evenodd" d="M82.2408 36.4875V32.8234H81.5015V34.0269L81.4981 34.0216C81.4272 33.9124 81.3158 33.7406 80.9602 33.7406C80.0684 33.7406 80.0684 34.9323 80.0684 35.1492C80.0684 35.6862 80.2059 36.5254 80.928 36.5254C81.3538 36.5254 81.4693 36.2399 81.5447 36.0443V36.4875H82.2408ZM81.1747 34.2406C81.5015 34.2406 81.5015 34.6752 81.5015 34.9157V35.396C81.5015 35.5924 81.5015 36.0049 81.1684 36.0049C80.8439 36.0049 80.8439 35.5545 80.8439 35.0277C80.8439 34.5939 80.8832 34.2406 81.1747 34.2406Z" fill="black"/>
<path d="M103.906 34.992C103.906 34.8453 104.023 34.727 104.171 34.727C104.315 34.727 104.434 34.8453 104.434 34.992C104.434 35.1387 104.315 35.2601 104.171 35.2601C104.023 35.2601 103.906 35.1387 103.906 34.992Z" fill="black"/>
<path d="M104.533 33.4717L104.179 33.8259L103.823 33.4717C104.04 33.2533 104.316 33.2533 104.533 33.4717Z" fill="black"/>
<path d="M104.462 34.2402C104.462 33.9674 104.681 33.7473 104.954 33.7473C105.226 33.7473 105.447 33.9674 105.447 34.2402C105.447 34.5147 105.226 34.7363 104.954 34.7363C104.681 34.7363 104.462 34.5147 104.462 34.2402Z" fill="black"/>
<path d="M103.398 33.7473C103.127 33.7473 102.906 33.9674 102.906 34.2402C102.906 34.5147 103.127 34.7363 103.398 34.7363C103.671 34.7363 103.889 34.5147 103.889 34.2402C103.889 33.9674 103.671 33.7473 103.398 33.7473Z" fill="black"/>
<path d="M102.934 35.7699C102.934 35.4993 103.155 35.2746 103.425 35.2746C103.698 35.2746 103.919 35.4993 103.919 35.7699C103.919 36.0419 103.698 36.2636 103.425 36.2636C103.155 36.2636 102.934 36.0419 102.934 35.7699Z" fill="black"/>
<path d="M104.912 35.2661C104.64 35.2661 104.42 35.4877 104.42 35.7606C104.42 36.0359 104.64 36.2543 104.912 36.2543C105.186 36.2543 105.404 36.0359 105.404 35.7606C105.404 35.4877 105.186 35.2661 104.912 35.2661Z" fill="black"/>
<path d="M104.17 36.1464L103.813 36.4982C104.03 36.719 104.305 36.719 104.524 36.4982L104.17 36.1464Z" fill="black"/>
<path d="M105.658 35.3515L105.307 34.9943L105.658 34.6386C105.88 34.8555 105.88 35.1315 105.658 35.3515Z" fill="black"/>
<path d="M103.015 34.9943L102.66 35.3515C102.442 35.1315 102.442 34.8555 102.66 34.6386L103.015 34.9943Z" fill="black"/>
<path fill-rule="evenodd" clip-rule="evenodd" d="M99.1541 34.9916C99.1541 33.7384 101.403 32.7218 104.179 32.7218C106.954 32.7218 109.203 33.7384 109.203 34.9916C109.203 36.2448 106.954 37.263 104.179 37.263C101.403 37.263 99.1541 36.2448 99.1541 34.9916ZM107.925 34.8315H108.847C108.73 34.2684 107.992 33.7573 106.906 33.4316C107.485 33.8023 107.863 34.292 107.925 34.8315ZM106.433 34.8315H107.584C107.482 34.1256 106.705 33.5278 105.619 33.2407C106.082 33.628 106.387 34.1919 106.433 34.8315ZM102.253 34.9916C102.253 36.0579 103.116 36.9238 104.179 36.9238C105.241 36.9238 106.104 36.0579 106.104 34.9916C106.104 33.9245 105.241 33.0617 104.179 33.0617C103.116 33.0617 102.253 33.9245 102.253 34.9916ZM100.773 34.8315H101.924C101.969 34.1919 102.274 33.628 102.738 33.2407C101.653 33.5278 100.876 34.1256 100.773 34.8315ZM100.432 34.8315C100.493 34.292 100.87 33.8023 101.451 33.4316C100.365 33.7573 99.6287 34.2684 99.5085 34.8315H100.432ZM100.434 35.1698H99.5124C99.6428 35.7274 100.378 36.229 101.451 36.5508C100.876 36.1864 100.505 35.7038 100.434 35.1698ZM101.924 35.1698H100.774C100.889 35.8694 101.661 36.4577 102.738 36.7416C102.279 36.3623 101.974 35.8023 101.924 35.1698ZM107.582 35.1698H106.432C106.382 35.8023 106.077 36.3623 105.619 36.7416C106.694 36.4577 107.469 35.8694 107.582 35.1698ZM107.924 35.1698C107.855 35.7038 107.482 36.1864 106.906 36.5508C107.98 36.229 108.714 35.7274 108.843 35.1698H107.924Z" fill="black"/>
<path d="M61.5587 8.81337C61.5037 9.83707 61.1124 10.662 60.3637 10.662C59.3187 10.662 59.072 9.21559 59.072 8.06414C59.072 7.14613 59.2268 5.45759 60.3723 5.45759C60.8917 5.45759 61.1486 5.80618 61.3034 6.13979C61.5037 6.5775 61.5289 7.10906 61.5422 7.4127L60.8602 7.48683L60.8595 7.47194C60.839 7.06773 60.8031 6.35983 60.377 6.35983C59.9512 6.35983 59.864 7.12483 59.864 8.14774C59.864 8.99477 59.93 9.75977 60.377 9.75977C60.7696 9.75977 60.8354 9.07086 60.8636 8.7764L60.8665 8.74554L61.5587 8.81337Z" fill="black"/>
<path d="M63.6757 10.5863H64.4252V5.53251H63.6757V7.57122H62.8483V5.53251H62.0972V10.5863H62.8483V8.51683H63.6757V10.5863Z" fill="black"/>
<path d="M67.2557 5.53235V6.40462H65.924V7.57106H66.9571V8.44096H65.924V9.68549H67.2557V10.5861H65.1736V5.53235H67.2557Z" fill="black"/>
<path d="M68.8918 10.662C69.6429 10.662 70.0318 9.83707 70.09 8.81337L69.3962 8.74554L69.3939 8.76993C69.3667 9.06063 69.3014 9.75977 68.9067 9.75977C68.4597 9.75977 68.3929 8.99477 68.3929 8.14774C68.3929 7.12483 68.4809 6.35983 68.9067 6.35983C69.3348 6.35983 69.3698 7.07453 69.3895 7.47773L69.3899 7.48683L70.0735 7.4127L70.073 7.40465C70.0573 7.09973 70.03 6.5736 69.8323 6.13979C69.679 5.80618 69.4213 5.45759 68.9012 5.45759C67.7565 5.45759 67.6033 7.14613 67.6033 8.06414C67.6033 9.21559 67.8476 10.662 68.8918 10.662Z" fill="black"/>
<path d="M71.3774 5.53235V7.63889L72.2094 5.53235H72.9707L72.1128 7.38967L73.043 10.5861H72.266L71.6594 8.26036L71.3774 8.87395V10.5861H70.6278V5.53235H71.3774Z" fill="black"/>
<path d="M76.5994 6.47955V5.53235H74.4686V6.47955H75.153V10.5861H75.9009V6.47955H76.5994Z" fill="black"/>
<path d="M79.2971 10.5863H78.5468V8.51683H77.7195V10.5863H76.9699V5.53251H77.7195V7.57122H78.5468V5.53251H79.2971V10.5863Z" fill="black"/>
<path d="M80.0464 5.53305H80.7959V10.5869H80.0464V5.53305Z" fill="black"/>
<path d="M83.0153 6.9865L83.0126 6.97521C82.9688 6.788 82.8685 6.3595 82.5321 6.3595C82.2799 6.3595 82.173 6.61582 82.173 6.82088C82.173 7.1664 82.3938 7.28955 82.7543 7.4906L82.7639 7.49598L82.7727 7.50097C83.1566 7.71921 83.7098 8.03373 83.7098 9.04887C83.7098 9.91167 83.2974 10.6617 82.4905 10.6617C82.2453 10.6617 81.8745 10.5939 81.5971 10.1317C81.4062 9.80521 81.3457 9.49525 81.3041 9.27522L81.9617 9.00155C82.0018 9.23026 82.1008 9.76025 82.5109 9.76025C82.7694 9.76025 82.9485 9.5481 82.9485 9.21528C82.9485 8.85801 82.7325 8.71526 82.4747 8.57961L82.4653 8.57453C82.0005 8.32478 81.4431 8.02533 81.4431 7.00306C81.4431 6.21439 81.7881 5.45806 82.5368 5.45806C83.3895 5.45806 83.5686 6.29379 83.6404 6.62845L83.6407 6.63002L83.0153 6.9865Z" fill="black"/>
<path fill-rule="evenodd" clip-rule="evenodd" d="M86.8497 5.5322H85.6838V10.586H86.8497C87.1577 10.586 87.4201 10.586 87.6818 10.3525C87.9285 10.1317 88.0589 9.62302 88.0589 9.1861C88.0589 8.76022 87.9434 8.45737 87.8201 8.2602C87.7031 8.07156 87.5999 8.01537 87.4895 7.95531L87.4759 7.94789C87.6362 7.85956 87.9646 7.67738 87.9646 6.86662C87.9646 6.548 87.9135 6.22228 87.7855 5.9636C87.5733 5.5322 87.1891 5.5322 86.8497 5.5322ZM86.6502 7.57091H86.4082V6.35162H86.7059C86.8552 6.35162 87.1994 6.35162 87.1994 6.94234C87.1994 7.57091 86.8552 7.57091 86.6502 7.57091ZM86.7782 9.71529H86.4082V8.38876H86.7735C86.9432 8.38876 87.2929 8.38876 87.2929 9.04887C87.2929 9.5481 87.1012 9.71529 86.7782 9.71529Z" fill="black"/>
<path fill-rule="evenodd" clip-rule="evenodd" d="M91.0354 8.06397C91.0354 8.98672 90.923 10.6618 89.794 10.6618C88.6933 10.6618 88.5503 9.0782 88.5503 8.06397C88.5503 7.0947 88.6783 5.45743 89.794 5.45743C90.8829 5.45743 91.0354 7.01031 91.0354 8.06397ZM89.3414 8.06397C89.3414 9.14682 89.4122 9.75961 89.794 9.75961C90.1782 9.75961 90.2442 9.13184 90.2442 8.06397C90.2442 7.00243 90.1813 6.35966 89.794 6.35966C89.4122 6.35966 89.3414 6.96378 89.3414 8.06397Z" fill="black"/>
<path d="M92.6118 6.85101L92.2017 5.53235H91.3626L92.2017 7.99537L91.262 10.5861H91.9809L92.5411 8.93467L93.0432 10.5861H93.8666L92.956 7.82028L93.7621 5.53235H93.0432L92.6118 6.85101Z" fill="black"/>
<path d="M61.2272 13.1141V13.9848H59.9458V15.3034H60.9326V16.1749H59.9458V18.1679H59.1962V13.1141H61.2272Z" fill="black"/>
<path fill-rule="evenodd" clip-rule="evenodd" d="M62.6925 18.2428C63.8239 18.2428 63.9371 16.5684 63.9371 15.6457C63.9371 14.592 63.7831 13.0391 62.6925 13.0391C61.5792 13.0391 61.4504 14.6756 61.4504 15.6457C61.4504 16.6599 61.5941 18.2428 62.6925 18.2428ZM62.6925 17.3405C62.3138 17.3405 62.2416 16.7277 62.2416 15.6457C62.2416 14.5447 62.3138 13.9406 62.6925 13.9406C63.083 13.9406 63.1451 14.5834 63.1451 15.6457C63.1451 16.7136 63.0799 17.3405 62.6925 17.3405Z" fill="black"/>
<path fill-rule="evenodd" clip-rule="evenodd" d="M65.6359 13.1141C65.98 13.1141 66.3147 13.1141 66.5755 13.5455C66.7578 13.8405 66.823 14.2427 66.823 14.6434C66.823 15.5361 66.5115 15.8112 66.3415 15.9612L66.3406 15.962L66.9715 18.1679H66.1505L65.6916 16.175H65.3122V18.1679H64.5634V13.1141H65.6359ZM65.3122 13.9328V15.3571H65.6461C65.9698 15.3571 66.0892 15.044 66.0892 14.6284C66.0892 13.9328 65.7451 13.9328 65.6162 13.9328H65.3122Z" fill="black"/>
<path d="M70.3435 14.5641L70.3446 14.569L70.9724 14.2117C70.9009 13.8781 70.7202 13.0398 69.8693 13.0398C69.1174 13.0398 68.7732 13.7961 68.7732 14.584C68.7732 15.6073 69.3316 15.9063 69.7983 16.1562L69.8064 16.1605C70.0633 16.297 70.2794 16.4397 70.2794 16.7962C70.2794 17.1298 70.0987 17.3412 69.8425 17.3412C69.4308 17.3412 69.3342 16.812 69.2926 16.5833L68.6349 16.8561C68.6774 17.077 68.7379 17.3853 68.9264 17.7126C69.2046 18.174 69.5754 18.2426 69.8213 18.2426C70.6274 18.2426 71.0384 17.4926 71.0384 16.6298C71.0384 15.6116 70.4833 15.2978 70.0984 15.0802L70.0723 15.0655C69.7204 14.8669 69.5016 14.7434 69.5016 14.4018C69.5016 14.1975 69.61 13.9404 69.8622 13.9404C70.2025 13.9404 70.302 14.3805 70.3435 14.5641Z" fill="black"/>
<path fill-rule="evenodd" clip-rule="evenodd" d="M72.5891 13.1141C72.9489 13.1141 73.3237 13.1141 73.5806 13.5006C73.8163 13.8642 73.8697 14.3484 73.8697 14.697C73.8697 15.197 73.7747 15.7049 73.5099 16.0086C73.2522 16.3035 72.8303 16.3035 72.6197 16.3035H72.3534V18.1679H71.6022V13.1141H72.5891ZM72.3534 13.9328V15.4313H72.5891C72.8523 15.4313 73.0723 15.3484 73.0723 14.6749C73.0723 13.9328 72.7541 13.9328 72.5891 13.9328H72.3534Z" fill="black"/>
<path d="M76.4099 13.9848V13.1141H74.3294V18.1679H76.4099V17.2672H75.0805V16.0227H76.1121V15.1528H75.0805V13.9848H76.4099Z" fill="black"/>
<path d="M79.245 16.3951C79.1876 17.418 78.7979 18.2429 78.0476 18.2429C77.0042 18.2429 76.7591 16.7965 76.7591 15.6459C76.7591 14.7271 76.9123 13.0393 78.0578 13.0393C78.5756 13.0393 78.834 13.3879 78.9865 13.7207C79.1876 14.1576 79.2143 14.6908 79.2292 14.9944L78.5465 15.0678L78.5454 15.0467C78.5241 14.6423 78.4872 13.9408 78.0633 13.9408C77.6375 13.9408 77.5487 14.705 77.5487 15.7287C77.5487 16.5757 77.6162 17.3407 78.0633 17.3407C78.4583 17.3407 78.5221 16.6378 78.5484 16.3485L78.5504 16.3265L79.245 16.3951Z" fill="black"/>
<path d="M79.7824 13.1145H80.5343V18.1683H79.7824V13.1145Z" fill="black"/>
<path d="M83.3123 13.1141V13.9848H82.0324V15.3034H83.02V16.1749H82.0324V18.1679H81.2829V13.1141H83.3123Z" fill="black"/>
<path d="M83.6597 13.1145H84.4092V18.1683H83.6597V13.1145Z" fill="black"/>
<path d="M87.5215 16.3951C87.4657 17.418 87.076 18.2429 86.3265 18.2429C85.2823 18.2429 85.0372 16.7965 85.0372 15.6459C85.0372 14.7271 85.1888 13.0393 86.3359 13.0393C86.8537 13.0393 87.1122 13.3879 87.2654 13.7207C87.4657 14.1576 87.4924 14.6908 87.5074 14.9944L86.8246 15.0678L86.8231 15.0411C86.8011 14.6358 86.7633 13.9408 86.3414 13.9408C85.9156 13.9408 85.8276 14.705 85.8276 15.7287C85.8276 16.5757 85.8951 17.3407 86.3414 17.3407C86.734 17.3407 86.7987 16.6461 86.826 16.3537L86.8285 16.3265L87.5215 16.3951Z" fill="black"/>
<path d="M90.6392 18.2429C91.3903 18.2429 91.7807 17.418 91.8358 16.3951L91.1412 16.3265L91.1389 16.3513C91.1126 16.6423 91.0493 17.3407 90.6549 17.3407C90.2078 17.3407 90.141 16.5757 90.141 15.7287C90.141 14.705 90.2275 13.9408 90.6549 13.9408C91.0768 13.9408 91.1146 14.6357 91.1366 15.041L91.1381 15.0678L91.8208 14.9944L91.8194 14.9685C91.8029 14.6612 91.7751 14.1455 91.578 13.7207C91.4256 13.3879 91.1679 13.0393 90.6494 13.0393C89.5031 13.0393 89.3506 14.7271 89.3506 15.6459C89.3506 16.7965 89.5958 18.2429 90.6392 18.2429Z" fill="black"/>
<path fill-rule="evenodd" clip-rule="evenodd" d="M94.7374 15.6457C94.7374 16.5684 94.6251 18.2428 93.4937 18.2428C92.3969 18.2428 92.2507 16.6599 92.2507 15.6457C92.2507 14.6756 92.3796 13.0391 93.4937 13.0391C94.5834 13.0391 94.7374 14.592 94.7374 15.6457ZM93.0427 15.6457C93.0427 16.7277 93.1158 17.3405 93.4937 17.3405C93.8802 17.3405 93.9463 16.7136 93.9463 15.6457C93.9463 14.5834 93.885 13.9406 93.4937 13.9406C93.1158 13.9406 93.0427 14.5447 93.0427 15.6457Z" fill="black"/>
<path d="M97.0492 16.2506L96.1693 13.1141H95.3325V18.1679H95.9186V14.5092L96.9604 18.1679H97.6338V13.1141H97.0492V16.2506Z" fill="black"/>
<path d="M100.099 13.1141V14.0605H99.4001V18.1679H98.6497V14.0605H97.9662V13.1141H100.099Z" fill="black"/>
<path d="M102.548 13.9848V13.1141H100.468V18.1679H102.548V17.2672H101.219V16.0227H102.25V15.1528H101.219V13.9848H102.548Z" fill="black"/>
<path d="M103.827 13.1141L104.705 16.2506V13.1141H105.291V18.1679H104.617L103.574 14.5092V18.1679H102.99V13.1141H103.827Z" fill="black"/>
<path d="M107.756 14.0605V13.1141H105.623V14.0605H106.306V18.1679H107.057V14.0605H107.756Z" fill="black"/>
<path d="M59.9463 20.6927H59.1967V25.7474H59.9463V20.6927Z" fill="black"/>
<path d="M62.3811 23.8316L61.5019 20.6927H60.6644V25.7473H61.2505V22.0886L62.2923 25.7473H62.9656V20.6927H62.3811V23.8316Z" fill="black"/>
<path d="M65.7141 20.6927V21.565H64.4334V22.8844H65.4203V23.7543H64.4334V25.7473H63.6839V20.6927H65.7141Z" fill="black"/>
<path fill-rule="evenodd" clip-rule="evenodd" d="M67.1811 25.8238C68.3124 25.8238 68.4248 24.1487 68.4248 23.2243C68.4248 22.1707 68.2708 20.6178 67.1811 20.6178C66.067 20.6178 65.9389 22.2551 65.9389 23.2243C65.9389 24.2393 66.0827 25.8238 67.1811 25.8238ZM67.1811 24.9223C66.8024 24.9223 66.7293 24.308 66.7293 23.2243C66.7293 22.1257 66.8024 21.5192 67.1811 21.5192C67.5715 21.5192 67.6328 22.1644 67.6328 23.2243C67.6328 24.2922 67.5676 24.9223 67.1811 24.9223Z" fill="black"/>
<path fill-rule="evenodd" clip-rule="evenodd" d="M70.1244 20.6927C70.4685 20.6927 70.8024 20.6927 71.064 21.1265C71.2448 21.4214 71.3107 21.8237 71.3107 22.2243C71.3107 23.1117 71.0024 23.3869 70.8311 23.5398L70.8276 23.543L71.4592 25.7473H70.6382L70.1809 23.7543H69.8007V25.7473H69.0511V20.6927H70.1244ZM69.8007 21.5137V22.9357H70.1338C70.4591 22.9357 70.5761 22.6257 70.5761 22.2101C70.5761 21.5137 70.232 21.5137 70.1047 21.5137H69.8007Z" fill="black"/>
<path d="M73.5386 23.8158L73.0555 20.6927H71.9516V25.7473H72.5636V21.5137L73.2008 25.7473H73.7508L74.4485 21.5137V25.7473H75.1532V20.6927H74.0847L73.5386 23.8158Z" fill="black"/>
<path fill-rule="evenodd" clip-rule="evenodd" d="M77.264 20.6929L78.2391 25.7475H77.473L77.2986 24.7088H76.3377L76.1672 25.7475H75.475L76.5019 20.6929H77.264ZM77.1603 23.8382L76.817 21.7781L76.4823 23.8382H77.1603Z" fill="black"/>
<path d="M80.3744 21.6415V20.6927H78.242V21.6415H78.9256V25.7473H79.6767V21.6415H80.3744Z" fill="black"/>
<path d="M81.4944 20.6927H80.7448V25.7474H81.4944V20.6927Z" fill="black"/>
<path fill-rule="evenodd" clip-rule="evenodd" d="M83.3635 25.8238C84.4941 25.8238 84.6057 24.1487 84.6057 23.2243C84.6057 22.1707 84.4525 20.6178 83.3635 20.6178C82.2486 20.6178 82.1198 22.2551 82.1198 23.2243C82.1198 24.2393 82.2643 25.8238 83.3635 25.8238ZM83.3635 24.9223C82.9832 24.9223 82.9117 24.308 82.9117 23.2243C82.9117 22.1257 82.9832 21.5192 83.3635 21.5192C83.754 21.5192 83.8145 22.1644 83.8145 23.2243C83.8145 24.2922 83.7501 24.9223 83.3635 24.9223Z" fill="black"/>
<path d="M86.0392 20.6927L86.9183 23.8316V20.6927H87.5029V25.7473H86.8303L85.7869 22.0886V25.7473H85.2016V20.6927H86.0392Z" fill="black"/>
<path d="M13.021 4.43469L12.6195 3.0766L12.2149 4.43469H13.021Z" fill="black"/>
<path d="M15.8023 5.21232H16.0993C16.4717 5.21232 16.7067 5.13897 16.9109 4.80221C17.0594 4.55299 17.1199 4.25645 17.1199 3.96701C17.1199 3.66416 17.0327 3.33765 16.8504 3.09316C16.6469 2.82108 16.4199 2.784 16.1072 2.784H15.8023V5.21232Z" fill="black"/>
<path d="M34.0569 3.19648C33.9705 3.42519 33.9359 3.75801 33.9359 4.00013C33.9359 4.48595 34.0074 5.25648 34.6304 5.25648C34.9337 5.25648 35.1003 5.10585 35.1993 4.81719C35.288 4.5806 35.3148 4.26197 35.3148 4.00565C35.3148 3.72331 35.288 3.39286 35.1773 3.1326C35.0665 2.87312 34.9062 2.75562 34.6304 2.75562C34.3272 2.75562 34.1629 2.91256 34.0569 3.19648Z" fill="black"/>
<path fill-rule="evenodd" clip-rule="evenodd" d="M0.344849 39.301H110.958V0H0.344849V39.301ZM1.24052 7.68006H55.6655V30.4166H1.24052V7.68006ZM97.562 38.2844H1.24052V31.2818H97.562V38.2844ZM110.001 38.2844H98.4498V31.2818H110.001V38.2844ZM110.001 30.4H56.613V0.899086H110.001V30.4ZM14.4101 5.93868H13.4563L13.2253 5.14607H12.0028L11.7639 5.93868H10.9869L12.1992 2.07184H13.2253L14.4101 5.93868ZM16.0184 2.07184C16.5629 2.07184 17.0327 2.10732 17.4452 2.50797C17.8538 2.90152 18.0298 3.43781 18.0298 3.9954C18.0298 4.51356 17.875 5.01594 17.5387 5.40396C17.1655 5.82748 16.7004 5.93868 16.1661 5.93868H14.9216V2.07184H16.0184ZM21.6439 4.44243C21.6441 4.85448 21.6443 5.28208 21.3351 5.59088C21.0326 5.90004 20.5864 5.99625 20.1723 5.99625C19.7748 5.99625 19.3183 5.93474 19.0142 5.66344C18.6394 5.33141 18.6245 4.88581 18.6245 4.41261V2.07184H19.5823L19.5822 4.43875C19.582 4.61698 19.5817 4.86089 19.6656 5.00963C19.781 5.21232 20.0191 5.26752 20.2304 5.26752C20.4104 5.26752 20.6673 5.21232 20.7789 5.06089C20.8877 4.90339 20.8859 4.66739 20.8845 4.47517L20.8843 4.44892L20.8841 4.41261V2.07184H21.6439L21.6439 4.44243ZM24.8063 5.1713V5.93868H22.4036V2.07184H23.2852V5.1713H24.8063ZM27.4249 2.83921H26.4758V5.93868H25.5935V2.83921H24.635V2.07184H27.4249V2.83921ZM29.9045 3.17834C29.7945 2.85183 29.5887 2.72091 29.2524 2.72091C29.0159 2.72091 28.7307 2.784 28.7307 3.08133C28.7307 3.36526 29.0607 3.43308 29.2752 3.47093L29.3692 3.49157C29.6634 3.55568 30.0233 3.6341 30.2613 3.79902C30.5685 4.00565 30.7586 4.32822 30.7586 4.7123C30.7586 5.08849 30.5818 5.45129 30.2887 5.68237C29.9863 5.9237 29.5738 5.99625 29.1927 5.99625C28.4809 5.99625 27.8374 5.68237 27.6654 4.92367L28.4809 4.7336C28.5917 5.13897 28.8777 5.28093 29.2705 5.28093C29.5219 5.28093 29.859 5.18472 29.859 4.86452C29.859 4.57057 29.5038 4.49431 29.2657 4.44317C29.2419 4.43805 29.2192 4.43319 29.1982 4.42838C28.5265 4.28957 27.8641 4.08688 27.8641 3.24065C27.8641 2.88101 28.0008 2.56318 28.2727 2.33289C28.5477 2.0955 28.8729 2.01663 29.221 2.01663C29.881 2.01663 30.4207 2.25402 30.6541 2.92518L29.9045 3.17834ZM33.4063 5.38741C33.1313 4.98833 33.0104 4.48595 33.0104 4.00013C33.0104 2.97408 33.5108 2.01663 34.6304 2.01663C35.1325 2.01663 35.5308 2.18777 35.8317 2.60813C36.1028 2.9859 36.2403 3.53403 36.2403 4.00013C36.2403 4.43942 36.1256 4.97572 35.8836 5.34324C35.589 5.78332 35.1427 5.99625 34.6304 5.99625C34.1182 5.99625 33.7041 5.81486 33.4063 5.38741ZM39.8269 5.93868H39.0735L37.6215 3.34081H37.6011V5.93868H36.9175V2.07184H37.8714L39.1332 4.34478H39.1442V2.07184H39.8269V5.93868ZM43.0443 5.1713V5.93868H40.6417V2.07184H41.524V5.1713H43.0443ZM44.7909 4.31165V5.93868H43.9109V4.31165L42.7127 2.07184H43.7396L44.4656 3.5435L45.1837 2.07184H45.9772L44.7909 4.31165Z" fill="black"/>
<path fill-rule="evenodd" clip-rule="evenodd" d="M113.783 37.7113H113.343V34.9368L113.394 34.9299C113.609 34.9005 113.822 34.8713 114.125 34.8713C114.545 34.8713 114.819 34.9605 114.984 35.0827C115.148 35.2026 115.237 35.3895 115.237 35.6545C115.237 36.0181 114.994 36.2397 114.697 36.3304V36.3509C114.942 36.3935 115.107 36.6159 115.16 37.0268C115.226 37.455 115.292 37.6214 115.336 37.7113H114.876C114.809 37.6214 114.741 37.3683 114.686 37.0047C114.62 36.6474 114.445 36.5181 114.094 36.5181H113.783V37.7113ZM113.783 36.1734H114.103C114.468 36.1734 114.776 36.0417 114.776 35.6994C114.776 35.4565 114.598 35.212 114.103 35.212C113.963 35.212 113.863 35.2255 113.783 35.2365V36.1734Z" fill="black"/>
<path fill-rule="evenodd" clip-rule="evenodd" d="M114.257 33.7767C115.611 33.7767 116.69 34.8832 116.69 36.2633C116.69 37.6672 115.611 38.7587 114.248 38.7587C112.893 38.7587 111.793 37.6672 111.793 36.2633C111.793 34.8832 112.893 33.7767 114.248 33.7767H114.257ZM114.248 34.1639C113.159 34.1639 112.266 35.104 112.266 36.2633C112.266 37.444 113.159 38.3738 114.257 38.3738C115.36 38.3857 116.24 37.444 116.24 36.2712C116.24 35.104 115.36 34.1639 114.257 34.1639H114.248Z" fill="black"/>
</g>
<defs>
<clipPath id="clip0_880_111733">
<rect width="116.345" height="39.301" fill="white" transform="translate(0.344849)"/>
</clipPath>
</defs>
</svg>
