<svg width="117" height="41" viewBox="0 0 117 41" fill="none" xmlns="http://www.w3.org/2000/svg">
<g clip-path="url(#clip0_880_111960)">
<path d="M41.3322 26.0116C41.3589 27.1323 41.6276 27.6749 44.2 27.8066L44.3986 27.8155C47.2514 27.9441 50.5511 28.0929 50.8397 24.5045C50.905 22.6393 50.2725 22.0304 49.4923 21.4373C50.714 20.7804 51.0307 20.2748 50.8617 18.438C50.4716 15.8717 47.4416 15.8458 46.2402 15.8356L46.1398 15.8346C44.1434 15.8196 42.7119 15.8378 41.9333 16.4522C41.3683 16.8725 41.3196 17.2148 41.3 18.214C41.3061 18.2789 41.3077 18.3513 41.3095 18.428C41.3221 18.984 41.3398 19.7668 43.0976 19.5374C43.8333 19.3756 43.9293 18.9416 44.0272 18.4987C44.1474 17.9549 44.2706 17.3976 45.5843 17.3142C46.6073 17.2456 47.7881 17.2755 47.851 18.968C47.8754 20.2125 47.6617 20.6771 46.8422 20.845C46.372 20.9445 45.954 20.9501 45.6068 20.9548C44.8495 20.9651 44.429 20.9708 44.5378 21.935C44.6752 22.4388 45.2196 22.4326 45.8568 22.4253C46.3159 22.4201 46.8231 22.4143 47.261 22.5983C47.8384 22.9555 47.9932 23.323 47.8966 24.4871C47.796 26.1339 46.6717 26.3452 45.7737 26.3452C45.7473 26.3452 45.7146 26.346 45.6768 26.3468C45.2957 26.3556 44.3951 26.3763 44.2 25.76C43.8095 23.9769 42.7339 24.0376 42.1163 24.2805C41.3589 24.5849 41.3016 25.2521 41.3322 26.0116Z" fill="black"/>
<path d="M23.8907 23.4117C24.2673 23.5158 24.5227 23.5864 24.6025 23.9634C24.7125 24.4744 24.6332 25.4508 24.6332 25.4508C24.6332 26.5392 23.7917 26.6449 22.2973 26.6417C19.5081 26.6788 19.4587 24.8159 19.4092 22.2409C19.3447 18.837 19.6566 17.322 22.5157 17.3441C24.1798 17.3409 24.6017 17.6761 24.8311 19.2881L24.8325 19.2961C24.9429 19.913 25.064 20.5897 26.5989 20.4609C27.6965 20.4112 27.911 19.4995 27.8969 18.5231C27.8819 17.5468 27.8332 17.012 26.7262 16.6216C26.0089 16.3527 24.7172 16.0491 22.2486 16.0136C22.0607 16.0274 21.8407 16.0303 21.5978 16.0335C19.5977 16.0598 16.0454 16.1065 16.0629 22.4499C16.1941 27.9391 18.5253 28.0305 21.84 28.1055C27.2133 28.204 27.7641 26.7939 27.7641 26.7939C27.7641 26.7939 27.7602 24.6771 27.7641 24.3372C27.7719 23.6881 28.3149 23.3876 28.6456 23.297C29.8972 22.9641 29.6709 22.2212 28.6354 22.1991C28.2085 22.1785 26.9874 22.1923 26.024 22.2032C25.7006 22.2068 25.4055 22.2101 25.18 22.2117H23.497C22.3617 22.2788 22.61 23.1928 23.6361 23.338C23.726 23.3661 23.8111 23.3897 23.8907 23.4117Z" fill="black"/>
<path fill-rule="evenodd" clip-rule="evenodd" d="M8.18197 25.0111C8.14425 26.1405 8.71387 26.2556 9.79576 26.4465C11.1039 26.5403 11.0096 27.5885 10.2789 27.6129C9.97506 27.6218 9.03945 27.6179 7.92343 27.6133C7.15823 27.6102 6.30779 27.6066 5.51851 27.6066C5.24323 27.6066 4.98149 27.6075 4.73773 27.6083C4.13917 27.6103 3.64846 27.6119 3.33195 27.5995C2.56512 27.5696 2.42999 26.5806 3.56844 26.4843C3.64566 26.4529 3.7365 26.4301 3.83349 26.4057C4.26446 26.2975 4.81671 26.1588 4.83339 25.0979V18.589C4.79111 17.8002 4.41764 17.7142 3.89602 17.5939C3.69058 17.5466 3.46216 17.4939 3.22195 17.391C2.44963 17.1378 2.51013 16.3681 3.36102 16.3484C4.02838 16.3134 4.44756 16.3181 4.87948 16.3229C5.03171 16.3246 5.1859 16.3263 5.35273 16.3263C5.72683 16.3263 6.15882 16.3193 6.65013 16.3112C7.29794 16.3007 8.04896 16.2884 8.90636 16.2884C9.07385 16.2884 9.23792 16.2883 9.39857 16.2881C13.4196 16.2837 15.3037 16.2816 15.3521 19.1513C15.6084 23.1478 13.7182 23.1325 10.171 23.1038C9.85836 23.1012 9.53276 23.0986 9.1947 23.0986C9.11083 23.0986 9.02203 23.0995 8.93008 23.1004C8.68525 23.1028 8.41799 23.1055 8.16153 23.0923L8.18197 25.0111ZM8.18197 18.0409V21.7791C8.37053 21.7957 8.55517 21.7957 8.74058 21.7957C8.8462 21.7957 8.94876 21.796 9.04831 21.7963C11.0116 21.8024 11.8052 21.8049 11.7678 19.3004C11.6319 17.9509 11.0882 17.5511 9.27877 17.574C8.45067 17.574 8.18197 17.6623 8.18197 18.0409Z" fill="black"/>
<path d="M34.5152 16.937L34.5166 16.9365C35.5338 16.5831 36.1152 16.3812 36.8347 16.2826L37.0512 16.2783C37.5917 16.2674 38.2471 16.2543 38.6206 16.266C38.806 16.266 38.8076 16.4041 38.8021 16.5326C38.7908 16.7881 38.7936 17.0886 38.7973 17.4923C38.7995 17.7379 38.8021 18.0219 38.8021 18.3568V25.2237C38.7919 26.126 39.0284 26.4801 39.88 26.4911H40.027C40.7914 26.4998 40.782 27.555 40.1118 27.5574C39.7152 27.5588 39.1671 27.5578 38.5481 27.5567C38.0771 27.5559 37.5646 27.555 37.0469 27.555H34.4683C33.7761 27.5708 33.6378 26.5487 34.502 26.4769H34.7684L34.7885 26.4736C35.3171 26.3869 35.5757 26.3445 35.6051 25.2237L35.6366 19.2322C35.6333 19.1597 35.635 19.0862 35.6368 19.0139C35.6462 18.6196 35.6547 18.2661 34.836 18.3568C33.417 18.6596 33.1632 17.4443 33.9631 17.128C34.1612 17.0599 34.3444 16.9963 34.5152 16.937Z" fill="black"/>
<path d="M33.2849 20.563C34.0329 20.5741 34.2175 21.313 34.1956 21.772C34.1869 22.0008 33.9748 22.7587 33.2849 22.7587L31.2406 22.7508C30.5649 22.7358 30.2106 22.4109 30.1941 21.772C30.1792 20.9645 30.5649 20.623 31.2469 20.563H33.2849Z" fill="black"/>
<path d="M63.8279 36.0255V35.434H63.4727C63.4727 35.0728 63.4806 34.9426 63.7273 34.9426C63.7791 34.9426 63.8129 34.9474 63.8483 34.9529V34.3653L63.8127 34.359C63.7499 34.3476 63.6824 34.3354 63.5827 34.3354C63.3745 34.3354 63.2543 34.3913 63.1482 34.5065C62.9502 34.7139 62.94 34.9726 62.9306 35.434H62.7012V36.0255H62.9306V38.1399H63.4727V36.0255H63.8279Z" fill="black"/>
<path d="M4.25188 35.5325L4.24999 35.5251C4.21588 35.3919 4.13519 35.0767 3.86611 35.0767C3.66576 35.0767 3.58091 35.2652 3.58091 35.4126C3.58091 35.6593 3.75314 35.7483 4.03317 35.893L4.04996 35.9016L4.05418 35.9038C4.36356 36.0614 4.80579 36.2867 4.80579 37.0247C4.80579 37.6517 4.47659 38.1943 3.8339 38.1943C3.63747 38.1943 3.34206 38.1446 3.1205 37.8094C2.96965 37.5744 2.91936 37.3496 2.88794 37.1919L3.41277 36.9931C3.4442 37.158 3.52198 37.5421 3.8504 37.5421C4.05467 37.5421 4.19924 37.3891 4.19924 37.1469C4.19924 36.889 4.02796 36.7834 3.82054 36.6848L3.80998 36.6796C3.44043 36.4993 2.99793 36.2834 2.99793 35.5451C2.99793 34.9726 3.27135 34.426 3.87083 34.426C4.55117 34.426 4.69498 35.0332 4.75234 35.2754L4.25188 35.5325Z" fill="black"/>
<path fill-rule="evenodd" clip-rule="evenodd" d="M6.69424 36.7833C6.69424 37.6516 6.46169 38.1942 5.87007 38.1942C5.28945 38.1942 5.0506 37.6579 5.0506 36.7833C5.0506 35.9394 5.27138 35.3732 5.87399 35.3732C6.47269 35.3732 6.69424 35.9394 6.69424 36.7833ZM5.87007 35.9016C5.69015 35.9016 5.63358 36.1185 5.63358 36.7833C5.63358 37.5018 5.70586 37.6674 5.87399 37.6674C6.03741 37.6674 6.11285 37.5081 6.11285 36.7833C6.11285 36.0869 6.04684 35.9016 5.87399 35.9016H5.87007Z" fill="black"/>
<path d="M7.57656 35.4339H7.0423V38.1399H7.60406V36.5649C7.60406 36.1855 7.62134 35.9679 7.82169 35.9679C7.98904 35.9679 7.99768 36.098 7.99768 36.4293V38.1399H8.56023V36.5649C8.56023 36.1745 8.56651 35.9608 8.77315 35.9608C8.95307 35.9608 8.95307 36.1367 8.95307 36.4442V38.1399H9.51326V36.3677C9.51326 35.8803 9.51326 35.3732 8.99786 35.3732C8.67023 35.3732 8.56181 35.6217 8.50209 35.8015C8.46909 35.6429 8.41016 35.3732 8.0684 35.3732C7.73527 35.3732 7.63313 35.6477 7.57656 35.8015V35.4339Z" fill="black"/>
<path fill-rule="evenodd" clip-rule="evenodd" d="M10.4151 36.913C10.4104 37.2789 10.4073 37.6756 10.6862 37.6756C10.929 37.6756 10.9581 37.3822 10.9722 37.2071L11.4774 37.2513C11.4365 37.504 11.3247 38.1945 10.6736 38.1945C10.0553 38.1945 9.83453 37.5407 9.83453 36.823C9.83453 36.6472 9.85025 36.2205 9.98538 35.8908C10.1299 35.5446 10.3955 35.3735 10.6697 35.3735C11.0217 35.3735 11.2393 35.6377 11.3289 35.8696C11.4735 36.2347 11.4774 36.5801 11.4774 36.913H10.4151ZM10.9455 36.4784L10.9456 36.4735C10.948 36.3189 10.9551 35.8727 10.6823 35.8727C10.4354 35.8727 10.425 36.2592 10.4196 36.4602L10.4191 36.4784H10.9455Z" fill="black"/>
<path d="M14.1993 36.7386L13.8136 34.479H12.9336V38.14H13.4199V35.0729L13.9291 38.14H14.3667L14.9237 35.0729V38.14H15.4855V34.479H14.6338L14.1993 36.7386Z" fill="black"/>
<path fill-rule="evenodd" clip-rule="evenodd" d="M15.9737 36.2204L15.975 36.2093C15.9934 36.0507 16.0299 35.7357 16.31 35.5209C16.4529 35.4128 16.6219 35.3734 16.79 35.3734C17.0029 35.3734 17.2229 35.4467 17.3753 35.6605C17.4979 35.8245 17.5065 36.1321 17.5065 36.461V37.5351C17.5065 37.9921 17.518 38.0449 17.538 38.1364L17.5388 38.14H17.0202C16.9935 38.032 16.9896 37.9689 16.9896 37.7236C16.9165 37.8987 16.7845 38.1945 16.4341 38.1945C16.1622 38.1945 15.9045 37.9863 15.9045 37.4547C15.9045 36.7023 16.3414 36.5036 16.9432 36.461V36.3569C16.9432 36.1187 16.9432 35.8734 16.7437 35.8734C16.5559 35.8734 16.519 36.0769 16.5017 36.2922L15.9737 36.2204ZM16.9432 36.8458C16.6219 36.8987 16.4875 37.0012 16.4875 37.3561C16.4875 37.5462 16.5402 37.6952 16.6753 37.6952C16.7437 37.6952 16.8065 37.6511 16.8599 37.5462C16.9369 37.394 16.9432 37.2236 16.9432 36.976V36.8458Z" fill="black"/>
<path d="M18.5728 35.434V34.5791L18.0975 34.6391L18.0519 35.434H17.8021V36.0271H18.0228V37.1036C18.0228 37.4483 18.0228 37.7235 18.1218 37.9152C18.2366 38.1336 18.4408 38.1944 18.6247 38.1944C18.7677 38.1944 18.8761 38.1658 18.9563 38.1447L18.9743 38.14V37.5634C18.5728 37.595 18.5728 37.5295 18.5728 37.0216V36.0271H18.9452V35.434H18.5728Z" fill="black"/>
<path fill-rule="evenodd" clip-rule="evenodd" d="M19.7106 36.913C19.7058 37.2789 19.7035 37.6756 19.9816 37.6756C20.2244 37.6756 20.2542 37.3822 20.2684 37.2071L20.7728 37.2513C20.7327 37.5037 20.6212 38.1945 19.9698 38.1945C19.3507 38.1945 19.1299 37.5407 19.1299 36.823C19.1299 36.6472 19.1449 36.2205 19.2816 35.8908C19.4261 35.5446 19.6917 35.3735 19.9667 35.3735C20.3179 35.3735 20.5347 35.6377 20.6251 35.8696C20.7689 36.2347 20.7728 36.5801 20.7728 36.913H19.7106ZM20.2417 36.4784C20.2456 36.3286 20.2542 35.8727 19.9785 35.8727C19.7281 35.8727 19.7202 36.2703 19.7162 36.4687L19.716 36.4784H20.2417Z" fill="black"/>
<path d="M21.6128 36.087V35.434H21.117V38.1399H21.6796V36.9711C21.6796 36.7621 21.6796 36.1367 22.0912 36.1367C22.1125 36.1367 22.1392 36.1367 22.1871 36.1493V35.4127C22.1588 35.4016 22.1297 35.3945 22.0897 35.3945C21.7616 35.3945 21.6629 35.8537 21.6133 36.0847L21.6128 36.087Z" fill="black"/>
<path d="M22.3885 34.4576H22.9581V35.2052H22.3885V34.4576Z" fill="black"/>
<path d="M22.9542 38.1399H22.3916V35.434H22.9542V38.1399Z" fill="black"/>
<path fill-rule="evenodd" clip-rule="evenodd" d="M23.3885 36.2204L23.9173 36.2922C23.933 36.0769 23.9699 35.8734 24.1577 35.8734C24.3589 35.8734 24.3589 36.1187 24.3589 36.3569V36.461C23.7562 36.5036 23.3186 36.7023 23.3186 37.4547C23.3186 37.9863 23.5771 38.1945 23.8482 38.1945C24.2001 38.1945 24.3306 37.8987 24.4044 37.7236C24.4044 37.9689 24.4083 38.032 24.4327 38.14H24.9528L24.9516 38.1344C24.9319 38.0441 24.9198 37.9887 24.9198 37.5351V36.461C24.9198 36.1321 24.912 35.8245 24.791 35.6605C24.637 35.4467 24.417 35.3734 24.2041 35.3734C24.0367 35.3734 23.867 35.4128 23.724 35.5209C23.4373 35.7409 23.4043 36.0658 23.3885 36.2204ZM23.9008 37.3561C23.9008 37.0012 24.0367 36.8987 24.3589 36.8458V36.976C24.3589 37.2236 24.351 37.394 24.274 37.5462C24.2198 37.6511 24.1577 37.6952 24.0878 37.6952C23.9542 37.6952 23.9008 37.5462 23.9008 37.3561Z" fill="black"/>
<path d="M25.917 34.479H25.3552V38.1399H25.917V34.479Z" fill="black"/>
<path d="M28.7267 36.7386L28.3418 34.479H27.4618V38.14H27.9505V35.0729L28.4565 38.14H28.8957L29.4527 35.0729V38.14H30.0153V34.479H29.162L28.7267 36.7386Z" fill="black"/>
<path fill-rule="evenodd" clip-rule="evenodd" d="M30.5018 36.2204L30.5021 36.2175C30.5187 36.0618 30.5531 35.7395 30.8381 35.5209C30.9811 35.4128 31.15 35.3734 31.3181 35.3734C31.5303 35.3734 31.7518 35.4467 31.9051 35.6605C32.026 35.8245 32.0347 36.1321 32.0347 36.461V37.5351C32.0347 37.9907 32.0469 38.0446 32.0675 38.1356L32.0685 38.14H31.5476C31.5224 38.032 31.5201 37.9689 31.5201 37.7236C31.4446 37.8987 31.315 38.1945 30.9615 38.1945C30.6912 38.1945 30.4335 37.9863 30.4335 37.4547C30.4335 36.7023 30.8687 36.5036 31.4737 36.461V36.3569C31.4737 36.1187 31.4737 35.8734 31.2726 35.8734C31.084 35.8734 31.0471 36.0769 31.0322 36.2922L30.5018 36.2204ZM31.4737 36.8458C31.15 36.8987 31.0149 37.0012 31.0149 37.3561C31.0149 37.5462 31.0675 37.6952 31.2042 37.6952C31.2726 37.6952 31.3339 37.6511 31.3881 37.5462C31.4659 37.394 31.4737 37.2236 31.4737 36.976V36.8458Z" fill="black"/>
<path d="M32.9418 37.0918L32.6668 35.434H32.1058L32.6833 38.0902C32.6142 38.4136 32.5678 38.4798 32.347 38.4798C32.2826 38.4798 32.2402 38.4751 32.1875 38.4648V39.0571L32.2111 39.0641C32.2721 39.0825 32.3319 39.1005 32.4288 39.1005C32.8758 39.1005 32.9669 38.6998 33.0809 38.1888L33.6882 35.434H33.205L32.9418 37.0918Z" fill="black"/>
<path fill-rule="evenodd" clip-rule="evenodd" d="M34.9628 34.4789H35.893C36.1625 34.4789 36.4689 34.4789 36.6371 34.7912C36.74 34.9789 36.7824 35.2163 36.7824 35.4466C36.7824 36.0309 36.5192 36.1639 36.3925 36.2279L36.4089 36.2368C36.4926 36.2791 36.5749 36.3208 36.6669 36.4545C36.7651 36.5988 36.8555 36.8181 36.8555 37.1241C36.8555 37.4443 36.7525 37.8094 36.5561 37.9687C36.3463 38.1399 36.1381 38.1399 35.893 38.1399H34.9628V34.4789ZM35.541 35.9576H35.7327C35.8969 35.9576 36.1711 35.9576 36.1711 35.4994C36.1711 35.0727 35.8969 35.0727 35.7775 35.0727H35.541V35.9576ZM35.541 37.5081H35.8349C36.0926 37.5081 36.245 37.3891 36.245 37.0247C36.245 36.5483 35.9661 36.5483 35.8302 36.5483H35.541V37.5081Z" fill="black"/>
<path fill-rule="evenodd" clip-rule="evenodd" d="M37.9994 37.6756C37.7197 37.6756 37.7236 37.2789 37.7292 36.913H38.7898C38.7898 36.5801 38.7859 36.2347 38.6413 35.8696C38.5526 35.6377 38.3341 35.3735 37.9814 35.3735C37.7103 35.3735 37.4416 35.5446 37.2986 35.8908C37.1627 36.2205 37.1462 36.6472 37.1462 36.823C37.1462 37.5407 37.3701 38.1945 37.9861 38.1945C38.6372 38.1945 38.7489 37.5042 38.7898 37.2516L38.2854 37.2071C38.2697 37.3822 38.2422 37.6756 37.9994 37.6756ZM37.9955 35.8727C38.2697 35.8727 38.2611 36.3286 38.2571 36.4784H37.7339L37.7341 36.4655C37.738 36.266 37.7457 35.8727 37.9955 35.8727Z" fill="black"/>
<path d="M40.845 34.479H40.2455V38.1399H40.845V34.479Z" fill="black"/>
<path d="M41.8595 35.8015V35.4339H41.3276V38.1399H41.8886V36.5531C41.8886 36.2258 41.8886 35.9608 42.1384 35.9608C42.3152 35.9608 42.3309 36.1185 42.3309 36.363V38.1399H42.8934V36.363C42.8934 36.0933 42.8934 35.8291 42.8094 35.6603C42.6711 35.3732 42.4417 35.3732 42.3631 35.3732C42.0473 35.3732 41.9412 35.5767 41.8595 35.8015Z" fill="black"/>
<path fill-rule="evenodd" clip-rule="evenodd" d="M43.3022 36.2204L43.3024 36.219C43.3181 36.0638 43.351 35.7402 43.6377 35.5209C43.7807 35.4128 43.9512 35.3734 44.1186 35.3734C44.3299 35.3734 44.5523 35.4467 44.7055 35.6605C44.8265 35.8245 44.8351 36.1321 44.8351 36.461V37.5351C44.8351 37.9921 44.8466 38.0449 44.8665 38.1364L44.8673 38.14H44.348C44.3228 38.032 44.3181 37.9689 44.3181 37.7236C44.2451 37.8987 44.1162 38.1945 43.7626 38.1945C43.4908 38.1945 43.2339 37.9863 43.2339 37.4547C43.2339 36.7023 43.6723 36.5036 44.2718 36.461V36.3569C44.2718 36.1187 44.2718 35.8734 44.073 35.8734C43.8844 35.8734 43.8475 36.0769 43.831 36.2922L43.3022 36.2204ZM44.2718 36.8458C43.9512 36.8987 43.8153 37.0012 43.8153 37.3561C43.8153 37.5462 43.8687 37.6952 44.0046 37.6952C44.073 37.6952 44.1351 37.6511 44.1885 37.5462C44.2647 37.394 44.2718 37.2236 44.2718 36.976V36.8458Z" fill="black"/>
<path fill-rule="evenodd" clip-rule="evenodd" d="M45.7901 35.8389V35.4343H45.2708V39.0574H45.8224V37.9415C45.8844 38.0322 45.9858 38.1781 46.2074 38.1781C46.8516 38.1781 46.8917 37.1362 46.8917 36.7498C46.8917 36.2971 46.8265 35.8728 46.6308 35.6054C46.5326 35.4721 46.3802 35.3948 46.2451 35.3948C45.9727 35.3948 45.863 35.6617 45.7922 35.8339L45.7901 35.8389ZM46.0612 37.6575C45.8224 37.6575 45.8224 37.4272 45.8224 37.0361V36.5219C45.8224 36.2797 45.8224 35.8949 46.0761 35.8949C46.2946 35.8949 46.3118 36.2734 46.3118 36.7498C46.3118 37.3224 46.2898 37.6575 46.0612 37.6575Z" fill="black"/>
<path fill-rule="evenodd" clip-rule="evenodd" d="M47.7613 35.4343V35.8389L47.7649 35.8303C47.8364 35.658 47.9457 35.3948 48.2162 35.3948C48.3513 35.3948 48.5022 35.4721 48.6004 35.6054C48.7968 35.8728 48.8644 36.2971 48.8644 36.7498C48.8644 37.1362 48.8219 38.1781 48.18 38.1781C47.9585 38.1781 47.8556 38.0322 47.7943 37.9415V39.0574H47.2411V35.4343H47.7613ZM47.7943 37.0361C47.7943 37.4272 47.7943 37.6575 48.0323 37.6575C48.2602 37.6575 48.2814 37.3224 48.2814 36.7498C48.2814 36.2734 48.2657 35.8949 48.0473 35.8949C47.7943 35.8949 47.7943 36.2797 47.7943 36.5219V37.0361Z" fill="black"/>
<path d="M49.7086 36.087V35.434H49.2112V38.1399H49.7738V36.9711C49.7738 36.7621 49.7738 36.1367 50.1879 36.1367C50.2091 36.1367 50.2318 36.1367 50.2821 36.1493V35.4127C50.2538 35.4016 50.224 35.3945 50.1847 35.3945C49.8571 35.3945 49.7565 35.8567 49.7086 36.087Z" fill="black"/>
<path fill-rule="evenodd" clip-rule="evenodd" d="M52.0397 36.7833C52.0397 37.6516 51.8071 38.1942 51.2171 38.1942C50.6349 38.1942 50.3968 37.6579 50.3968 36.7833C50.3968 35.9394 50.6184 35.3732 51.221 35.3732C51.8189 35.3732 52.0397 35.9394 52.0397 36.7833ZM51.2171 35.9016C51.0356 35.9016 50.9774 36.1185 50.9774 36.7833C50.9774 37.5018 51.0528 37.6674 51.221 37.6674C51.3844 37.6674 51.459 37.5081 51.459 36.7833C51.459 36.0869 51.3938 35.9016 51.221 35.9016H51.2171Z" fill="black"/>
<path fill-rule="evenodd" clip-rule="evenodd" d="M52.9104 35.8389V35.4343H52.3895V39.0574H52.9434V37.9415C53.0039 38.0322 53.1061 38.1781 53.3284 38.1781C53.9719 38.1781 54.0127 37.1362 54.0127 36.7498C54.0127 36.2971 53.9467 35.8728 53.7487 35.6054C53.6513 35.4721 53.5005 35.3948 53.3645 35.3948C53.093 35.3948 52.9827 35.6632 52.9119 35.8353L52.9104 35.8389ZM53.1815 37.6575C52.9434 37.6575 52.9434 37.4272 52.9434 37.0361V36.5219C52.9434 36.2797 52.9434 35.8949 53.1964 35.8949C53.414 35.8949 53.4313 36.2734 53.4313 36.7498C53.4313 37.3224 53.4109 37.6575 53.1815 37.6575Z" fill="black"/>
<path d="M54.8577 35.434V36.087C54.9056 35.8567 55.0046 35.3945 55.3323 35.3945C55.3723 35.3945 55.4022 35.4016 55.4297 35.4127V36.1493C55.3818 36.1367 55.355 36.1367 55.337 36.1367C54.9229 36.1367 54.9229 36.7621 54.9229 36.9711V38.1399H54.3627V35.434H54.8577Z" fill="black"/>
<path d="M56.2011 34.4576H55.6315V35.2052H56.2011V34.4576Z" fill="black"/>
<path d="M55.6354 38.1399H56.1972V35.434H55.6354V38.1399Z" fill="black"/>
<path fill-rule="evenodd" clip-rule="evenodd" d="M56.6304 36.2204L56.6313 36.212C56.6489 36.0544 56.6842 35.737 56.9666 35.5209C57.1104 35.4128 57.2793 35.3734 57.4475 35.3734C57.6588 35.3734 57.8804 35.4467 58.0328 35.6605C58.153 35.8245 58.1624 36.1321 58.1624 36.461V37.5351C58.1624 37.9927 58.1747 38.045 58.1963 38.1368L58.197 38.14H57.6753C57.651 38.032 57.647 37.9689 57.647 37.7236C57.574 37.8987 57.4435 38.1945 57.0908 38.1945C56.8197 38.1945 56.562 37.9863 56.562 37.4547C56.562 36.7023 56.9989 36.5036 57.6023 36.461V36.3569C57.6023 36.1187 57.6023 35.8734 57.4027 35.8734C57.2141 35.8734 57.1749 36.0769 57.1607 36.2922L56.6304 36.2204ZM57.6023 36.8458C57.2793 36.8987 57.1434 37.0012 57.1434 37.3561C57.1434 37.5462 57.1968 37.6952 57.3336 37.6952C57.4027 37.6952 57.4624 37.6511 57.515 37.5462C57.5936 37.394 57.6023 37.2236 57.6023 36.976V36.8458Z" fill="black"/>
<path d="M59.2281 35.434V34.5791L58.7543 34.6391L58.7095 35.434H58.4589V36.0271H58.6812V37.1036C58.6812 37.4483 58.6812 37.7235 58.7786 37.9152C58.8926 38.1336 59.0992 38.1944 59.2815 38.1944C59.4243 38.1944 59.5336 38.1656 59.614 38.1444L59.6311 38.14V37.5634C59.2281 37.595 59.2281 37.5295 59.2281 37.0216V36.0271H59.602V35.434H59.2281Z" fill="black"/>
<path fill-rule="evenodd" clip-rule="evenodd" d="M60.369 36.913C60.3651 37.2789 60.3611 37.6756 60.6393 37.6756C60.8813 37.6756 60.9103 37.3822 60.9245 37.2071L61.4297 37.2513C61.3896 37.5037 61.2772 38.1945 60.6267 38.1945C60.0084 38.1945 59.7868 37.5407 59.7868 36.823C59.7868 36.6472 59.8025 36.2205 59.9392 35.8908C60.083 35.5446 60.3501 35.3735 60.6228 35.3735C60.9763 35.3735 61.1932 35.6377 61.2812 35.8696C61.4265 36.2347 61.4297 36.5801 61.4297 36.913H60.369ZM60.897 36.4784C60.9017 36.3286 60.9103 35.8727 60.6353 35.8727C60.3879 35.8727 60.3787 36.2635 60.3741 36.4635L60.3737 36.4784H60.897Z" fill="black"/>
<path fill-rule="evenodd" clip-rule="evenodd" d="M65.595 36.7833C65.595 37.6516 65.3624 38.1942 64.7708 38.1942C64.1894 38.1942 63.9506 37.6579 63.9506 36.7833C63.9506 35.9394 64.1713 35.3732 64.7755 35.3732C65.3742 35.3732 65.595 35.9394 65.595 36.7833ZM64.7708 35.9016C64.5909 35.9016 64.5335 36.1185 64.5335 36.7833C64.5335 37.5018 64.6074 37.6674 64.7755 37.6674C64.9382 37.6674 65.012 37.5081 65.012 36.7833C65.012 36.0869 64.9468 35.9016 64.7755 35.9016H64.7708Z" fill="black"/>
<path d="M66.4396 36.087V35.434H65.9438V38.1399H66.504V36.9711C66.504 36.7621 66.504 36.1367 66.9197 36.1367C66.9393 36.1367 66.9644 36.1367 67.0132 36.1493V35.4127C66.9849 35.4016 66.9558 35.3945 66.9149 35.3945C66.5873 35.3945 66.4883 35.8567 66.4396 36.087Z" fill="black"/>
<path d="M70.2139 36.8566C70.1683 37.5956 69.8572 38.1942 69.2585 38.1942C68.4265 38.1942 68.23 37.1468 68.23 36.3124C68.23 35.6476 68.3534 34.4259 69.2672 34.4259C69.682 34.4259 69.8863 34.6775 70.0073 34.9188C70.1683 35.2374 70.1903 35.6223 70.2005 35.8392L69.6568 35.8944L69.6559 35.8787C69.6386 35.5863 69.6083 35.0766 69.2719 35.0766C68.9317 35.0766 68.8609 35.6326 68.8609 36.3715C68.8609 36.9875 68.9152 37.5419 69.2719 37.5419C69.5846 37.5419 69.6364 37.0368 69.658 36.8272L69.66 36.8077L70.2139 36.8566Z" fill="black"/>
<path d="M71.09 35.7196V34.479H70.5298V38.14H71.09V36.4231C71.09 36.2031 71.0994 35.9633 71.3445 35.9633C71.5323 35.9633 71.5323 36.1423 71.5323 36.4018V38.14H72.0949V36.4018C72.0949 35.9341 72.0949 35.3734 71.5865 35.3734C71.2589 35.3734 71.1481 35.5982 71.09 35.7196Z" fill="black"/>
<path d="M72.4985 34.4576H73.0665V35.2052H72.4985V34.4576Z" fill="black"/>
<path d="M73.0626 38.1399H72.5008V35.434H73.0626V38.1399Z" fill="black"/>
<path d="M73.4932 34.479H74.0557V38.1399H73.4932V34.479Z" fill="black"/>
<path fill-rule="evenodd" clip-rule="evenodd" d="M76.0258 34.4794V38.1396H75.5049V37.6956C75.4468 37.892 75.3611 38.1782 75.0421 38.1782C74.5024 38.1782 74.3987 37.3391 74.3987 36.8012C74.3987 36.5851 74.3987 35.395 75.0665 35.395C75.336 35.395 75.4193 35.5701 75.4719 35.6821V34.4794H76.0258ZM75.4719 36.5701C75.4719 36.328 75.4719 35.895 75.2268 35.895C75.0084 35.895 74.9801 36.246 74.9801 36.6813C74.9801 37.2074 74.9801 37.6577 75.2229 37.6577C75.4719 37.6577 75.4719 37.2452 75.4719 37.0465V36.5701Z" fill="black"/>
<path d="M76.9566 36.087V35.434H76.4608V38.1399H77.0218V36.9711C77.0218 36.7621 77.0218 36.1367 77.4343 36.1367C77.4547 36.1367 77.4814 36.1367 77.5301 36.1493V35.4127C77.5011 35.4016 77.472 35.3945 77.4311 35.3945C77.1035 35.3945 77.0045 35.8567 76.9566 36.087Z" fill="black"/>
<path fill-rule="evenodd" clip-rule="evenodd" d="M78.2317 36.913C78.2254 37.2789 78.223 37.6756 78.5019 37.6756C78.7424 37.6756 78.7722 37.3822 78.7879 37.2071L79.2923 37.2513C79.2515 37.5037 79.1391 38.1945 78.4894 38.1945C77.8703 38.1945 77.6495 37.5407 77.6495 36.823C77.6495 36.6472 77.6652 36.2205 77.8003 35.8908C77.9441 35.5446 78.212 35.3735 78.4846 35.3735C78.8366 35.3735 79.0551 35.6377 79.1438 35.8696C79.2884 36.2347 79.2923 36.5801 79.2923 36.913H78.2317ZM78.7589 36.4784C78.7636 36.3286 78.7722 35.8727 78.4964 35.8727C78.2468 35.8727 78.2404 36.2728 78.2373 36.4706L78.2372 36.4784H78.7589Z" fill="black"/>
<path d="M80.1698 35.8015V35.4339H79.6364V38.1399H80.1973V36.5531C80.1973 36.2258 80.1973 35.9608 80.448 35.9608C80.6247 35.9608 80.6405 36.1185 80.6405 36.363V38.1399H81.2007V36.363C81.2007 36.0933 81.2007 35.8291 81.1205 35.6603C80.9799 35.3732 80.752 35.3732 80.6735 35.3732C80.3576 35.3732 80.2516 35.5767 80.1698 35.8015Z" fill="black"/>
<path d="M83.3171 34.479V36.5698C83.3171 37.1037 83.3171 37.5422 83.7045 37.5422C83.8899 37.5422 83.9763 37.4271 84.0203 37.2985C84.069 37.1574 84.069 36.9712 84.069 36.5698V34.479H84.575V36.5351C84.575 37.1858 84.575 37.6889 84.2419 37.9863C84.1154 38.0959 83.9347 38.1945 83.6518 38.1945C82.7224 38.1945 82.7177 37.3474 82.7177 36.5698V34.479H83.3171Z" fill="black"/>
<path d="M85.5914 35.8015V35.4339H85.0579V38.1399H85.6197V36.5531C85.6197 36.2258 85.6197 35.9608 85.8695 35.9608C86.0463 35.9608 86.062 36.1185 86.062 36.363V38.1399H86.6238V36.363C86.6238 36.0933 86.6238 35.8291 86.5421 35.6603C86.4007 35.3732 86.1728 35.3732 86.0958 35.3732C85.7808 35.3732 85.6723 35.5767 85.5914 35.8015Z" fill="black"/>
<path fill-rule="evenodd" clip-rule="evenodd" d="M88.5653 34.4794V38.1396H88.0459V37.6956C87.9894 37.892 87.9014 38.1782 87.5824 38.1782C87.0426 38.1782 86.9389 37.3391 86.9389 36.8012C86.9389 36.5851 86.9389 35.395 87.6059 35.395C87.876 35.395 87.9584 35.5678 88.0119 35.6799L88.0129 35.6821V34.4794H88.5653ZM88.0129 36.5701C88.0129 36.328 88.0129 35.895 87.7678 35.895C87.5494 35.895 87.5219 36.246 87.5219 36.6813C87.5219 37.2074 87.5219 37.6577 87.7631 37.6577C88.0129 37.6577 88.0129 37.2452 88.0129 37.0465V36.5701Z" fill="black"/>
<path fill-rule="evenodd" clip-rule="evenodd" d="M89.7677 37.6756C89.4881 37.6756 89.4912 37.2789 89.4959 36.913H90.5574C90.5574 36.5801 90.5534 36.2347 90.4089 35.8696C90.3217 35.6377 90.1024 35.3735 89.7497 35.3735C89.4771 35.3735 89.2107 35.5446 89.0661 35.8908C88.9318 36.2205 88.9153 36.6472 88.9153 36.823C88.9153 37.5407 89.1361 38.1945 89.7552 38.1945C90.4057 38.1945 90.5181 37.5037 90.5574 37.2513L90.0537 37.2071C90.0388 37.3822 90.0097 37.6756 89.7677 37.6756ZM89.763 35.8727C90.0388 35.8727 90.0302 36.3286 90.0262 36.4784H89.5022L89.5024 36.4653C89.5063 36.2658 89.5141 35.8727 89.763 35.8727Z" fill="black"/>
<path d="M91.3996 35.434V36.087C91.4475 35.8567 91.5449 35.3945 91.8733 35.3945C91.9158 35.3945 91.9433 35.4016 91.9723 35.4127V36.1493C91.9221 36.1367 91.8993 36.1367 91.8773 36.1367C91.464 36.1367 91.464 36.7621 91.464 36.9711V38.1399H90.9038V35.434H91.3996Z" fill="black"/>
<path d="M94.905 37.5421H94.4571V34.4473H93.9967C93.8828 34.6563 93.7217 34.8913 93.398 35.1216V35.8393C93.6204 35.6824 93.7311 35.5491 93.8561 35.3811V37.5421H93.398V38.1399H94.905V37.5421Z" fill="black"/>
<path d="M95.2681 35.3701C95.4331 34.6178 95.8047 34.4261 96.1693 34.4261C96.6281 34.4261 96.9714 34.744 96.9714 35.408C96.9714 35.9651 96.6961 36.1405 96.5726 36.2191L96.5707 36.2203C96.9227 36.3718 97.0296 36.7062 97.0296 37.0918C97.0296 38.05 96.412 38.1944 96.1362 38.1944C95.9139 38.1944 95.6326 38.106 95.4441 37.8505C95.2681 37.6092 95.2319 37.3229 95.2068 37.1131L95.7395 36.9972C95.7568 37.1904 95.7921 37.5421 96.0962 37.5421C96.2989 37.5421 96.412 37.3442 96.412 37.0358C96.412 36.6683 96.2431 36.5319 95.9885 36.5374H95.8259V35.9506H95.9885C96.1205 35.9506 96.3775 35.9506 96.3775 35.4956C96.3775 35.4506 96.3743 35.2929 96.313 35.1769C96.2675 35.0839 96.1897 35.05 96.1033 35.05C95.8864 35.05 95.8291 35.2866 95.7921 35.4995L95.2681 35.3701Z" fill="black"/>
<path d="M104.474 36.3798C104.326 36.3798 104.21 36.4981 104.21 36.6456C104.21 36.7915 104.326 36.913 104.474 36.913C104.619 36.913 104.738 36.7915 104.738 36.6456C104.738 36.4981 104.619 36.3798 104.474 36.3798Z" fill="black"/>
<path d="M104.483 35.478L104.837 35.1262C104.619 34.9078 104.346 34.9078 104.129 35.1262L104.483 35.478Z" fill="black"/>
<path d="M105.257 35.4017C104.985 35.4017 104.765 35.6233 104.765 35.8946C104.765 36.1683 104.985 36.3884 105.257 36.3884C105.529 36.3884 105.749 36.1683 105.749 35.8946C105.749 35.6233 105.529 35.4017 105.257 35.4017Z" fill="black"/>
<path d="M103.213 35.8946C103.213 35.6233 103.433 35.4017 103.703 35.4017C103.976 35.4017 104.195 35.6233 104.195 35.8946C104.195 36.1683 103.976 36.3884 103.703 36.3884C103.433 36.3884 103.213 36.1683 103.213 35.8946Z" fill="black"/>
<path d="M103.731 36.929C103.458 36.929 103.239 37.1506 103.239 37.4227C103.239 37.6956 103.458 37.9156 103.731 37.9156C104.003 37.9156 104.222 37.6956 104.222 37.4227C104.222 37.1506 104.003 36.929 103.731 36.929Z" fill="black"/>
<path d="M104.723 37.4142C104.723 37.1406 104.944 36.9182 105.216 36.9182C105.489 36.9182 105.708 37.1406 105.708 37.4142C105.708 37.6856 105.489 37.908 105.216 37.908C104.944 37.908 104.723 37.6856 104.723 37.4142Z" fill="black"/>
<path d="M104.119 38.1511L104.474 37.7962L104.829 38.1511C104.609 38.3712 104.335 38.3712 104.119 38.1511Z" fill="black"/>
<path d="M105.609 36.6471L105.961 37.0028C106.18 36.7835 106.18 36.5099 105.961 36.2922L105.609 36.6471Z" fill="black"/>
<path d="M102.969 37.0028L103.319 36.6471L102.969 36.2922C102.749 36.5099 102.749 36.7835 102.969 37.0028Z" fill="black"/>
<path fill-rule="evenodd" clip-rule="evenodd" d="M99.4632 36.6452C99.4632 35.3944 101.709 34.3762 104.483 34.3762C107.255 34.3762 109.503 35.3944 109.503 36.6452C109.503 37.8968 107.255 38.9134 104.483 38.9134C101.709 38.9134 99.4632 37.8968 99.4632 36.6452ZM108.226 36.4843H109.148C109.029 35.9236 108.291 35.4125 107.208 35.0852C107.787 35.4583 108.164 35.9441 108.226 36.4843ZM106.734 36.4843H107.886C107.782 35.78 107.007 35.1814 105.922 34.8975C106.384 35.2816 106.688 35.8463 106.734 36.4843ZM102.559 36.6452C102.559 37.7107 103.421 38.5743 104.483 38.5743C105.545 38.5743 106.406 37.7107 106.406 36.6452C106.406 35.5797 105.545 34.7138 104.483 34.7138C103.421 34.7138 102.559 35.5797 102.559 36.6452ZM101.079 36.4843H102.231C102.274 35.8463 102.581 35.2816 103.042 34.8975C101.958 35.1814 101.181 35.78 101.079 36.4843ZM100.738 36.4843C100.8 35.9441 101.177 35.4583 101.758 35.0852C100.673 35.4125 99.937 35.9236 99.8168 36.4843H100.738ZM100.742 36.8227H99.8215C99.9511 37.3802 100.686 37.8819 101.758 38.2068C101.182 37.8369 100.81 37.3566 100.742 36.8227ZM102.233 36.8227H101.081C101.194 37.5206 101.967 38.1082 103.042 38.3921C102.583 38.012 102.28 37.4552 102.233 36.8227ZM107.885 36.8227H106.734C106.684 37.4552 106.38 38.012 105.922 38.3921C106.997 38.1082 107.769 37.5206 107.885 36.8227ZM108.226 36.8227C108.155 37.3566 107.782 37.8369 107.208 38.2044C108.279 37.8819 109.014 37.3802 109.144 36.8227H108.226Z" fill="black"/>
<path fill-rule="evenodd" clip-rule="evenodd" d="M88.5161 12.0428C89.7308 12.0428 89.851 10.3677 89.851 9.44572C89.851 8.39285 89.6868 6.8392 88.5161 6.8392C87.3195 6.8392 87.1813 8.47566 87.1813 9.44572C87.1813 10.46 87.3353 12.0428 88.5161 12.0428ZM88.5161 11.1406C88.1092 11.1406 88.0298 10.5286 88.0298 9.44572C88.0298 8.34476 88.1092 7.74142 88.5161 7.74142C88.9357 7.74142 89.0025 8.38339 89.0025 9.44572C89.0025 10.5136 88.9302 11.1406 88.5161 11.1406Z" fill="black"/>
<path d="M58.2069 10.1951C58.1479 11.2196 57.7284 12.043 56.9223 12.043C55.8003 12.043 55.5371 10.5966 55.5371 9.44589C55.5371 8.52629 55.7021 6.83936 56.9325 6.83936C57.4903 6.83936 57.7661 7.18793 57.9311 7.52074C58.144 7.95045 58.1736 8.4714 58.191 8.77683L58.1919 8.79366L57.4581 8.86858L57.4568 8.84614C57.434 8.44074 57.3946 7.74158 56.9395 7.74158C56.4807 7.74158 56.3857 8.50421 56.3857 9.5287C56.3857 10.3765 56.4571 11.1407 56.9395 11.1407C57.3619 11.1407 57.4316 10.4401 57.4604 10.1504L57.4628 10.1265L58.2069 10.1951Z" fill="black"/>
<path d="M61.2844 11.968H60.4783V9.89857H59.5897V11.968H58.7836V6.91425H59.5897V8.95216H60.4783V6.91425H61.2844V11.968Z" fill="black"/>
<path d="M64.3213 7.78479V6.91409H62.086V11.9679H64.3213V11.0664H62.8913V9.82271H64.0023V8.95203H62.8913V7.78479H64.3213Z" fill="black"/>
<path d="M67.365 10.1951C67.3045 11.2196 66.8865 12.043 66.0796 12.043C64.9584 12.043 64.6937 10.5966 64.6937 9.44589C64.6937 8.52629 64.8594 6.83936 66.089 6.83936C66.6469 6.83936 66.9234 7.18793 67.0892 7.52074C67.3022 7.95373 67.3321 8.47933 67.3495 8.78377L67.3501 8.79366L66.6154 8.86858L66.6146 8.85338C66.5925 8.44914 66.5539 7.74158 66.0969 7.74158C65.6388 7.74158 65.5438 8.50421 65.5438 9.5287C65.5438 10.3765 65.6153 11.1407 66.0969 11.1407C66.5218 11.1407 66.5903 10.4342 66.6182 10.1468L66.6202 10.1265L67.365 10.1951Z" fill="black"/>
<path d="M68.7484 9.01985V6.91409H67.9415V11.9679H68.7484V10.2549L69.0516 9.64211L69.7022 11.9679H70.535L69.538 8.77063L70.458 6.91409H69.6417L68.7484 9.01985Z" fill="black"/>
<path d="M74.3548 6.91409V7.85971H73.6037V11.9679H72.7984V7.85971H72.0646V6.91409H74.3548Z" fill="black"/>
<path d="M76.4451 11.968H77.2497V6.91425H76.4451V8.95216H75.5558V6.91425H74.7504V11.968H75.5558V9.89857H76.4451V11.968Z" fill="black"/>
<path d="M78.8586 6.91492H78.0517V11.9686H78.8586V6.91492Z" fill="black"/>
<path d="M81.2384 8.36457L81.2395 8.36896L81.9144 8.01248L81.9123 8.00398C81.8317 7.66487 81.6356 6.83975 80.7256 6.83975C79.9195 6.83975 79.551 7.59607 79.551 8.38396C79.551 9.40546 80.1502 9.70567 80.6503 9.95621L80.6604 9.96129C80.9362 10.0969 81.1672 10.2397 81.1672 10.5962C81.1672 10.9306 80.9755 11.1411 80.6989 11.1411C80.2573 11.1411 80.1521 10.6119 80.1089 10.384L79.4017 10.6561C79.4449 10.8761 79.511 11.1853 79.716 11.5134C80.0146 11.974 80.4106 12.0426 80.6777 12.0426C81.5443 12.0426 81.9827 11.2934 81.9827 10.4298C81.9827 9.40686 81.3848 9.09454 80.9684 8.87845L80.9502 8.86883C80.5696 8.66794 80.3351 8.54416 80.3351 8.20256C80.3351 7.9975 80.4491 7.74118 80.7217 7.74118C81.0872 7.74118 81.1938 8.18049 81.2384 8.36457Z" fill="black"/>
<path fill-rule="evenodd" clip-rule="evenodd" d="M84.1047 6.91388H85.3571C85.7208 6.91388 86.1357 6.91388 86.3619 7.3445C86.4994 7.60397 86.5544 7.92732 86.5544 8.24751C86.5544 9.05362 86.2057 9.23833 86.0349 9.32881L86.032 9.33037L86.0413 9.33504C86.1589 9.39397 86.2718 9.45056 86.4004 9.64189C86.5348 9.83827 86.655 10.1419 86.655 10.567C86.655 11.0055 86.5167 11.5134 86.2512 11.7334C85.9699 11.9685 85.6886 11.9685 85.3571 11.9685H84.1047V6.91388ZM84.8825 8.9518H85.1418C85.3625 8.9518 85.7326 8.9518 85.7326 8.32323C85.7326 7.73174 85.3625 7.73174 85.2023 7.73174H84.8825V8.9518ZM84.8825 11.0978H85.2816C85.6273 11.0978 85.8324 10.9306 85.8324 10.4298C85.8324 9.76965 85.4568 9.76965 85.273 9.76965H84.8825V11.0978Z" fill="black"/>
<path d="M91.1004 6.91409L91.5435 8.23196L92.007 6.91409H92.7809L91.912 9.20125L92.8901 11.9679H92.007L91.4665 10.3164L90.8646 11.9679H90.09L91.1004 9.37712L90.2007 6.91409H91.1004Z" fill="black"/>
<path d="M57.8501 15.3665V14.495H55.6691V19.5488H56.476V17.5574H57.5351V16.6836H56.476V15.3665H57.8501Z" fill="black"/>
<path fill-rule="evenodd" clip-rule="evenodd" d="M60.7601 17.0266C60.7601 17.9502 60.6391 19.623 59.4236 19.623C58.2435 19.623 58.0895 18.0409 58.0895 17.0266C58.0895 16.0574 58.2263 14.4201 59.4236 14.4201C60.5943 14.4201 60.7601 15.9738 60.7601 17.0266ZM58.9389 17.0266C58.9389 18.1103 59.0159 18.7223 59.4236 18.7223C59.8393 18.7223 59.91 18.0945 59.91 17.0266C59.91 15.9643 59.8432 15.3223 59.4236 15.3223C59.0159 15.3223 58.9389 15.9257 58.9389 17.0266Z" fill="black"/>
<path fill-rule="evenodd" clip-rule="evenodd" d="M63.5942 14.9265C63.3121 14.4951 62.9547 14.4951 62.5838 14.4951H61.4328V19.5489H62.2358V17.5575H62.6451L63.1362 19.5489H64.0193L63.3397 17.3446L63.3417 17.3429C63.526 17.1911 63.8598 16.9162 63.8598 16.0236C63.8598 15.6229 63.7867 15.2215 63.5942 14.9265ZM62.2358 16.7381V15.3138H62.5618C62.7001 15.3138 63.0694 15.3138 63.0694 16.0094C63.0694 16.4266 62.9421 16.7381 62.5948 16.7381H62.2358Z" fill="black"/>
<path d="M67.6397 15.9499L67.6391 15.9474C67.5955 15.7652 67.4895 15.3221 67.1219 15.3221C66.8501 15.3221 66.7353 15.5776 66.7353 15.7835C66.7353 16.1267 66.9713 16.2508 67.355 16.4526L67.3678 16.4594L67.3726 16.4619C67.7873 16.6786 68.386 16.9917 68.386 18.0115C68.386 18.8743 67.9429 19.6227 67.0779 19.6227C66.8116 19.6227 66.4148 19.5549 66.1162 19.0935C65.9135 18.767 65.8459 18.4579 65.8027 18.237L66.5091 17.9641C66.5523 18.1929 66.6568 18.7228 67.0983 18.7228C67.3749 18.7228 67.5674 18.5107 67.5674 18.1787C67.5674 17.8206 67.3364 17.6779 67.0606 17.5414L67.055 17.5386C66.5533 17.2892 65.952 16.9903 65.952 15.9649C65.952 15.177 66.3205 14.4207 67.1258 14.4207C68.0423 14.4207 68.2352 15.2562 68.3125 15.5913L68.313 15.5934L67.6397 15.9499Z" fill="black"/>
<path fill-rule="evenodd" clip-rule="evenodd" d="M71.1141 14.8816C70.8375 14.4951 70.4337 14.4951 70.0479 14.4951H68.988V19.5489H69.7942V17.6845H70.0817C70.3072 17.6845 70.7613 17.6845 71.0371 17.3903C71.3215 17.0859 71.4229 16.578 71.4229 16.078C71.4229 15.731 71.3671 15.2451 71.1141 14.8816ZM69.7942 16.813V15.3138H70.0479C70.2247 15.3138 70.5673 15.3138 70.5673 16.0567C70.5673 16.7294 70.33 16.813 70.0479 16.813H69.7942Z" fill="black"/>
<path d="M74.1507 14.495V15.3665H72.7216V16.533H73.8325V17.4036H72.7216V18.6474H74.1507V19.5488H71.9163V14.495H74.1507Z" fill="black"/>
<path d="M75.9091 19.6231C76.7152 19.6231 77.1348 18.8006 77.1945 17.7761L76.4489 17.7082L76.4468 17.7298C76.4188 18.0181 76.3506 18.7225 75.9256 18.7225C75.4447 18.7225 75.3733 17.9575 75.3733 17.1104C75.3733 16.086 75.4675 15.3225 75.9256 15.3225C76.3815 15.3225 76.4208 16.0219 76.4437 16.428L76.4449 16.4503L77.178 16.3746C77.1622 16.0717 77.1346 15.54 76.9187 15.1009C76.7529 14.7689 76.4763 14.4203 75.9201 14.4203C74.6897 14.4203 74.5239 16.108 74.5239 17.0268C74.5239 18.1791 74.7887 19.6231 75.9091 19.6231Z" fill="black"/>
<path d="M78.5773 14.4956H77.7712V19.5494H78.5773V14.4956Z" fill="black"/>
<path d="M81.5609 15.3665V14.495H79.3799V19.5488H80.186V17.5574H81.2451V16.6836H80.186V15.3665H81.5609Z" fill="black"/>
<path d="M82.7406 14.4956H81.9337V19.5494H82.7406V14.4956Z" fill="black"/>
<path d="M84.7948 19.6231C85.6025 19.6231 86.0213 18.8006 86.081 17.7761L85.3369 17.7082L85.3346 17.732C85.3058 18.0217 85.2361 18.7225 84.8113 18.7225C84.3313 18.7225 84.2598 17.9575 84.2598 17.1104C84.2598 16.086 84.3556 15.3225 84.8113 15.3225C85.27 15.3225 85.3085 16.0304 85.3306 16.4353L85.3315 16.4503L86.0653 16.3746L86.0649 16.3677C86.0483 16.0637 86.0196 15.5369 85.8052 15.1009C85.6394 14.7689 85.3629 14.4203 84.8058 14.4203C83.5762 14.4203 83.4097 16.108 83.4097 17.0268C83.4097 18.1791 83.6752 19.6231 84.7948 19.6231Z" fill="black"/>
<path d="M90.713 17.7761C90.6517 18.8006 90.2321 19.6231 89.4253 19.6231C88.3072 19.6231 88.0409 18.1791 88.0409 17.0268C88.0409 16.108 88.2067 14.4203 89.4363 14.4203C89.9941 14.4203 90.2714 14.7689 90.4372 15.1009C90.651 15.5387 90.6798 16.0681 90.6963 16.3715L90.6965 16.3746L89.9619 16.4503L89.9612 16.4369C89.9399 16.0321 89.9025 15.3225 89.4433 15.3225C88.9861 15.3225 88.891 16.086 88.891 17.1104C88.891 17.9575 88.9617 18.7225 89.4433 18.7225C89.8727 18.7225 89.9389 18.0012 89.9648 17.7197L89.9658 17.7082L90.713 17.7761Z" fill="black"/>
<path fill-rule="evenodd" clip-rule="evenodd" d="M92.493 19.623C93.706 19.623 93.8278 17.9502 93.8278 17.0266C93.8278 15.9738 93.6628 14.4201 92.493 14.4201C91.2948 14.4201 91.1565 16.0574 91.1565 17.0266C91.1565 18.0409 91.3113 19.623 92.493 19.623ZM92.493 18.7223C92.0836 18.7223 92.0058 18.1103 92.0058 17.0266C92.0058 15.9257 92.0836 15.3223 92.493 15.3223C92.9109 15.3223 92.9777 15.9643 92.9777 17.0266C92.9777 18.0945 92.9054 18.7223 92.493 18.7223Z" fill="black"/>
<path d="M95.3626 14.495L96.3085 17.6316V14.495H96.9371V19.5488H96.215L95.0931 15.8902V19.5488H94.463V14.495H95.3626Z" fill="black"/>
<path d="M99.5833 15.4414V14.495H97.2915V15.4414H98.0269V19.5488H98.8322V15.4414H99.5833Z" fill="black"/>
<path d="M102.213 14.495V15.3665H100.784V16.533H101.892V17.4036H100.784V18.6474H102.213V19.5488H99.9766V14.495H102.213Z" fill="black"/>
<path d="M104.529 17.6316L103.584 14.495H102.684V19.5488H103.314V15.8902L104.434 19.5488H105.158V14.495H104.529V17.6316Z" fill="black"/>
<path d="M107.803 14.495V15.4414H107.053V19.5488H106.247V15.4414H105.512V14.495H107.803Z" fill="black"/>
<path d="M55.6692 22.0747H56.4761V27.1285H55.6692V22.0747Z" fill="black"/>
<path d="M58.1454 22.0745L59.0882 25.2126V22.0745H59.7183V27.1283H58.9939L57.8743 23.4688V27.1283H57.245V22.0745H58.1454Z" fill="black"/>
<path d="M62.6685 22.946V22.0745H60.4874V27.1283H61.2928V25.1353H62.3526V24.2654H61.2928V22.946H62.6685Z" fill="black"/>
<path fill-rule="evenodd" clip-rule="evenodd" d="M65.5784 24.606C65.5784 25.5303 65.4582 27.2054 64.2428 27.2054C63.0611 27.2054 62.9087 25.6202 62.9087 24.606C62.9087 23.6359 63.0454 21.9995 64.2428 21.9995C65.4127 21.9995 65.5784 23.5523 65.5784 24.606ZM63.7565 24.606C63.7565 25.688 63.8358 26.304 64.2428 26.304C64.6576 26.304 64.7283 25.6739 64.7283 24.606C64.7283 23.5452 64.6623 22.9009 64.2428 22.9009C63.8358 22.9009 63.7565 23.5074 63.7565 24.606Z" fill="black"/>
<path fill-rule="evenodd" clip-rule="evenodd" d="M68.4119 22.5074C68.1299 22.0745 67.7716 22.0745 67.4031 22.0745H66.249V27.1283H67.0535V25.1353H67.4621L67.9539 27.1283H68.837L68.1582 24.9231L68.1592 24.9223C68.3424 24.7715 68.6767 24.4964 68.6767 23.6053C68.6767 23.2046 68.6052 22.8024 68.4119 22.5074ZM67.0535 24.3182V22.8947H67.3796C67.5171 22.8947 67.8879 22.8947 67.8879 23.5903C67.8879 24.0075 67.759 24.3182 67.4133 24.3182H67.0535Z" fill="black"/>
<path d="M70.5499 22.0745L71.0692 25.1976L71.6545 22.0745H72.8016V27.1283H72.0458V22.8947L71.2947 27.1283H70.7054L70.0195 22.8947V27.1283H69.3635V22.0745H70.5499Z" fill="black"/>
<path fill-rule="evenodd" clip-rule="evenodd" d="M76.1143 27.1285L75.0662 22.0747H74.2484L73.1445 27.1285H73.8901L74.0716 26.0906H75.104L75.2909 27.1285H76.1143ZM74.5846 23.1591L74.9547 25.2183H74.2263L74.5846 23.1591Z" fill="black"/>
<path d="M78.4067 22.0745V23.0224H77.6548V27.1283H76.8502V23.0224H76.118V22.0745H78.4067Z" fill="black"/>
<path d="M78.802 22.0747H79.6073V27.1285H78.802V22.0747Z" fill="black"/>
<path fill-rule="evenodd" clip-rule="evenodd" d="M82.9502 24.606C82.9502 25.5303 82.8292 27.2054 81.6138 27.2054C80.4329 27.2054 80.2781 25.6202 80.2781 24.606C80.2781 23.6359 80.4164 21.9995 81.6138 21.9995C82.7837 21.9995 82.9502 23.5523 82.9502 24.606ZM81.1283 24.606C81.1283 25.688 81.2052 26.304 81.6138 26.304C82.0286 26.304 82.0986 25.6739 82.0986 24.606C82.0986 23.5452 82.0318 22.9009 81.6138 22.9009C81.2052 22.9009 81.1283 23.5074 81.1283 24.606Z" fill="black"/>
<path d="M85.4302 25.2126L84.4866 22.0745H83.587V27.1283H84.2155V23.4688L85.3367 27.1283H86.0595V22.0745H85.4302V25.2126Z" fill="black"/>
<path d="M7.05901 3.1192C6.93958 3.25958 6.80051 3.25958 6.63631 3.25958H6.24896V2.42044H6.63238C6.76123 2.42044 6.90422 2.42044 7.01265 2.50641C7.10693 2.58606 7.15485 2.71539 7.15485 2.8392C7.15485 2.93936 7.12421 3.04111 7.05901 3.1192Z" fill="black"/>
<path d="M9.13399 2.66333L9.44905 3.77377H8.81972L9.13399 2.66333Z" fill="black"/>
<path d="M12.0222 3.21146H11.6442V2.40466H12.0041C12.023 2.40466 12.0433 2.40432 12.0645 2.40396C12.1908 2.40182 12.3509 2.39911 12.4511 2.4646C12.5501 2.53085 12.6177 2.66333 12.6177 2.78717C12.6177 2.92517 12.5588 3.07346 12.4456 3.14679C12.3372 3.21498 12.2031 3.21339 12.0766 3.21189C12.0583 3.21167 12.0401 3.21146 12.0222 3.21146Z" fill="black"/>
<path d="M31.9981 3.21146H31.6194V2.40466H31.9824C32.0009 2.40466 32.0208 2.40432 32.0418 2.40396C32.1665 2.40182 32.3261 2.39909 32.4263 2.4646C32.5237 2.53085 32.5944 2.66333 32.5944 2.78717C32.5944 2.92517 32.534 3.07346 32.4224 3.14679C32.312 3.21495 32.18 3.21339 32.0532 3.21189C32.0347 3.21167 32.0163 3.21146 31.9981 3.21146Z" fill="black"/>
<path d="M34.3999 3.41888C34.3999 3.22015 34.4259 2.94806 34.4958 2.75876C34.5783 2.53085 34.7079 2.40228 34.9436 2.40228C35.1589 2.40228 35.2838 2.49692 35.3718 2.70987C35.4575 2.92123 35.4803 3.19333 35.4803 3.42361C35.4803 3.63339 35.4575 3.89288 35.3875 4.08768C35.3105 4.32269 35.1817 4.44733 34.9436 4.44733C34.4565 4.44733 34.3999 3.81717 34.3999 3.41888Z" fill="black"/>
<path d="M19.0571 7.06569L19.3722 8.17613H18.7429L19.0571 7.06569Z" fill="black"/>
<path d="M28.1781 7.82202C28.1781 7.62328 28.2041 7.35197 28.2716 7.16191C28.3557 6.9332 28.4845 6.80386 28.721 6.80386C28.9387 6.80386 29.0612 6.90085 29.1484 7.11221C29.2349 7.32437 29.2561 7.59567 29.2561 7.82596C29.2561 8.03339 29.2349 8.29601 29.1657 8.48923C29.0887 8.72583 28.9591 8.84886 28.721 8.84886C28.2339 8.84886 28.1781 8.21715 28.1781 7.82202Z" fill="black"/>
<path d="M36.9314 8.81337H36.6989V6.82593H36.9369C37.182 6.82593 37.3596 6.85828 37.5183 7.07831C37.6613 7.27705 37.7304 7.5452 37.7304 7.79442C37.7304 8.02629 37.6825 8.27156 37.567 8.47504C37.406 8.75107 37.2205 8.81337 36.9314 8.81337Z" fill="black"/>
<path fill-rule="evenodd" clip-rule="evenodd" d="M111.256 40.8917H0.73584V0H111.256V40.8917ZM52.6364 10.7093H1.63073V32.0736H52.6364V10.7093ZM1.63073 39.9343H97.8712V32.9364H1.63073V39.9343ZM98.7575 39.9343H110.301V32.9364H98.7575V39.9343ZM53.5824 32.057H110.301V0.9953H53.5824V32.057ZM5.55835 5.00333H6.24896V3.83374L6.71847 3.83375C7.02232 3.83391 7.28726 3.83405 7.53434 3.61368C7.75433 3.41495 7.85332 3.10974 7.85332 2.81161C7.85332 2.48352 7.71898 2.21063 7.46913 2.02295C7.22321 1.84235 6.96001 1.84235 6.67166 1.84235H5.55835V5.00333ZM9.79002 5.00333H10.5372L9.60933 1.84235H8.80557L7.85804 5.00333H8.46537L8.65237 4.35504H9.60933L9.79002 5.00333ZM10.9536 5.00333H11.6442V3.75723H12.1479L12.6004 5.00333H13.3696L12.822 3.60895C13.1425 3.48276 13.335 3.15152 13.335 2.79111C13.335 2.48352 13.2007 2.17358 12.9587 2.00558C12.7308 1.84628 12.4629 1.84235 12.1997 1.84235H10.9536V5.00333ZM14.5583 3.09711V2.45514H15.982V1.84235H13.8685V5.00333H15.982V4.39368H14.5583V3.69098H15.6803V3.09711H14.5583ZM18.1379 5.00333H18.7295V1.84235H18.1937V3.69965H18.1866L17.199 1.84235H16.4526V5.00333H16.9869V2.88101H17.0042L18.1379 5.00333ZM20.6089 2.46854H21.3513V1.84235H19.1687V2.46854H19.9198V5.00333H20.6089V2.46854ZM22.7789 2.37231C23.0421 2.37231 23.2008 2.47958 23.2888 2.74695L23.8749 2.53873C23.6919 1.9906 23.27 1.7966 22.7538 1.7966C22.4819 1.7966 22.2266 1.86285 22.0121 2.05527C21.7992 2.24457 21.6923 2.50244 21.6923 2.79742C21.6923 3.48749 22.2093 3.65469 22.7349 3.76904L22.7771 3.77828C22.9645 3.81877 23.2535 3.88123 23.2535 4.12396C23.2535 4.3866 22.9911 4.46625 22.7923 4.46625C22.4859 4.46625 22.2627 4.3511 22.1755 4.01669L21.536 4.17285C21.6711 4.79276 22.1755 5.05063 22.7302 5.05063C23.0296 5.05063 23.3509 4.99228 23.5898 4.79276C23.8168 4.60425 23.9559 4.3093 23.9559 4.00012C23.9559 3.68625 23.8097 3.42361 23.5693 3.25168C23.3785 3.11848 23.0928 3.05299 22.8616 2.99998L22.797 2.98511C22.6296 2.95279 22.368 2.89838 22.368 2.6673C22.368 2.42358 22.5919 2.37231 22.7789 2.37231ZM26.8244 2.37231C27.0868 2.37231 27.2463 2.47958 27.3335 2.74695L27.9181 2.53873C27.7381 1.9906 27.3154 1.7966 26.7969 1.7966C26.5266 1.7966 26.2721 1.86285 26.056 2.05527C25.8439 2.24457 25.7362 2.50244 25.7362 2.79742C25.7362 3.48749 26.2556 3.65469 26.7804 3.76904L26.8249 3.77892C27.0103 3.81944 27.299 3.88251 27.299 4.12396C27.299 4.3866 27.0358 4.46625 26.8362 4.46625C26.5321 4.46625 26.3058 4.3511 26.2194 4.01669L25.5822 4.17285C25.7134 4.79276 26.2194 5.05063 26.7757 5.05063C27.0735 5.05063 27.3979 4.99228 27.6344 4.79276C27.8631 4.60425 28.0021 4.3093 28.0021 4.00012C28.0021 3.68625 27.8544 3.42361 27.6132 3.25168C27.4233 3.11811 27.136 3.05263 26.9031 2.99954L26.8401 2.98511C26.6735 2.95279 26.4151 2.89838 26.4151 2.6673C26.4151 2.42358 26.6374 2.37231 26.8244 2.37231ZM29.7338 2.46854H30.4762V1.84235H28.2944V2.46854H29.0447V5.00333H29.7338V2.46854ZM30.9288 5.00333H31.6194V3.75723H32.1246L32.5772 5.00333H33.344L32.7971 3.60895C33.1161 3.48276 33.3102 3.15152 33.3102 2.79111C33.3102 2.48352 33.1758 2.17358 32.9346 2.00558C32.7068 1.84628 32.4381 1.84235 32.1741 1.84235H30.9288V5.00333ZM33.6763 3.41888C33.6763 3.81717 33.7706 4.22726 33.9882 4.55457C34.22 4.90317 34.5437 5.05063 34.9436 5.05063C35.3459 5.05063 35.6947 4.87634 35.9242 4.51752C36.1143 4.21622 36.2039 3.77853 36.2039 3.41888C36.2039 3.03638 36.0954 2.59 35.8849 2.28162C35.6468 1.93384 35.338 1.7966 34.9436 1.7966C34.0692 1.7966 33.6763 2.57974 33.6763 3.41888ZM38.4171 5.00333H39.0072V1.84235H38.4721V3.69965H38.4635L37.4751 1.84235H36.7287V5.00333H37.2637V2.88101H37.281L38.4171 5.00333ZM40.749 3.31241V3.90469H41.3092C41.3257 4.22726 41.1207 4.45047 40.8174 4.45047C40.335 4.45047 40.2266 3.87238 40.2266 3.4599C40.2266 3.06952 40.2988 2.39203 40.786 2.39203C41.1207 2.39203 41.2794 2.65781 41.3092 2.97485L41.966 2.88101C41.8757 2.21063 41.442 1.7966 40.8048 1.7966C39.9107 1.7966 39.5202 2.59393 39.5202 3.45203C39.5202 4.28247 39.8777 5.05063 40.7443 5.05063C41.0892 5.05063 41.3312 4.92682 41.5512 4.64133L41.651 5.00333H41.966V3.31241H40.749ZM44.4496 5.00333V4.3779H43.2585V1.84235H42.5687V5.00333H44.4496ZM45.8112 5.00333V3.67206L46.7391 1.84235H46.1176L45.5574 3.04584L44.9878 1.84235H44.1856L45.1229 3.67206V5.00333H45.8112ZM16.2672 6.79202C16.6467 6.79202 16.759 7.1209 16.7637 7.47185L17.4874 7.4198C17.4088 6.66031 17.0309 6.19894 16.2892 6.19894C15.3998 6.19894 14.9598 6.95055 14.9598 7.82596C14.9598 8.68956 15.3857 9.45378 16.2672 9.45378C16.9484 9.45378 17.4151 9.02473 17.4874 8.30074L16.814 8.255C16.7763 8.55943 16.6247 8.84886 16.3018 8.84886C15.7809 8.84886 15.7314 8.29207 15.7314 7.85829C15.7314 7.47343 15.7809 6.79202 16.2672 6.79202ZM19.714 9.40724H20.4596L19.5317 6.2431H18.7295L17.782 9.40724H18.3885L18.5747 8.75659H19.5317L19.714 9.40724ZM23.1836 8.17868L23.1835 6.2431H22.5872V8.15642C22.5872 8.16697 22.5873 8.17774 22.5874 8.1887C22.5875 8.19863 22.5876 8.2087 22.5877 8.21891C22.5894 8.37591 22.5914 8.56336 22.5079 8.68956C22.4199 8.81337 22.2172 8.85834 22.0797 8.85834C21.9123 8.85834 21.7261 8.81337 21.6358 8.64618C21.5696 8.51944 21.5697 8.31732 21.5698 8.17074L21.5698 6.2431H20.8194V8.15642C20.8194 8.54602 20.8328 8.90881 21.1266 9.18248C21.3639 9.40251 21.7222 9.45378 22.0325 9.45378C22.3554 9.45378 22.7051 9.37491 22.9431 9.12175C23.1838 8.86936 23.1837 8.51879 23.1836 8.17868ZM25.0213 6.87167H25.7622V6.2431H23.5803V6.87167H24.3306V9.40724H25.0213V6.87167ZM26.2163 9.40724H26.9053V6.24548H26.2163V9.40724ZM27.4529 7.82202C27.4529 8.21715 27.5488 8.62646 27.7633 8.95691C27.9982 9.30472 28.3211 9.45378 28.721 9.45378C29.1225 9.45378 29.4729 9.27948 29.7016 8.91748C29.8901 8.61858 29.9797 8.18007 29.9797 7.82202C29.9797 7.43951 29.8728 6.99077 29.6607 6.68399C29.4258 6.33774 29.1139 6.19894 28.721 6.19894C27.845 6.19894 27.4529 6.98288 27.4529 7.82202ZM32.1937 9.40724H32.783V6.2431H32.2487V8.10201H32.2401L31.2525 6.2431H30.5061V9.40724H31.0404V7.28415H31.0584L32.1937 9.40724ZM34.1242 7.49945V6.85828H35.5478V6.2431H33.4343V9.40724H35.5478V8.79366H34.1242V8.09412H35.2469V7.49945H34.1242ZM37.985 6.59958C37.6613 6.27307 37.2944 6.2431 36.8678 6.2431H36.0098V9.40724H36.9841C37.4028 9.40724 37.765 9.31497 38.0581 8.96875C38.3221 8.65012 38.4423 8.2408 38.4423 7.81493C38.4423 7.36064 38.3032 6.92215 37.985 6.59958Z" fill="black"/>
<path fill-rule="evenodd" clip-rule="evenodd" d="M113.658 39.3857H114.097V38.1948H114.405C114.758 38.1948 114.934 38.3265 114.998 38.6806C115.054 39.0418 115.12 39.2958 115.187 39.3857H115.649C115.602 39.2958 115.539 39.1317 115.474 38.6995C115.418 38.2926 115.253 38.0702 115.011 38.0276V38.0055C115.307 37.918 115.55 37.6956 115.55 37.3336C115.55 37.0686 115.46 36.8777 115.297 36.7578C115.132 36.6356 114.857 36.5488 114.439 36.5488C114.109 36.5488 113.888 36.5804 113.658 36.6151V39.3857ZM114.416 37.8501H114.097V36.9132C114.175 36.9029 114.274 36.8903 114.416 36.8903C114.911 36.8903 115.088 37.1324 115.088 37.3754C115.088 37.7192 114.779 37.8501 114.416 37.8501Z" fill="black"/>
<path fill-rule="evenodd" clip-rule="evenodd" d="M117 37.9393C117 36.5591 115.924 35.4581 114.571 35.4581H114.561C113.209 35.4581 112.108 36.5591 112.108 37.9393C112.108 39.3407 113.209 40.4322 114.561 40.4322C115.924 40.4322 117 39.3407 117 37.9393ZM112.581 37.9393C112.581 36.7791 113.47 35.8414 114.561 35.8414H114.571C115.672 35.8414 116.551 36.7791 116.551 37.9503C116.551 39.1199 115.672 40.0584 114.571 40.0482C113.47 40.0482 112.581 39.1199 112.581 37.9393Z" fill="black"/>
</g>
<defs>
<clipPath id="clip0_880_111960">
<rect width="116.264" height="40.8917" fill="white" transform="translate(0.73584)"/>
</clipPath>
</defs>
</svg>
