<svg width="117" height="34" viewBox="0 0 117 34" fill="none" xmlns="http://www.w3.org/2000/svg">
<g clip-path="url(#clip0_880_112117)">
<path d="M18.3726 15.1542C19.0172 15.3214 19.4506 15.4338 19.5907 16.0395C19.7762 16.8613 19.6418 18.4339 19.6418 18.4339C19.6418 20.184 18.1804 20.3582 15.5924 20.3527C10.751 20.4135 10.6662 17.4086 10.5782 13.2665C10.4611 7.77661 11.0103 5.34277 15.9672 5.37592C19.3841 5.40036 19.5907 5.55966 19.9867 8.50693L19.988 8.51344C20.177 9.50704 20.3862 10.6067 23.0501 10.3942C24.9538 10.3193 25.3294 8.84448 25.3034 7.27029C25.2752 5.70715 25.1942 4.84198 23.2709 4.20947C22.0271 3.78043 19.7864 3.28751 15.5099 3.22678C15.1809 3.24992 14.7955 3.25506 14.37 3.26074C10.8957 3.30708 4.74689 3.3891 4.77279 13.601C5.00456 22.4419 9.04847 22.5941 14.7934 22.7148C24.1171 22.8702 25.0709 20.5972 25.0709 20.5972C25.0709 20.5972 25.0638 17.1933 25.0709 16.6389C25.0897 15.5947 26.0294 15.1073 26.5998 14.9669C28.7714 14.429 28.3802 13.2303 26.5857 13.1964C25.7635 13.1576 23.2349 13.1883 21.5119 13.2092C21.1652 13.2134 20.8511 13.2172 20.5901 13.22H17.6745C15.6985 13.3249 16.133 14.795 17.9117 15.0284C18.0752 15.0771 18.2291 15.117 18.3726 15.1542Z" fill="black"/>
<path d="M61.403 27.5009H60.5725V26.6349H61.403V27.5009Z" fill="black"/>
<path d="M61.403 30.8787H60.5725V27.7801H61.403V30.8787Z" fill="black"/>
<path fill-rule="evenodd" clip-rule="evenodd" d="M54.5146 30.8784V30.3965H54.502C54.3441 30.7262 54.1061 30.9391 53.7392 30.9391C52.9307 30.9391 52.7052 30.0858 52.7052 29.3665C52.7052 28.6283 52.9189 27.7198 53.7564 27.7198C54.0793 27.7198 54.2931 27.8231 54.4738 28.1094V26.6945H55.3058V30.8784H54.5146ZM54.4738 29.1583C54.4738 28.861 54.451 28.3476 54.0723 28.3476C53.5985 28.3476 53.5812 29.0187 53.5812 29.3902C53.5812 29.7262 53.626 30.2932 54.0377 30.2932C54.1909 30.2932 54.3323 30.1828 54.3999 30.0432C54.4683 29.9028 54.4738 29.7372 54.4738 29.5858V29.1583Z" fill="black"/>
<path d="M30.0511 26.6948H30.8816V30.8787H30.0511V26.6948Z" fill="black"/>
<path fill-rule="evenodd" clip-rule="evenodd" d="M28.6687 30.8774H29.6461L28.4306 26.6951H27.3794L26.1372 30.8774H26.9315L27.1751 30.0185H28.4306L28.6687 30.8774ZM27.8099 27.7803L28.2224 29.2503H27.3967L27.8099 27.7803Z" fill="black"/>
<path d="M32.3729 26.6948H31.5432V30.8787H32.3729V26.6948Z" fill="black"/>
<path fill-rule="evenodd" clip-rule="evenodd" d="M37.0051 30.8774H37.9825L36.7678 26.6951H35.7174L34.472 30.8774H35.2703L35.5131 30.0185H36.7678L37.0051 30.8774ZM36.1456 27.7803L36.558 29.2503H35.7315L36.1456 27.7803Z" fill="black"/>
<path fill-rule="evenodd" clip-rule="evenodd" d="M39.6198 27.7199C39.8798 27.7199 40.1344 27.761 40.3827 27.854C40.4392 27.384 40.6027 27.2499 41.0324 27.2499C41.1118 27.2499 41.1856 27.2554 41.265 27.2751V27.854C41.2462 27.8508 41.2275 27.8472 41.2089 27.8436C41.154 27.833 41.0993 27.8224 41.0442 27.8224C40.8863 27.8224 40.7331 27.9021 40.7095 28.0914C40.8682 28.2815 40.9374 28.4329 40.9374 28.6947C40.9374 29.4266 40.2083 29.6404 39.6583 29.6404C39.5004 29.6404 39.3275 29.6222 39.1774 29.5977C39.0989 29.6467 39.0384 29.7192 39.0384 29.8225C39.0384 29.9519 39.0934 30.0237 39.2002 30.0615C39.3471 30.1041 39.6551 30.1167 39.8162 30.1222L40.1792 30.1411C40.682 30.1703 41.2485 30.287 41.2485 30.9637C41.2485 31.3778 40.9696 31.6593 40.6412 31.8052C40.3316 31.9456 39.9238 31.9693 39.586 31.9693C39.1256 31.9693 38.105 31.9511 38.105 31.25C38.105 30.933 38.3415 30.7508 38.6015 30.6893C38.3808 30.5725 38.2346 30.4093 38.2346 30.1341C38.2346 29.7508 38.5214 29.5733 38.8113 29.4463C38.5002 29.317 38.3022 29.0607 38.3022 28.6892C38.3022 27.9392 39.0612 27.7199 39.6198 27.7199ZM39.7277 30.8917C39.5016 30.8852 39.238 30.8776 39.0266 30.8604C38.9244 30.903 38.8451 30.9882 38.8451 31.1096C38.8451 31.2563 38.9362 31.3234 39.0541 31.3596C39.2348 31.4149 39.4941 31.4204 39.6756 31.4204L39.7073 31.4205C39.9337 31.4213 40.4565 31.4234 40.4565 31.1223C40.4565 30.9574 40.2695 30.9211 40.1493 30.9093C40.0619 30.9013 39.9065 30.8968 39.7277 30.8917ZM39.1492 28.6766C39.1492 28.9818 39.3306 29.1458 39.608 29.1458C39.8798 29.1458 40.1053 28.9881 40.1053 28.6718C40.1053 28.3596 39.868 28.2129 39.608 28.2129C39.3432 28.2129 39.1492 28.384 39.1492 28.6766Z" fill="black"/>
<path fill-rule="evenodd" clip-rule="evenodd" d="M42.2955 29.6337L42.3018 29.4814H44.1443C44.1505 29.0611 44.0869 28.6226 43.8512 28.2677C43.6124 27.9151 43.1999 27.7203 42.7992 27.7203C41.9051 27.7203 41.4022 28.4578 41.4022 29.3726C41.4022 30.2922 41.9632 30.9389 42.8204 30.9389C43.7923 30.9389 44.127 30.024 44.127 29.871L43.3586 29.8111C43.3586 30.0974 43.1024 30.2985 42.8502 30.2985C42.488 30.2985 42.2955 29.9996 42.2955 29.6337ZM42.8337 28.3055C43.1959 28.3055 43.2973 28.6163 43.3138 28.9507H42.2955C42.3254 28.5981 42.4653 28.3055 42.8337 28.3055Z" fill="black"/>
<path d="M46.244 28.7071C46.1709 28.4145 45.9572 28.2939 45.6846 28.2939C45.5133 28.2939 45.2548 28.3412 45.2548 28.5675C45.2548 28.7943 45.5194 28.8312 45.8414 28.876C46.3413 28.9457 46.9794 29.0347 46.9794 29.8838C46.9794 30.2072 46.8388 30.495 46.5952 30.6835C46.3351 30.8783 46.0193 30.9391 45.7019 30.9391C45.1032 30.9391 44.543 30.7206 44.3914 30.0242L45.1079 29.9146C45.166 30.2316 45.4764 30.3302 45.7412 30.3302C45.8999 30.3302 46.244 30.2687 46.244 30.0376C46.244 29.8294 46.0759 29.7931 45.9219 29.775C45.7247 29.7505 45.2485 29.659 45.067 29.5928C44.73 29.4634 44.5037 29.1464 44.5037 28.7552C44.5037 27.9941 45.1189 27.7197 45.7309 27.7197C46.2951 27.7197 46.6635 27.9516 46.8615 28.5305L46.244 28.7071Z" fill="black"/>
<path fill-rule="evenodd" clip-rule="evenodd" d="M51.465 30.8774H52.4416L51.2261 26.6951H50.1749L48.9327 30.8774H49.7278L49.9714 30.0185H51.2261L51.465 30.8774ZM50.6055 27.7803L51.0179 29.2503H50.193L50.6055 27.7803Z" fill="black"/>
<path d="M56.6766 28.2566V27.7802H55.8846V30.8781H56.7159V29.2377L56.7158 29.1991C56.7152 28.8674 56.7143 28.4388 57.1347 28.4388C57.5196 28.4388 57.5129 28.8223 57.5075 29.1342C57.5069 29.1698 57.5063 29.2046 57.5063 29.2377V30.8781H58.3383V29.2377L58.3382 29.1963C58.3378 29.0342 58.3371 28.8181 58.3949 28.6832C58.457 28.5365 58.6086 28.445 58.7563 28.445C58.9315 28.445 59.0667 28.5002 59.1122 28.6951C59.1354 28.79 59.1327 29.0118 59.131 29.1557L59.1304 29.2131L59.1303 29.2377V30.8781H59.96V28.9459C59.96 28.9006 59.9608 28.8545 59.9617 28.808C59.9667 28.5338 59.972 28.2448 59.8068 28.0365C59.6386 27.8173 59.3621 27.7195 59.1067 27.7195C58.7516 27.7195 58.4177 27.8906 58.27 28.2566C58.1003 27.8906 57.8622 27.7195 57.4851 27.7195C57.1119 27.7195 56.833 27.8906 56.6876 28.2566H56.6766Z" fill="black"/>
<path d="M63.0818 28.4879H63.697V27.7749H63.0818V26.8048L62.3582 26.8648L62.2835 27.7749H61.7815V28.4879H62.2498V29.8546C62.2498 30.1591 62.2498 30.5321 62.4815 30.7379C62.6693 30.9028 62.9852 30.9391 63.2224 30.9391C63.3756 30.9391 63.5783 30.9154 63.7433 30.872V30.1953C63.6475 30.2072 63.5398 30.219 63.4644 30.219C63.1093 30.219 63.0818 30.1283 63.0818 29.7198V28.4879Z" fill="black"/>
<path d="M65.8661 28.4879H65.2501V29.7198C65.2501 30.1283 65.2776 30.219 65.6335 30.219C65.709 30.219 65.8174 30.2072 65.9109 30.1953V30.872C65.749 30.9154 65.544 30.9391 65.3908 30.9391C65.1551 30.9391 64.8369 30.9028 64.6514 30.7379C64.4189 30.5321 64.4189 30.1591 64.4189 29.8546V28.4879H63.9498V27.7749H64.4519L64.5273 26.8648L65.2501 26.8048V27.7749H65.8661V28.4879Z" fill="black"/>
<path fill-rule="evenodd" clip-rule="evenodd" d="M67.1252 29.6337L67.1315 29.4814H68.9739C68.9786 29.0611 68.9165 28.6226 68.68 28.2677C68.4412 27.9151 68.0287 27.7203 67.628 27.7203C66.7355 27.7203 66.2311 28.4578 66.2311 29.3726C66.2311 30.2922 66.7905 30.9389 67.6516 30.9389C68.6227 30.9389 68.9558 30.024 68.9558 29.871L68.1882 29.8111C68.1882 30.0974 67.9329 30.2985 67.6783 30.2985C67.3169 30.2985 67.1252 29.9996 67.1252 29.6337ZM67.6618 28.3055C68.0232 28.3055 68.1254 28.6163 68.1419 28.9507H67.1252C67.1519 28.5981 67.2941 28.3055 67.6618 28.3055Z" fill="black"/>
<path fill-rule="evenodd" clip-rule="evenodd" d="M71.1436 30.8784V30.3965H71.1295C70.9731 30.7262 70.7343 30.9391 70.3674 30.9391C69.5581 30.9391 69.3311 30.0858 69.3311 29.3665C69.3311 28.6283 69.5479 27.7198 70.3854 27.7198C70.706 27.7198 70.9221 27.8231 71.1028 28.1094V26.6945H71.9324V30.8784H71.1436ZM71.1028 29.1583C71.1028 28.861 71.0792 28.3476 70.7005 28.3476C70.2259 28.3476 70.2094 29.0187 70.2094 29.3902C70.2094 29.7262 70.255 30.2932 70.6667 30.2932C70.8199 30.2932 70.9606 30.1828 71.0289 30.0432C71.0965 29.9028 71.1028 29.7372 71.1028 29.5858V29.1583Z" fill="black"/>
<path d="M103.771 28.9353C103.623 28.9353 103.505 29.0552 103.505 29.2018C103.505 29.3485 103.623 29.4677 103.771 29.4677C103.915 29.4677 104.035 29.3485 104.035 29.2018C104.035 29.0552 103.915 28.9353 103.771 28.9353Z" fill="black"/>
<path d="M103.78 28.0362L104.133 27.6829C103.916 27.4644 103.641 27.4644 103.423 27.6829L103.78 28.0362Z" fill="black"/>
<path d="M104.553 27.9575C104.281 27.9575 104.06 28.1791 104.06 28.4512C104.06 28.7241 104.281 28.9457 104.553 28.9457C104.826 28.9457 105.045 28.7241 105.045 28.4512C105.045 28.1791 104.826 27.9575 104.553 27.9575Z" fill="black"/>
<path d="M102.506 28.4512C102.506 28.1791 102.727 27.9575 103 27.9575C103.27 27.9575 103.49 28.1791 103.49 28.4512C103.49 28.7241 103.27 28.9457 103 28.9457C102.727 28.9457 102.506 28.7241 102.506 28.4512Z" fill="black"/>
<path d="M103.026 29.4859C102.755 29.4859 102.535 29.7076 102.535 29.9796C102.535 30.2517 102.755 30.4733 103.026 30.4733C103.297 30.4733 103.519 30.2517 103.519 29.9796C103.519 29.7076 103.297 29.4859 103.026 29.4859Z" fill="black"/>
<path d="M104.019 29.9713C104.019 29.6968 104.24 29.476 104.511 29.476C104.784 29.476 105.005 29.6968 105.005 29.9713C105.005 30.2426 104.784 30.4642 104.511 30.4642C104.24 30.4642 104.019 30.2426 104.019 29.9713Z" fill="black"/>
<path d="M103.414 30.7085L103.771 30.3544L104.124 30.7085C103.907 30.9278 103.632 30.9278 103.414 30.7085Z" fill="black"/>
<path d="M104.905 29.204L105.257 29.5605C105.477 29.3413 105.477 29.0668 105.257 28.8484L104.905 29.204Z" fill="black"/>
<path d="M102.263 29.5605L102.614 29.204L102.263 28.8484C102.045 29.0668 102.045 29.3413 102.263 29.5605Z" fill="black"/>
<path fill-rule="evenodd" clip-rule="evenodd" d="M98.7568 29.2012C98.7568 27.9488 101.005 26.933 103.78 26.933C106.552 26.933 108.8 27.9488 108.8 29.2012C108.8 30.4544 106.552 31.471 103.78 31.471C101.005 31.471 98.7568 30.4544 98.7568 29.2012ZM107.523 29.0427H108.444C108.326 28.4796 107.589 27.9685 106.504 27.6428C107.084 28.0127 107.461 28.5009 107.523 29.0427ZM106.03 29.0427H107.182C107.079 28.3361 106.303 27.7383 105.218 27.4528C105.682 27.8376 105.985 28.4039 106.03 29.0427ZM101.855 29.2012C101.855 30.2683 102.717 31.1319 103.78 31.1319C104.841 31.1319 105.703 30.2683 105.703 29.2012C105.703 28.1349 104.841 27.2714 103.78 27.2714C102.717 27.2714 101.855 28.1349 101.855 29.2012ZM100.375 29.0427H101.527C101.57 28.4039 101.875 27.8376 102.338 27.4528C101.253 27.7383 100.477 28.3361 100.375 29.0427ZM100.034 29.0427C100.096 28.5009 100.472 28.0127 101.053 27.6428C99.9676 27.9685 99.2314 28.4796 99.1127 29.0427H100.034ZM100.036 29.3802H99.1151C99.2463 29.9363 99.9794 30.4379 101.053 30.7612C100.478 30.3945 100.105 29.9134 100.036 29.3802ZM101.528 29.3802H100.376C100.492 30.0782 101.262 30.6666 102.338 30.9497C101.88 30.5703 101.576 30.0112 101.528 29.3802ZM107.18 29.3802H106.03C105.98 30.0112 105.676 30.5703 105.217 30.9497C106.295 30.6666 107.066 30.0782 107.18 29.3802ZM107.521 29.3802C107.452 29.9134 107.079 30.3945 106.504 30.7612C107.576 30.4379 108.311 29.9363 108.441 29.3802H107.521Z" fill="black"/>
<path d="M52.2325 8.19849V9.49899H53.4291C53.4668 10.2104 53.0245 10.7088 52.3794 10.7088C51.3478 10.7088 51.1176 9.42804 51.1176 8.52264C51.1176 7.65982 51.2747 6.16608 52.315 6.16608C53.0245 6.16608 53.3654 6.75601 53.4291 7.45715L54.8315 7.24341C54.6382 5.77017 53.7166 4.8569 52.3519 4.8569C50.4458 4.8569 49.606 6.61249 49.606 8.50369C49.606 10.3326 50.3712 12.0291 52.2223 12.0291C52.9616 12.0291 53.4762 11.7546 53.9469 11.1245L54.1582 11.9273H54.8315V8.19849H52.2325Z" fill="black"/>
<path d="M57.5106 7.72025V6.3085H60.5512V4.95752H56.0366V11.9278H60.5512V10.5752H57.5106V9.0318H59.9069V7.72025H57.5106Z" fill="black"/>
<path d="M66.2989 11.9283H65.0355L62.6117 7.24435H62.5748V11.9283H61.4324V4.95721H63.0265L65.1369 9.052H65.1565V4.95721H66.2989V11.9283Z" fill="black"/>
<path d="M69.0425 7.72025V6.3085H72.0831V4.95752H67.567V11.9278H72.0831V10.5752H69.0425V9.0318H71.4389V7.72025H69.0425Z" fill="black"/>
<path fill-rule="evenodd" clip-rule="evenodd" d="M74.4672 11.9269H72.9924V4.95667H75.6575C76.2184 4.95667 76.7896 4.96771 77.2783 5.31235C77.7945 5.68854 78.0805 6.36996 78.0805 7.05057C78.0805 7.8432 77.6649 8.57507 76.9837 8.84875L78.1544 11.9269H76.5131L75.5459 9.17447H74.4672V11.9269ZM74.4672 7.97488H75.2772C75.3169 7.97488 75.3571 7.97541 75.3976 7.97593C75.6677 7.97944 75.9501 7.98312 76.1831 7.83295C76.4196 7.67047 76.5508 7.34476 76.5508 7.04031C76.5508 6.76587 76.4031 6.47092 76.1902 6.32895C75.9805 6.18263 75.6434 6.18969 75.3772 6.19527C75.3291 6.19628 75.2833 6.19724 75.2411 6.19724H74.4672V7.97488Z" fill="black"/>
<path fill-rule="evenodd" clip-rule="evenodd" d="M82.7132 11.9272H84.3065L82.3266 4.95688H80.6115L78.5852 11.9272H79.8839L80.2807 10.4949H82.3266L82.7132 11.9272ZM81.3123 6.76608L81.9841 9.21411H80.6382L81.3123 6.76608Z" fill="black"/>
<path d="M89.0315 10.545V11.9283H85.0143V4.95728H86.4882V10.545H89.0315Z" fill="black"/>
<path fill-rule="evenodd" clip-rule="evenodd" d="M49.9861 21.4104H51.5803L49.5996 14.4409H47.8828L45.8566 21.4104H47.1553L47.5536 19.9782H49.5996L49.9861 21.4104ZM48.5845 16.2494L49.2578 18.6974H47.9103L48.5845 16.2494Z" fill="black"/>
<path d="M57.2812 18.7001C57.2814 19.4495 57.2816 20.2232 56.7666 20.7812C56.2582 21.3395 55.5134 21.513 54.8204 21.513C54.1581 21.513 53.3929 21.4003 52.8861 20.9121C52.2583 20.3127 52.2308 19.5114 52.2308 18.6573V14.4395H53.8352V18.6573L53.8351 18.7163C53.8345 19.0369 53.8338 19.4667 53.9735 19.7346C54.1667 20.0998 54.5627 20.2023 54.9218 20.2023C55.2164 20.2023 55.6501 20.0998 55.8355 19.8269C56.0166 19.543 56.0137 19.1191 56.0113 18.7704L56.011 18.7371L56.0107 18.6573V14.4395H57.2812L57.2812 18.7001Z" fill="black"/>
<path fill-rule="evenodd" clip-rule="evenodd" d="M62.6588 15.2231C61.9674 14.5006 61.1848 14.4415 60.2726 14.4415H58.4404V21.411H60.5217C61.415 21.411 62.1897 21.2067 62.8143 20.4449C63.3777 19.7445 63.6361 18.8407 63.6361 17.9045C63.6361 16.899 63.3415 15.9352 62.6588 15.2231ZM60.4109 20.0994H59.9136V15.7207H60.4203C60.9452 15.7207 61.3231 15.7925 61.6649 16.2799C61.9674 16.7168 62.1182 17.3059 62.1182 17.8549C62.1182 18.3738 62.0145 18.9117 61.7662 19.3573C61.4245 19.9677 61.0277 20.0994 60.4109 20.0994Z" fill="black"/>
<path d="M66.0959 14.4397H64.6196V21.4108H66.0959V14.4397Z" fill="black"/>
<path d="M68.8852 17.2047V15.7922H71.9258V14.4404H67.4097V21.4107H71.9258V20.0597H68.8852V18.5155H71.2807V17.2047H68.8852Z" fill="black"/>
<path d="M77.6744 21.4106H76.4118L73.9888 16.7267H73.9495V21.4106H72.8094V14.4404H74.4036L76.5132 18.5352H76.532V14.4404H77.6744V21.4106Z" fill="black"/>
<path d="M81.4506 15.649C82.2606 15.649 82.5002 16.3715 82.5105 17.1436L84.059 17.0324C83.8925 15.3549 83.0816 14.3391 81.4954 14.3391C79.5979 14.3391 78.6575 15.9953 78.6575 17.9259C78.6575 19.8258 79.5704 21.5136 81.4506 21.5136C82.9049 21.5136 83.9003 20.5672 84.059 18.9733L82.6189 18.8708C82.5364 19.5411 82.2158 20.1815 81.5237 20.1815C80.408 20.1815 80.3066 18.9512 80.3066 17.9969C80.3066 17.1538 80.408 15.649 81.4506 15.649Z" fill="black"/>
<path d="M86.5517 15.7922V17.2047H88.9488V18.5155H86.5517V20.0597H89.5939V21.4107H85.0778V14.4404H89.5939V15.7922H86.5517Z" fill="black"/>
<path d="M92.5844 15.6096C93.1477 15.6096 93.4903 15.8423 93.6734 16.4322L94.9265 15.9748C94.5392 14.7657 93.6364 14.3391 92.5325 14.3391C91.9496 14.3391 91.4067 14.481 90.9439 14.9077C90.4937 15.3241 90.2619 15.8936 90.2619 16.5434C90.2619 18.0679 91.3697 18.4338 92.4933 18.6878C92.5244 18.6952 92.5576 18.7026 92.5924 18.7105C92.9915 18.8002 93.6003 18.937 93.6003 19.4702C93.6003 20.049 93.0369 20.2218 92.6127 20.2218C91.959 20.2218 91.4789 19.9678 91.2959 19.2359L89.9312 19.5806C90.2171 20.9426 91.2959 21.5128 92.4838 21.5128C93.121 21.5128 93.8108 21.3803 94.3168 20.9426C94.8055 20.527 95.1001 19.8763 95.1001 19.1957C95.1001 18.5048 94.7874 17.9259 94.2713 17.549C93.8642 17.2507 93.2457 17.106 92.748 16.9896L92.6213 16.9598C92.2638 16.8889 91.7091 16.7674 91.7091 16.2595C91.7091 15.7208 92.1892 15.6096 92.5844 15.6096Z" fill="black"/>
<path fill-rule="evenodd" clip-rule="evenodd" d="M110.552 33.449H0.012207V0H110.552V33.449ZM31.0042 0.996826H0.905518V24.6285H31.0042V0.996826ZM0.905533 32.4924H97.1673V25.4937H0.905533V32.4924ZM98.0535 32.4924H109.597V25.4937H98.0535V32.4924ZM31.951 24.6128H109.597V0.994507H31.951V24.6128Z" fill="black"/>
<path fill-rule="evenodd" clip-rule="evenodd" d="M113.021 31.909H113.46V30.7173H113.768C114.119 30.7173 114.295 30.849 114.361 31.2023C114.417 31.5659 114.483 31.8199 114.549 31.909H115.011C114.967 31.8199 114.901 31.655 114.835 31.2244C114.78 30.8143 114.615 30.5943 114.373 30.5517V30.5288C114.67 30.4405 114.912 30.2188 114.912 29.8553C114.912 29.5903 114.823 29.4026 114.659 29.2819C114.493 29.1597 114.219 29.0706 113.801 29.0706C113.48 29.0706 113.261 29.1029 113.037 29.136L113.021 29.1384V31.909ZM113.779 30.3734H113.46V29.4365C113.537 29.4247 113.636 29.4144 113.779 29.4144C114.274 29.4144 114.45 29.6557 114.45 29.8987C114.45 30.2417 114.142 30.3734 113.779 30.3734Z" fill="black"/>
<path fill-rule="evenodd" clip-rule="evenodd" d="M116.363 30.4626C116.363 29.0824 115.286 27.9774 113.932 27.9774H113.921C112.57 27.9774 111.47 29.0824 111.47 30.4626C111.47 31.864 112.57 32.9571 113.921 32.9571C115.286 32.9571 116.363 31.864 116.363 30.4626ZM111.943 30.4626C111.943 29.304 112.833 28.3639 113.921 28.3639H113.932C115.033 28.3639 115.913 29.304 115.913 30.4728C115.913 31.6432 115.033 32.5817 113.932 32.5714C112.833 32.5714 111.943 31.6432 111.943 30.4626Z" fill="black"/>
</g>
<defs>
<clipPath id="clip0_880_112117">
<rect width="116.351" height="33.449" fill="white" transform="translate(0.012207)"/>
</clipPath>
</defs>
</svg>
